<?xml version="1.0" encoding="UTF-8"?>
<svg id="Capa_2" data-name="Capa 2" xmlns="http://www.w3.org/2000/svg" viewBox="0 0 1440 720">
  <defs>
    <style>
      .cls-1 {
        fill: none;
      }
    </style>
  </defs>
  <g id="Capa_1-2" data-name="Capa 1">
    <g>
      <g>
        <path d="M1095.03,258.78c-1.79-17.22-4.27-34.49-11.16-50.61-11.04-25.85-30.75-43.7-54.41-57.84-27.15-16.22-57.04-21.31-88.01-21.53-50.94-.36-101.88-1.6-152.82-.67-12.72.23-25.49-.42-38.16,1.21-8.35,1.07-14.4,5.67-17.66,13.45-2.59,6.19-3.34,12.78-2.77,19.43.32,3.76,1.83,7.17,5.72,8.59,2.59.95,2.9,2.91,2.93,5.11.03,2.68-.75,5.2-1.58,7.72-11.72,35.74-23.41,71.5-35.14,107.24-25.77,78.54-51.59,157.07-77.27,235.63-1.02,3.11-2.42,4.18-5.56,3.87-5.03-.5-9.48,1.23-13.24,4.51-6.69,5.85-9.05,13.64-9.31,22.17-.33,11.07,7.29,18.7,18.44,18.72,36.72.07,73.44.08,110.16-1.9,26.46,0,52.93-.34,79.38.09,30.62.5,60.65-2.44,90.17-11.06,68.99-20.16,123.71-59.71,160.43-121.46,33.34-56.06,46.61-117.49,39.85-182.69ZM958.71,259.26c-8.01,43.65-21.58,85.7-36.76,127.32-10.65,29.21-22.12,57.99-38.05,84.8-8.47,14.25-17.87,27.82-29.88,39.38-2.97,2.86-6.11,5.58-9.38,8.09-9.96,7.64-20.9,12.57-33.84,11.96-4.95-.23-9.92-.04-14.88-.04,0,.08,0,.16,0,.24-7.28,0-14.56-.13-21.84.05-4.18.11-4.94-1.06-3.56-5.13,16.09-47.34,31.99-94.75,47.96-142.13,23.08-68.49,46.18-136.98,69.16-205.5,1.02-3.05,2.36-4.05,5.54-4,12.74.18,25.48.06,38.22.08,16.87.03,30.45,12.47,31.85,29.24,1.57,18.79-1.18,37.26-4.55,55.64Z"/>
        <path d="M654.69,128.49c-23.95,1.03-47.97.32-71.96.19-3.41-.02-5.84,1.01-8.31,3.31-47.28,44.08-94.64,88.07-141.97,132.08-57.02,53.02-114.02,106.06-171.05,159.08-5.76,5.36-9.6,11.73-10.71,19.59-1.93,13.59,5.98,23.91,17.85,23.86,45.33-.19,90.66-.2,135.99-.36,3.36-.01,4.32.54,3.08,4.14-6.25,18.09-12.3,36.25-18.23,54.45-.97,2.98-2.48,3.5-5.34,3.48-10.61-.09-17.65,4.72-21.03,14.08-1.52,4.2-2.5,8.53-2.71,13.04-.57,12.29,4.96,18.19,17.23,18.19,50.96,0,101.92,0,152.87,0,10.76,0,17.1-4.9,20.52-15.79,3.88-12.39,1.68-21.39-7.28-27.28-2.78-1.83-2.78-3.24-1.78-5.95,6.78-18.43,13.46-36.89,20-55.41.98-2.78,2.24-3.76,5.24-3.73,16.38.15,32.76.08,49.14.07,8.41,0,12.53-2.86,15.1-10.8,5.49-16.95,10.83-33.96,16.35-50.9.81-2.49.83-4.81.2-7.27-2.16-8.4-8.2-12.99-18.07-13.14-11.57-.18-23.14-.04-35.31-.04.68-2.25,1.05-3.67,1.53-5.05,18.31-52.68,36.64-105.35,54.95-158.02,7.53-21.66,14.91-43.38,22.62-64.98,4.19-11.73-1.76-27.59-18.94-26.85ZM466.62,323.41c-7.32,18.75-14.66,37.49-21.99,56.24-.78,1.98-1.28,3.81-4.28,3.79-21.79-.14-43.59-.08-66.94-.08,35.91-32.48,70.83-64.06,105.75-95.63l1.03.76c-4.52,11.64-9.03,23.29-13.57,34.93Z"/>
        <path d="M1188.04,463.12c-1.9-1.45-4.18-2-6.5-2.17-5.95-.45-11.88-.39-17.82.35-21.29,2.67-41.47,9.41-61.53,16.62-9.25,3.33-9.11,3.3-8.36-6.81.72-9.72,1.01-19.47,1.64-29.2.27-4.24-1.94-6.06-5.7-6.61-4.57-.66-3.47,2.97-3.71,5.28-.43,4.1-.62,8.23-.8,12.36-1.16,26.08-2.31,52.16-3.43,78.24-.11,2.53-.43,4.78-2.29,6.82-7.14,7.81-14.11,15.77-21.94,22.9-3.67,3.34-7.48,6.56-12,8.67-1.65.77-3.94,2.03-5.54.19-1.46-1.68.21-3.38,1.04-4.92,5.04-9.45,10.05-18.93,15.21-28.32,1.47-2.66,2.18-5-1.01-6.64-3.01-1.54-5.87-2.08-7.91,1.85-3.41,6.58-7.06,13.05-10.71,19.51-.84,1.49-1.06,4.25-2.91,4.09-2.11-.18-1.51-2.89-1.94-4.55-.46-1.76-.85-3.53-1.32-5.28-.91-3.39-3.63-4.66-6.67-5-3.5-.39-3.05,2.93-3.69,4.88-1.48,4.51-1.06,9.68-3.82,13.69-7.99,11.59-16.93,22.41-27.86,31.41-4.35,3.58-9.04,6.73-14.77,7.64-4.43.7-6.49-1.04-7.14-5.43-.41-2.81,1.37-4.17,3.22-5.65,7.76-6.19,15.49-12.47,20.69-21.12,4.17-6.94,1.64-13.83-5.72-16.21-3.7-1.2-7.18-.46-10.46,1.46-3.71,1.95-5.85,5.39-8.19,8.64-.97,1.72-2.18,3.35-2.88,5.17-5.03,13.17-15.04,22.7-24,32.99-.99,1.14-2.17,3-3.95,2.37-1.77-.62-1.5-2.73-1.76-4.33-.93-5.86-1.64-11.79-4.32-17.2-4.27-8.61-13.13-10.1-19.86-3.36-3.52,3.52-6.34,7.6-9.03,11.76-3.27,5.05-6.52,10.11-9.99,15.48-1.05-2.35-.26-4.03.09-5.75,1.05-5.17,2.12-10.35,3.06-15.54.68-3.77-2.09-4.77-4.86-5.65-3.11-.99-4.24.89-4.74,3.44-2.76,14.09-5.54,28.17-8.2,42.27-.77,4.1-1.61,8.7,3.72,10.39,5.07,1.61,6.94-2.8,8.95-6.05,6.32-10.24,12.31-20.69,18.67-30.91,3.73-5.99,7.44-12.07,13.1-16.68,1.83,1.94,2.02,4.26,2.4,6.53.67,4.07,1.46,8.12,3.02,11.97,3.77,9.31,11.89,11.97,20.49,6.79,4.56-2.75,8.04-6.71,11.75-10.44,9.9,12.83,18.37,14.56,32.18,6.7,7.7-4.39,14.1-10.37,19.88-16.97,5.64-6.44,10.95-13.16,16.44-19.8,2.49,1.78,2.76,3.63,1.4,6.38-4.39,8.86-8.66,17.8-11.96,27.14-2.03,5.74-4.41,11.48-3.93,17.74.29,3.81,3.16,5.11,6.49,5.6,2.05.3,2.82-.58,3.06-2.73,1.64-14.34,7.96-27.1,13.74-40.05,1.04-2.33,2.25-2.78,4.63-1.87,5.43,2.07,10.65,1.24,15.68-1.6,5.83-3.29,10.68-7.74,15.4-12.38,2.99-2.94,5.91-5.95,9.77-9.86-.04,9.12-.86,16.84-.04,24.52,1,9.42,3.92,18.08,11.07,24.73,4.01,3.73,8.69,6.03,14.41,5.11,4.28-.69,5.55-3.92,5.68-7.56.16-4.38-3.33-3.03-5.76-3.18-6.01-.36-10.32-3.41-12.82-8.7-2.21-4.67-3.12-9.75-3.08-14.92.1-11.05.66-22.08,1.08-33.11.57-14.84,1.47-29.68,1.85-44.53.07-2.83.75-4.45,3.7-5.45,6.55-2.22,12.88-5.12,19.42-7.38,22.96-7.96,45.9-16.13,70.87-14.07.9.07,2.12.37,2.57-.85.5-1.35-.53-2.18-1.43-2.87ZM982.46,556.67c.32,5.07-5.14,13-10.96,15.89,1.69-6.58,6.05-12.9,10.96-15.89Z"/>
      </g>
      <rect class="cls-1" width="1440" height="720"/>
    </g>
  </g>
</svg>