<?xml version="1.0" encoding="UTF-8"?>
<svg id="Capa_2" data-name="Capa 2" xmlns="http://www.w3.org/2000/svg" viewBox="0 0 1440 720">
  <defs>
    <style>
      .cls-1 {
        fill: none;
      }
    </style>
  </defs>
  <g id="Capa_4" data-name="Capa 4">
    <g>
      <rect class="cls-1" width="1440" height="720"/>
      <g>
        <path d="M291.85,232.93c.71.38,1.5.25,2.25.33,7.45.84,14.39,3.21,20.77,7.11,11.88,7.26,20.01,17.52,24.29,30.79,1.09,3.38,1.78,6.85,2.12,10.39.22,2.3.51,4.59.65,6.89.08,1.26-.04,2.54-.15,3.8-.46,5.34-1.61,10.53-3.47,15.56-1.41,3.79-3.23,7.38-5.22,10.9-9.44,16.7-18.84,33.43-28.17,50.2-.28.51-.56,1.03-.98,1.45-.47.47-1.01.66-1.68.51-.51-.12-.99-.32-1.46-.53-9.91-4.5-19.85-8.92-29.82-13.28-.57-.25-1.14-.48-1.69-.75-1.31-.64-1.51-1.29-.79-2.58,1.15-2.04,2.31-4.07,3.47-6.11.71-1.24,1.43-2.48,2.14-3.72.14-.25.29-.51.39-.78.22-.59.1-.91-.46-1.2-.34-.18-.72-.29-1.09-.41-6.53-2.07-12.64-4.99-18.03-9.26-9.88-7.83-16.37-17.85-19.27-30.15-1.36-5.77-1.85-11.63-1.53-17.53.63-11.74,4.71-22.18,12.14-31.28,3.85-4.71,8.19-8.9,13.36-12.18,5.5-3.49,11.49-5.73,17.87-6.98,2.49-.49,5-.86,7.53-1,.16,0,.33.01.41-.18h6.44ZM287.94,264.9c-12.07-.04-22.5,9.74-22.43,22.13.08,12.67,10.25,22.54,22.33,22.47,12.32-.08,22.36-9.94,22.34-22.01-.03-12.69-9.81-22.62-22.24-22.58Z"/>
        <path d="M175.07,341.45c0-13.12,0-26.23,0-39.35,0-5.83-.02-11.65-.02-17.48,0-3.58.2-7.15.77-10.69.99-6.2,3.52-11.72,7.23-16.75,6.16-8.36,14.37-13.5,24.48-15.64,2.45-.52,4.92-.95,7.44-.94,1.2,0,2.4.08,3.59.33,2.4.49,3.69,1.78,4.18,4.18.29,1.41.34,2.84.34,4.27,0,22.33,0,44.65,0,66.98,0,.52.01,1.04.06,1.56.04.4.28.57.69.43.18-.06.37-.12.55-.2,2.26-.99,4.53-1.97,6.78-2.98,1.6-.72,2.12-.55,2.76,1.06,1.12,2.78,2.38,5.49,3.91,8.06,5.7,9.58,13.56,16.88,23.38,22.1.4.21.81.42,1.17.69.69.52.83,1.11.42,1.88-1.1,2.07-2.22,4.12-3.35,6.17-.39.71-.87,1.37-1.41,1.98-.94,1.06-2.19,1.53-3.53,1.7-6.09.76-11.21,3.66-15.87,7.4-7.54,6.04-12.47,13.8-14.6,23.25-1.93,8.56-.87,16.85,2.8,24.75,5.28,11.38,13.92,19.11,26.13,22.23,14.23,3.64,27.1.61,38.05-9.35,6.59-5.99,10.47-13.58,12.16-22.3.68-3.5.91-7.03.56-10.58-.22-2.24-.64-4.44-1.24-6.6-.08-.28-.18-.56-.25-.84-.21-.9-.03-1.65.72-2.27,3.9-3.17,6.76-7.18,9.2-11.52,5.67-10.09,11.32-20.19,16.99-30.28.37-.65.73-1.31,1.15-1.92.4-.59.67-.6,1.18-.12.24.22.44.48.65.73,8.19,10.18,14.05,21.52,17.21,34.22,1.12,4.52,1.87,9.1,2.28,13.74.48,5.39.52,10.79.11,16.18-1.32,17.16-7.2,32.59-17.75,46.2-6.47,8.35-14.01,15.56-22.95,21.24-8.68,5.51-18.08,9.23-28.14,11.32-7.35,1.53-14.79,2.24-22.29,2.07-18.89-.41-35.79-6.46-50.73-18.01-8.94-6.91-16.54-15.04-22.42-24.74-5.19-8.56-8.66-17.79-10.62-27.61-1.31-6.56-1.88-13.19-1.85-19.88.04-8.17.04-16.34.04-24.51,0-10.06,0-20.11,0-30.17h.03Z"/>
        <path d="M265.93,360.11c.27.32.55.73.9,1.05.73.69,1.56.85,2.51.41.76-.35.8-.31,1.21.41.19.34.37.69.59,1.01.68.99,1.28,1.2,2.42.84.4-.13.78-.29,1.23-.45.21.46.39.91.6,1.34.64,1.29,1.3,1.61,2.68,1.32.41-.09.86-.34,1.21-.24.41.12.33.71.51,1.09.6,1.24,1.43,1.66,2.77,1.37.16-.03.31-.09.47-.13.69-.18.73-.16,1.01.51.46,1.1,1.12,1.53,2.35,1.5.29,0,.58-.05.87-.09.54-.07.94.13,1.24.59.21.33.46.63.68.95.61.88,1.45,1.14,2.47.91,1.03-.24,1.03-.23,1.5.64.79,1.48,1.76,1.82,3.31,1.17.24-.1.47-.21.77-.33.2.88.38,1.74,1.12,2.32.72.56,1.57.56,2.43.59.03.44-.25.75-.43,1.07-2.7,4.75-5.41,9.49-8.12,14.24-.45.79-.88,1.6-1.35,2.37-.82,1.33-1.76,1.66-3.14.96-3.24-1.65-6.54-3.19-9.84-4.72-.97-.45-1.42-1.18-1.31-2.27.1-.92,0-1.82-.33-2.69-1.26-3.32-5.54-4.52-8.33-2.33-.18.14-.35.29-.51.45-.86.84-1.82.92-2.87.42-1.9-.92-3.8-1.85-5.7-2.77-.79-.38-1.59-.73-2.38-1.12-.32-.16-.64-.33-.91-.56-.53-.43-.73-.99-.46-1.65.11-.27.24-.54.38-.79,3.25-5.56,6.51-11.11,9.76-16.67.14-.25.23-.55.7-.75Z"/>
        <path d="M379.01,414.97l22.76-70.5h-39.02l9.61-29.26h114.54l-9.61,29.26h-39.02l-22.76,70.5h-36.5ZM461.46,414.97l32.37-99.76h36.36l-32.37,99.76h-36.36ZM547.37,414.97c-10.05,0-17.51-1.97-22.39-5.91-4.88-3.94-7.32-10.1-7.32-18.47,0-3.74.37-7.73,1.11-11.97.74-4.24,1.77-8.45,3.1-12.64,1.33-4.19,2.91-8.3,4.73-12.34,1.82-4.04,3.77-7.78,5.84-11.23,5.62-9.36,12.27-16.23,19.95-20.62,7.69-4.38,16.8-6.58,27.34-6.58h62.07l-9.61,29.71h-44.63c-6.5,0-11.82,1.26-15.96,3.77-4.14,2.51-7.49,6.13-10.05,10.86-1.38,2.56-2.64,5.42-3.77,8.57-1.13,3.15-1.7,6.31-1.7,9.46,0,2.96,1.16,5,3.47,6.13,2.31,1.13,6.23,1.7,11.75,1.7h47.59l-9.46,29.56h-62.07ZM697.53,414.97l-26.31-36.95h-5.32l-11.97,36.95h-35.91l32.37-99.76h35.91l-11.08,33.99h3.84l43.6-33.99h47.59l-64.88,49.95,35.91,49.81h-43.75ZM770.88,414.97c-10.15,0-17.76-1.92-22.83-5.76-5.08-3.84-7.61-10.1-7.61-18.77,0-6.8,1.63-15.22,4.88-25.27,2.86-8.87,6.16-16.45,9.9-22.76,3.74-6.3,8-11.48,12.78-15.52,4.78-4.04,10.07-6.99,15.89-8.87,5.81-1.87,12.27-2.81,19.36-2.81h61.33l-9.02,27.78h-49.07c-5.62,0-10.07.64-13.38,1.92-3.3,1.28-5.94,3.65-7.91,7.09h66.8l-8.13,25.12h-68.58c-.1.59-.17,1.16-.22,1.7-.05.54-.07,1.06-.07,1.55,0,2.46.74,4.21,2.22,5.25,1.48,1.03,4.14,1.55,7.98,1.55h56.01l-9.02,27.79h-61.33ZM877.08,414.97l22.76-70.5h-39.02l9.61-29.26h114.54l-9.61,29.26h-39.02l-22.76,70.5h-36.5ZM960.12,414.97l32.37-99.76h36.36l-32.37,99.76h-36.36ZM1080.89,414.97l20.39-62.81c.69-1.97,1.03-3.5,1.03-4.58s-.42-1.8-1.26-2.14c-.84-.34-2.24-.52-4.21-.52h-31.04l-22.76,70.05h-36.36l32.37-99.76h75.82c9.36,0,16.18,1.53,20.47,4.58,4.29,3.06,6.43,7.54,6.43,13.45,0,3.55-.74,7.54-2.22,11.97l-22.61,69.76h-36.06ZM1164.65,414.97c-10.05,0-17.54-1.87-22.46-5.62-4.93-3.74-7.39-9.85-7.39-18.33,0-7.39,1.21-14.78,3.62-22.17,2.41-7.39,5.25-14.48,8.5-21.28,5.71-11.33,12.61-19.56,20.69-24.68,8.08-5.12,17.88-7.69,29.41-7.69h67.98l-9.61,29.41h-51.28c-6.21,0-11.26,1.33-15.15,3.99-3.89,2.66-7.02,6.35-9.39,11.08-1.38,2.66-2.64,5.62-3.77,8.87-1.13,3.25-1.7,6.5-1.7,9.75,0,2.66,1.01,4.56,3.03,5.69,2.02,1.13,5.59,1.7,10.71,1.7h20.54l3.4-10.35h-22.17l7.09-22.17h56.31l-19.95,61.78h-68.43Z"/>
      </g>
    </g>
  </g>
</svg>