<?xml version="1.0" encoding="UTF-8"?>
<svg id="Capa_2" data-name="Capa 2" xmlns="http://www.w3.org/2000/svg" viewBox="0 0 1440 720">
  <defs>
    <style>
      .cls-1 {
        fill: none;
      }
    </style>
  </defs>
  <g id="Capa_12" data-name="Capa 12">
    <g>
      <rect class="cls-1" width="1440" height="720"/>
      <g>
        <path d="M1153.2,355.94c-.07,15.25-3.85,29.52-11.48,42.72-18.71,32.37-37.46,64.71-56.18,97.08-10.82,18.71-32.96,25.68-52.2,16.42-6.75-3.25-7.54-5.67-3.81-12.16,10.36-18.02,20.7-36.06,31.22-53.99,2.06-3.51,2.04-4.49-2.48-4.86-39.37-3.15-73.25-37.13-76.55-76.51-4-47.67,27.01-87.67,74.13-94.2,47.08-6.53,89.25,26.18,96.32,71.96.7,4.5.9,9,1.04,13.53ZM1027.98,355.63c0,21.83,17.53,39.38,39.3,39.35,21.4-.03,39.18-17.7,39.26-39.03.08-21.72-17.56-39.51-39.19-39.54-21.91-.03-39.37,17.37-39.37,39.21Z"/>
        <g>
          <path d="M333.48,278.71c12.19-6.05,24.61-9.24,37.65-9.42,46.13-.63,83.58,33.72,87.38,79.97,3.8,46.23-30.84,86.89-78.22,91.82-44.54,4.63-86.55-28.64-92.62-73.29-.57-4.18-.85-8.33-.85-12.53.02-37.43-.04-74.86.03-112.3.04-22.18,17.32-40.06,38.61-40.18,6.07-.03,7.7,1.56,7.7,7.73.02,22.16.01,44.31.03,66.47,0,.33.11.65.3,1.73ZM411.89,355.32c.02-21.71-17.54-39.39-39.13-39.39-21.46,0-39.4,17.92-39.43,39.36-.02,21.39,17.96,39.42,39.39,39.47,21.47.06,39.14-17.74,39.16-39.44Z"/>
          <path d="M868.5,381.44c0,9.04,0,16.69,0,24.34,0,8.56.09,17.12-.03,25.67-.1,7.38-2.75,9.85-10.16,9.86-9.06.02-18.12.05-27.18-.01-6.17-.04-8.96-2.73-8.96-8.86-.03-63.76-.15-127.53.06-191.29.07-20.51,16.89-37.4,37.22-38.38,7.21-.35,9.04,1.29,9.04,8.53.03,33.9.01,67.79.01,101.69,0,4.13,0,8.25,0,13.72,7.42-7.1,13.9-13.28,20.35-19.48,11-10.57,21.98-21.17,33-31.73,4.2-4.02,8.07-4,12.24.12,8,7.9,15.95,15.85,23.85,23.85,3.7,3.74,3.73,6.09-.11,9.82-12.51,12.14-25.08,24.23-37.72,36.24-6.87,6.53-7.14,10.18-.42,16.66,22.69,21.88,45.45,43.7,68.17,65.54,1.33,1.28,2.66,2.55,3.92,3.89,1.56,1.66,1.61,3.69.86,5.64-.78,2.02-2.36,3.21-4.66,3.2-17.28-.04-34.56.07-51.84-.22-5.17-.09-9.46-2.96-13.2-6.56-17.74-17.07-35.52-34.1-54.44-52.26Z"/>
          <path d="M601.89,431.36c-24.46,12.02-49.1,13.63-74.1,3.16-35.75-14.98-56.79-52.24-51.42-90.62,5.37-38.38,35.78-68.27,74.26-73,49.85-6.13,93.66,30.41,95.77,80.88,1.11,26.61.49,53.3.45,79.95-.01,7.7-3.88,11.06-11.78,11.11-6.88.04-13.76.02-20.63,0-8.31-.02-11.37-2.73-12.55-11.48ZM561.3,317.26c-21.58-.05-39.38,17.6-39.52,39.21-.14,21.33,17.92,39.42,39.38,39.45,21.53.03,39.32-17.71,39.41-39.3.09-21.56-17.62-39.31-39.27-39.36Z"/>
          <path d="M663.37,355.47c1.32-34.26,16.49-60.55,47.19-76.14,30.11-15.3,59.92-12.56,88.03,6.3,6.92,4.64,7.4,10.97,1.63,16.81-5.3,5.37-10.65,10.71-16.02,16.01-5.25,5.19-9.87,5.85-16.34,2.59-15.11-7.61-29.57-6.65-42.68,4.24-12.79,10.62-18.6,24.24-13.84,40.72,4.78,16.55,16.38,26.06,33.38,28.65,7.66,1.17,14.99-.57,21.92-3.98,7.67-3.77,11.94-3.08,18.04,2.97,4.77,4.72,9.53,9.45,14.23,14.24,6.51,6.62,5.93,13.26-1.55,18.49-48.92,34.21-119.33,6.51-131.82-51.87-1.34-6.24-2.31-12.52-2.16-19.05Z"/>
        </g>
        <g>
          <path d="M531.89,482.69c-.3-.33-.73-.67-1.29-1.04-.56-.37-1.23-.72-2-1.04-.77-.33-1.6-.59-2.49-.8-.89-.21-1.81-.31-2.75-.31-2.07,0-3.61.38-4.62,1.15-1.01.77-1.51,1.83-1.51,3.19,0,1,.28,1.79.84,2.37.56.58,1.42,1.06,2.58,1.44,1.15.38,2.61.8,4.35,1.24,2.13.5,3.98,1.1,5.55,1.79,1.57.69,2.77,1.62,3.6,2.77.83,1.15,1.24,2.67,1.24,4.56,0,1.59-.3,2.97-.89,4.12-.59,1.15-1.42,2.09-2.49,2.81-1.07.72-2.3,1.25-3.69,1.59-1.39.34-2.89.51-4.49.51s-3.13-.16-4.69-.49c-1.55-.33-3.04-.81-4.44-1.44-1.41-.64-2.7-1.41-3.89-2.33l2.27-4.26c.38.39.94.81,1.67,1.27.73.46,1.57.9,2.53,1.31.96.42,2.01.76,3.15,1.04,1.14.28,2.3.42,3.49.42,1.98,0,3.5-.35,4.55-1.04,1.05-.69,1.58-1.69,1.58-2.98,0-1.06-.34-1.91-1.02-2.55-.68-.63-1.67-1.17-2.98-1.62-1.3-.44-2.86-.89-4.66-1.33-2.07-.56-3.81-1.17-5.2-1.84-1.39-.66-2.44-1.52-3.13-2.57-.7-1.05-1.04-2.38-1.04-4.01,0-2.07.5-3.82,1.51-5.25,1.01-1.43,2.38-2.51,4.11-3.23,1.73-.72,3.68-1.09,5.84-1.09,1.42,0,2.77.16,4.04.47,1.27.31,2.47.73,3.58,1.27,1.11.53,2.12,1.14,3.04,1.82l-2.27,4.09Z"/>
          <path d="M549.65,507.25c-1.84,0-3.48-.32-4.93-.95-1.45-.63-2.7-1.5-3.75-2.62-1.05-1.11-1.86-2.38-2.42-3.81-.56-1.42-.84-2.94-.84-4.56s.28-3.14.84-4.58c.56-1.44,1.37-2.71,2.42-3.81,1.05-1.1,2.31-1.97,3.78-2.6,1.47-.63,3.1-.95,4.91-.95s3.44.32,4.91.95c1.47.63,2.72,1.5,3.78,2.6,1.05,1.1,1.86,2.37,2.42,3.81.56,1.44.84,2.96.84,4.58s-.28,3.13-.84,4.56c-.56,1.42-1.37,2.69-2.42,3.81-1.05,1.11-2.31,1.99-3.78,2.62-1.47.63-3.1.95-4.91.95ZM542.72,495.37c0,1.46.31,2.77.93,3.94.62,1.17,1.45,2.09,2.49,2.76,1.04.67,2.21,1.01,3.51,1.01s2.44-.34,3.49-1.03c1.05-.69,1.89-1.62,2.51-2.8.62-1.18.93-2.49.93-3.92s-.31-2.77-.93-3.94c-.62-1.17-1.46-2.09-2.51-2.78-1.05-.69-2.21-1.03-3.49-1.03s-2.47.35-3.51,1.05c-1.04.7-1.87,1.63-2.49,2.78-.62,1.15-.93,2.47-.93,3.96Z"/>
          <path d="M566.44,506.81v-18.88h-3.11v-3.78h3.11v-.93c0-1.89.3-3.54.91-4.93.61-1.39,1.47-2.47,2.58-3.22,1.11-.76,2.42-1.13,3.93-1.13.95,0,1.88.13,2.8.38.92.25,1.79.6,2.62,1.04l-1.07,3.64c-.44-.3-.97-.53-1.58-.69-.61-.16-1.19-.24-1.75-.24-1.13,0-2,.43-2.62,1.29-.62.86-.93,2.1-.93,3.73v1.07h5.95v3.78h-5.95v18.88h-4.89Z"/>
          <path d="M593.32,505.7c-.42.21-.93.43-1.55.67-.62.24-1.33.44-2.11.62-.79.18-1.59.27-2.42.27-1.01,0-1.94-.18-2.8-.53-.86-.35-1.55-.92-2.07-1.7-.52-.78-.78-1.79-.78-3.03v-14.46h-3.07v-3.78h3.07v-7.64h4.89v7.64h5.06v3.78h-5.06v12.9c.06.8.32,1.38.78,1.77.46.38,1.03.57,1.71.57s1.33-.12,1.95-.36c.62-.24,1.08-.43,1.38-.58l1.02,3.86Z"/>
          <path d="M625.07,483.76h4.66l-9.77,23.05h-4.18l-4.18-10.4-4.18,10.4h-4.18l-9.82-23.05h4.66l7.46,18.34,3.29-8.51-4-9.79h4.13l2.62,7.18,2.58-7.18h4.13l-3.95,9.79,3.29,8.51,7.42-18.34Z"/>
          <path d="M630.18,500.08c0-1.47.42-2.75,1.27-3.85.84-1.1,2.01-1.95,3.49-2.55,1.48-.6,3.2-.9,5.15-.9,1.04,0,2.09.07,3.18.22,1.08.15,2.04.39,2.87.71v-1.46c0-1.6-.49-2.86-1.47-3.76-.98-.9-2.38-1.36-4.22-1.36-1.3,0-2.53.23-3.69.69-1.15.46-2.38,1.1-3.69,1.93l-1.64-3.29c1.54-1.04,3.09-1.81,4.64-2.31,1.55-.5,3.19-.76,4.91-.76,3.11,0,5.56.81,7.35,2.44,1.79,1.63,2.69,3.93,2.69,6.92v8.56c0,.56.1.95.29,1.19.19.23.53.37,1,.39v3.91c-.44.09-.84.15-1.2.18-.36.03-.65.04-.89.04-1.04,0-1.82-.25-2.35-.76-.53-.5-.84-1.1-.93-1.78l-.13-1.33c-1.01,1.3-2.3,2.31-3.86,3.02-1.57.71-3.15,1.07-4.75,1.07s-2.92-.32-4.13-.95c-1.21-.63-2.16-1.49-2.84-2.57-.68-1.09-1.02-2.3-1.02-3.65ZM644.97,501.47c.36-.38.64-.76.84-1.14.21-.38.31-.71.31-1.01v-2.62c-.83-.32-1.7-.56-2.62-.72-.92-.16-1.82-.24-2.71-.24-1.78,0-3.22.35-4.33,1.05-1.11.7-1.67,1.66-1.67,2.88,0,.67.18,1.31.56,1.92.37.61.9,1.11,1.6,1.49.7.38,1.56.57,2.6.57s2.09-.2,3.06-.61c.98-.41,1.76-.93,2.35-1.57Z"/>
          <path d="M669.45,487.8c-1.9.03-3.58.46-5.04,1.29-1.47.83-2.51,2-3.13,3.51v14.21h-4.89v-23.05h4.53v5.02c.8-1.6,1.85-2.88,3.15-3.84,1.3-.96,2.68-1.49,4.13-1.58h.73c.19,0,.36.02.51.04v4.4Z"/>
          <path d="M682.6,507.25c-1.81,0-3.44-.32-4.91-.95-1.47-.63-2.73-1.5-3.8-2.6-1.07-1.1-1.89-2.37-2.46-3.79-.58-1.43-.87-2.95-.87-4.56,0-2.17.5-4.15,1.51-5.95,1.01-1.8,2.41-3.25,4.22-4.35,1.81-1.1,3.92-1.65,6.35-1.65s4.52.55,6.29,1.65c1.76,1.1,3.13,2.54,4.11,4.33.98,1.79,1.47,3.71,1.47,5.76,0,.35-.02.68-.04.99-.03.31-.06.56-.09.77h-18.61c.09,1.35.47,2.52,1.13,3.53.67,1.01,1.52,1.8,2.55,2.37,1.04.57,2.15.86,3.33.86,1.3,0,2.54-.33,3.71-.98,1.17-.65,1.96-1.51,2.38-2.58l4.18,1.2c-.5,1.13-1.27,2.14-2.29,3.04-1.02.9-2.23,1.61-3.62,2.13-1.39.52-2.9.78-4.53.78ZM675.62,493.66h14.04c-.09-1.31-.47-2.46-1.13-3.46-.67-1-1.51-1.78-2.53-2.35-1.02-.57-2.15-.85-3.4-.85s-2.33.28-3.35.85c-1.02.57-1.86,1.35-2.51,2.35-.65,1-1.02,2.16-1.11,3.46Z"/>
          <path d="M709.03,506.81v-31.54h11.19c3.41,0,6.25.7,8.53,2.11,2.28,1.41,3.99,3.3,5.13,5.69,1.14,2.38,1.71,5.03,1.71,7.93,0,3.2-.63,5.98-1.89,8.35-1.26,2.37-3.04,4.21-5.35,5.51-2.31,1.3-5.02,1.95-8.13,1.95h-11.19ZM730.52,491c0-2.22-.41-4.18-1.22-5.89-.81-1.7-1.98-3.03-3.51-4-1.53-.96-3.38-1.44-5.57-1.44h-6.22v22.74h6.22c2.22,0,4.09-.5,5.62-1.51,1.52-1.01,2.69-2.37,3.49-4.09.8-1.72,1.2-3.66,1.2-5.82Z"/>
          <path d="M750.2,507.25c-1.81,0-3.44-.32-4.91-.95-1.47-.63-2.73-1.5-3.8-2.6-1.07-1.1-1.89-2.37-2.46-3.79-.58-1.43-.87-2.95-.87-4.56,0-2.17.5-4.15,1.51-5.95,1.01-1.8,2.41-3.25,4.22-4.35,1.81-1.1,3.92-1.65,6.35-1.65s4.52.55,6.29,1.65c1.76,1.1,3.13,2.54,4.11,4.33.98,1.79,1.47,3.71,1.47,5.76,0,.35-.02.68-.04.99-.03.31-.06.56-.09.77h-18.61c.09,1.35.47,2.52,1.13,3.53.67,1.01,1.52,1.8,2.55,2.37,1.04.57,2.15.86,3.33.86,1.3,0,2.54-.33,3.71-.98,1.17-.65,1.96-1.51,2.38-2.58l4.18,1.2c-.5,1.13-1.27,2.14-2.29,3.04-1.02.9-2.23,1.61-3.62,2.13-1.39.52-2.9.78-4.53.78ZM743.23,493.66h14.04c-.09-1.31-.47-2.46-1.13-3.46-.67-1-1.51-1.78-2.53-2.35-1.02-.57-2.15-.85-3.4-.85s-2.33.28-3.35.85c-1.02.57-1.86,1.35-2.51,2.35-.65,1-1.02,2.16-1.11,3.46Z"/>
          <path d="M771.39,506.81l-8.84-23.05h5.06l6.62,18.56,6.62-18.56h4.71l-8.84,23.05h-5.33Z"/>
          <path d="M798.26,507.25c-1.81,0-3.44-.32-4.91-.95-1.47-.63-2.73-1.5-3.8-2.6-1.07-1.1-1.89-2.37-2.46-3.79-.58-1.43-.87-2.95-.87-4.56,0-2.17.5-4.15,1.51-5.95,1.01-1.8,2.41-3.25,4.22-4.35,1.81-1.1,3.92-1.65,6.35-1.65s4.52.55,6.29,1.65c1.76,1.1,3.13,2.54,4.11,4.33.98,1.79,1.47,3.71,1.47,5.76,0,.35-.02.68-.04.99-.03.31-.06.56-.09.77h-18.61c.09,1.35.47,2.52,1.13,3.53.67,1.01,1.52,1.8,2.55,2.37,1.04.57,2.15.86,3.33.86,1.3,0,2.54-.33,3.71-.98,1.17-.65,1.96-1.51,2.38-2.58l4.18,1.2c-.5,1.13-1.27,2.14-2.29,3.04-1.02.9-2.23,1.61-3.62,2.13-1.39.52-2.9.78-4.53.78ZM791.29,493.66h14.04c-.09-1.31-.47-2.46-1.13-3.46-.67-1-1.51-1.78-2.53-2.35-1.02-.57-2.15-.85-3.4-.85s-2.33.28-3.35.85c-1.02.57-1.86,1.35-2.51,2.35-.65,1-1.02,2.16-1.11,3.46Z"/>
          <path d="M813.67,474.38h4.89v25.8c0,1.19.18,1.95.53,2.27.36.33.8.49,1.33.49.59,0,1.15-.06,1.67-.18.52-.12.97-.27,1.35-.44l.71,3.86c-.71.3-1.55.55-2.53.76-.98.21-1.85.31-2.62.31-1.66,0-2.96-.47-3.91-1.4-.95-.94-1.42-2.23-1.42-3.9v-27.57Z"/>
          <path d="M836.9,507.25c-1.84,0-3.48-.32-4.93-.95-1.45-.63-2.7-1.5-3.75-2.62-1.05-1.11-1.86-2.38-2.42-3.81-.56-1.42-.84-2.94-.84-4.56s.28-3.14.84-4.58c.56-1.44,1.37-2.71,2.42-3.81,1.05-1.1,2.31-1.97,3.78-2.6,1.47-.63,3.1-.95,4.91-.95s3.44.32,4.91.95c1.47.63,2.72,1.5,3.78,2.6,1.05,1.1,1.86,2.37,2.42,3.81.56,1.44.84,2.96.84,4.58s-.28,3.13-.84,4.56c-.56,1.42-1.37,2.69-2.42,3.81-1.05,1.11-2.31,1.99-3.78,2.62-1.47.63-3.1.95-4.91.95ZM829.98,495.37c0,1.46.31,2.77.93,3.94.62,1.17,1.45,2.09,2.49,2.76,1.04.67,2.21,1.01,3.51,1.01s2.44-.34,3.49-1.03c1.05-.69,1.89-1.62,2.51-2.8.62-1.18.93-2.49.93-3.92s-.31-2.77-.93-3.94c-.62-1.17-1.46-2.09-2.51-2.78-1.05-.69-2.21-1.03-3.49-1.03s-2.47.35-3.51,1.05c-1.04.7-1.87,1.63-2.49,2.78-.62,1.15-.93,2.47-.93,3.96Z"/>
          <path d="M865.87,507.25c-1.87,0-3.51-.44-4.93-1.32s-2.55-2.02-3.38-3.43v13.77h-4.89v-32.51h4.31v4.18c.89-1.38,2.04-2.48,3.46-3.3,1.42-.82,3.01-1.23,4.75-1.23,1.6,0,3.06.32,4.4.95,1.33.63,2.49,1.5,3.46,2.62.98,1.11,1.74,2.38,2.29,3.81.55,1.42.82,2.93.82,4.51,0,2.2-.44,4.21-1.31,6.03-.87,1.82-2.09,3.26-3.64,4.34-1.55,1.07-3.34,1.61-5.35,1.61ZM864.27,503.08c1.04,0,1.98-.22,2.82-.66.84-.44,1.57-1.02,2.18-1.75.61-.73,1.07-1.56,1.4-2.5.33-.93.49-1.9.49-2.89,0-1.05-.18-2.04-.53-2.98-.36-.93-.87-1.75-1.53-2.45-.67-.7-1.44-1.25-2.31-1.66-.87-.41-1.83-.61-2.87-.61-.62,0-1.27.12-1.95.35-.68.23-1.32.55-1.91.96-.59.41-1.11.89-1.55,1.44-.44.55-.76,1.13-.93,1.75v6.03c.41.93.96,1.77,1.64,2.51.68.74,1.47,1.34,2.35,1.79.89.45,1.79.68,2.71.68Z"/>
          <path d="M915.57,506.81h-4.89v-12.86c0-2.14-.36-3.7-1.07-4.7-.71-1-1.75-1.49-3.11-1.49s-2.63.51-3.8,1.51c-1.17,1.01-1.99,2.32-2.47,3.93v13.61h-4.89v-12.86c0-2.14-.36-3.7-1.07-4.7-.71-1-1.73-1.49-3.07-1.49s-2.63.49-3.8,1.48c-1.17.99-2.01,2.29-2.51,3.89v13.68h-4.89v-23.05h4.44v4.66c.92-1.61,2.12-2.85,3.62-3.72,1.49-.86,3.21-1.3,5.13-1.3s3.44.5,4.55,1.5c1.11,1,1.8,2.24,2.07,3.74,1.01-1.7,2.24-3,3.71-3.89,1.47-.89,3.15-1.34,5.04-1.34,1.36,0,2.5.25,3.42.75.92.5,1.63,1.18,2.13,2.05.5.87.87,1.86,1.09,2.99.22,1.13.33,2.32.33,3.59v14.04Z"/>
          <path d="M931.2,507.25c-1.81,0-3.44-.32-4.91-.95-1.47-.63-2.73-1.5-3.8-2.6-1.07-1.1-1.89-2.37-2.46-3.79-.58-1.43-.87-2.95-.87-4.56,0-2.17.5-4.15,1.51-5.95,1.01-1.8,2.41-3.25,4.22-4.35,1.81-1.1,3.92-1.65,6.35-1.65s4.52.55,6.29,1.65c1.76,1.1,3.13,2.54,4.11,4.33.98,1.79,1.47,3.71,1.47,5.76,0,.35-.02.68-.04.99-.03.31-.06.56-.09.77h-18.61c.09,1.35.47,2.52,1.13,3.53.67,1.01,1.52,1.8,2.55,2.37,1.04.57,2.15.86,3.33.86,1.3,0,2.54-.33,3.71-.98,1.17-.65,1.96-1.51,2.38-2.58l4.18,1.2c-.5,1.13-1.27,2.14-2.29,3.04-1.02.9-2.23,1.61-3.62,2.13-1.39.52-2.9.78-4.53.78ZM924.23,493.66h14.04c-.09-1.31-.47-2.46-1.13-3.46-.67-1-1.51-1.78-2.53-2.35-1.02-.57-2.15-.85-3.4-.85s-2.33.28-3.35.85c-1.02.57-1.86,1.35-2.51,2.35-.65,1-1.02,2.16-1.11,3.46Z"/>
          <path d="M967.4,506.81h-4.89v-12.86c0-2.14-.35-3.7-1.04-4.7-.7-1-1.73-1.49-3.09-1.49-.95,0-1.89.23-2.82.7-.93.47-1.77,1.1-2.51,1.9-.74.8-1.27,1.72-1.6,2.77v13.68h-4.89v-23.05h4.44v4.66c.59-1.03,1.37-1.91,2.33-2.66.96-.75,2.05-1.33,3.26-1.74,1.21-.41,2.5-.62,3.86-.62s2.54.25,3.44.75c.9.5,1.61,1.18,2.13,2.05.52.87.87,1.86,1.07,2.99.19,1.13.29,2.32.29,3.59v14.04Z"/>
          <path d="M985.3,505.7c-.42.21-.93.43-1.55.67-.62.24-1.33.44-2.11.62-.79.18-1.59.27-2.42.27-1.01,0-1.94-.18-2.8-.53-.86-.35-1.55-.92-2.07-1.7-.52-.78-.78-1.79-.78-3.03v-14.46h-3.07v-3.78h3.07v-7.64h4.89v7.64h5.06v3.78h-5.06v12.9c.06.8.32,1.38.78,1.77.46.38,1.03.57,1.71.57s1.33-.12,1.95-.36c.62-.24,1.08-.43,1.38-.58l1.02,3.86Z"/>
        </g>
      </g>
    </g>
  </g>
</svg>