<?xml version="1.0" encoding="UTF-8"?>
<svg id="Capa_2" data-name="Capa 2" xmlns="http://www.w3.org/2000/svg" viewBox="0 0 1440 720">
  <defs>
    <style>
      .cls-1 {
        fill: none;
      }
    </style>
  </defs>
  <g id="Capa_14" data-name="Capa 14">
    <g>
      <g>
        <g id="Pto_La_Cruz" data-name="Pto La Cruz">
          <path d="M935.31,591.1v5.23h-20.89v-4.13l11.76-13.96h-11.46v-5.23h20.09v4.13l-11.76,13.96h12.26Z"/>
          <path d="M871.7,593.97c-1.92-1.89-2.88-4.56-2.88-8.03v-12.93h6.6v12.73c0,3.73,1.48,5.6,4.43,5.6s4.4-1.87,4.4-5.6v-12.73h6.5v12.93c0,3.46-.96,6.14-2.88,8.03-1.92,1.89-4.61,2.83-8.08,2.83s-6.16-.94-8.08-2.83Z"/>
          <path d="M834.17,590.13h-3.6v6.2h-6.6v-23.32h10.66c2.11,0,3.94.35,5.5,1.05,1.55.7,2.75,1.7,3.6,3,.84,1.3,1.27,2.83,1.27,4.58s-.39,3.16-1.18,4.41c-.79,1.26-1.92,2.24-3.38,2.95l5.03,7.33h-7.06l-4.23-6.2ZM837.3,579.11c-.69-.6-1.71-.9-3.07-.9h-3.66v6.83h3.66c1.35,0,2.38-.29,3.07-.88.69-.59,1.03-1.43,1.03-2.52s-.34-1.93-1.03-2.53Z"/>
          <path d="M784.04,595.25c-1.94-1.03-3.47-2.47-4.58-4.31-1.11-1.84-1.67-3.93-1.67-6.26s.55-4.42,1.67-6.26c1.11-1.84,2.64-3.28,4.58-4.31,1.94-1.03,4.14-1.55,6.58-1.55,2.13,0,4.05.38,5.76,1.13,1.71.76,3.13,1.84,4.26,3.27l-4.2,3.8c-1.51-1.82-3.34-2.73-5.5-2.73-1.27,0-2.39.28-3.38.83-.99.56-1.75,1.34-2.3,2.35-.54,1.01-.82,2.17-.82,3.48s.27,2.47.82,3.48c.54,1.01,1.31,1.79,2.3,2.35.99.56,2.12.83,3.38.83,2.15,0,3.99-.91,5.5-2.73l4.2,3.8c-1.13,1.42-2.55,2.51-4.26,3.27-1.71.75-3.63,1.13-5.76,1.13-2.44,0-4.64-.52-6.58-1.55Z"/>
          <path d="M717.96,591.8h-9.86l-1.83,4.53h-6.73l10.29-23.32h6.5l10.33,23.32h-6.86l-1.83-4.53ZM716.03,586.93l-3-7.46-3,7.46h6Z"/>
          <path d="M661.36,573.01h6.6v18.09h11.13v5.23h-17.72v-23.32Z"/>
          <path d="M587.81,595.23c-1.97-1.04-3.51-2.49-4.63-4.33-1.12-1.84-1.68-3.92-1.68-6.23s.56-4.39,1.68-6.23c1.12-1.84,2.67-3.29,4.63-4.33,1.97-1.04,4.18-1.57,6.65-1.57s4.68.52,6.65,1.57c1.97,1.04,3.51,2.49,4.63,4.33,1.12,1.84,1.68,3.92,1.68,6.23s-.56,4.39-1.68,6.23c-1.12,1.84-2.67,3.29-4.63,4.33-1.97,1.04-4.18,1.57-6.65,1.57s-4.68-.52-6.65-1.57ZM597.66,590.5c.95-.55,1.71-1.34,2.27-2.35.55-1.01.83-2.17.83-3.48s-.28-2.47-.83-3.48c-.56-1.01-1.31-1.79-2.27-2.35-.96-.55-2.02-.83-3.2-.83s-2.24.28-3.2.83c-.96.56-1.71,1.34-2.27,2.35-.56,1.01-.83,2.17-.83,3.48s.28,2.47.83,3.48c.55,1.01,1.31,1.79,2.27,2.35.96.56,2.02.83,3.2.83s2.24-.28,3.2-.83Z"/>
          <path d="M546.45,578.24h-7.16v-5.23h20.89v5.23h-7.13v18.09h-6.6v-18.09Z"/>
          <path d="M513.6,574.06c1.55.7,2.75,1.7,3.6,3,.84,1.3,1.27,2.83,1.27,4.58s-.42,3.28-1.27,4.56c-.84,1.29-2.04,2.28-3.6,2.98-1.55.7-3.39,1.05-5.5,1.05h-4.06v6.1h-6.6v-23.32h10.66c2.11,0,3.94.35,5.5,1.05ZM510.77,584.15c.69-.59,1.03-1.43,1.03-2.52s-.34-1.93-1.03-2.53c-.69-.6-1.71-.9-3.07-.9h-3.66v6.83h3.66c1.35,0,2.38-.29,3.07-.88Z"/>
        </g>
        <g id="_100.5FM" data-name="100.5FM">
          <path id="M" d="M1020.99,369.83c2.68,0,5.36-.01,8.06-.02,2.25,3.19,4.46,6.41,6.63,9.66,2.19-3.2,4.34-6.43,6.52-9.62,2.78-.02,5.58-.02,8.39,0,.05,8.56.01,17.13.01,25.68-2.71.01-5.43.01-8.13.01-.01-4.56.01-9.13-.02-13.69-2.28,3-4.47,6.07-6.53,9.22-2.75-2.82-4.8-6.18-7.15-9.29,0,4.59.01,9.17.01,13.76h-7.8c0-8.58-.02-17.14.02-25.72Z"/>
          <path id="F" d="M995.27,369.85c7.45-.04,14.93-.04,22.4-.01-.01,2.2,0,4.38.01,6.58-4.89.01-9.76.01-14.63.01,0,.96,0,2.85.01,3.8,4.37.01,8.74.01,13.13.01-.01,2.13-.01,4.25-.01,6.38h-13.12c-.02,2.97-.01,5.95-.01,8.92-2.62,0-5.21-.01-7.8-.01.01-8.56-.02-17.13.02-25.68Z"/>
          <path d="M883.91,374.1c32.85-.13,65.7-.04,98.54-.05-.02,14.32,0,28.66-.01,42.98-20.74.04-41.47-.01-62.21.02-.32,2.75-.62,5.51-.87,8.27,17.06-2.6,35.64-3.37,51.4,4.84,11.92,6.02,20.17,17.83,23.16,30.7,2.96,11.1,1.29,22.8-1.52,33.73-3.85,14.45-13.95,27.33-27.81,33.34-19.85,8.77-42.4,7.19-63.26,3.45-13.68-2.65-27.17-6.38-40.1-11.59,2.28-14.52,4.3-29.1,6.55-43.62,15.17,6,30.58,11.96,46.82,14.2,6.96.76,14.6,1.21,20.89-2.41,5.98-3.23,8.13-12.33,3.4-17.5-4.62-5.17-11.84-6.65-18.42-7.47-17.13-1.35-34.27,1.43-50.92,5.26,4.77-31.39,9.65-62.76,14.35-94.15ZM804.16,524.54c15.03,0,30.05.01,45.07-.01,0-15.01,0-30.04-.01-45.07-15.01,0-30.02-.02-45.02.01-.01,15.03-.01,30.04-.04,45.07ZM659.75,405.87c-10.07,16.94-12.65,37.28-11.36,56.65,1.1,17.79,6.41,35.92,18.22,49.61,14.55,16.87,37.34,25.39,59.35,24.65,18.18.41,36.86-6.69,48.88-20.62,11.07-12.57,16.58-29.01,19.16-45.32,2.59-17.57,3.17-36.11-3.28-52.95-6.33-17.18-20.38-30.75-36.97-38.1-13.64-6.02-28.93-10.02-43.87-7.26-20.44,3.25-39.56,15.37-50.12,33.34ZM739.92,418.44c7,7.21,9.81,17.37,10.95,27.1,1.08,12.37.79,25.53-5.08,36.8-5.09,9.76-15.8,16.94-27.03,16.03-9.42-.45-17.87-6.84-21.79-15.29-4.75-10.12-5.15-21.64-4.37-32.61.79-9.69,2.51-19.65,7.61-28.08,3.37-5.71,8.9-10.42,15.52-11.72,8.67-1.71,18.13,1.3,24.19,7.76ZM505.21,402.91c-11.08,16.28-14.55,36.56-13.72,55.95.49,19.67,5.97,40.07,19.45,54.93,16.27,18.01,41.88,25.65,65.62,23.2,14.5-1.25,28.79-7.21,39.01-17.71,13.16-13.13,19.34-31.59,21.91-49.63,2.75-19.34,2.72-40.12-6.45-57.88-8.86-17.64-26.06-29.91-44.67-35.61-9.85-3-20.28-5.24-30.59-3.55-20.02,2.56-39.3,13.33-50.55,30.3ZM582.57,418.31c7.62,7.38,10.55,18.18,11.66,28.43.92,12.52.61,25.93-5.82,37.11-4.14,7.55-11.71,13.14-20.2,14.68-9.9,1.9-20.6-2.9-25.94-11.41-5.12-7.98-6.67-17.71-6.61-27.04-.11-11.47,1.02-23.32,5.96-33.82,3.14-6.81,8.77-12.92,16.22-14.87,8.71-2.1,18.39.56,24.73,6.92ZM404.03,387.34c2.78,11.48,5.61,22.95,8.39,34.44,8.65-1.83,17.28-3.75,25.96-5.52-.04,39.19-.05,78.37-.02,117.56,14.82.06,29.65.02,44.47.02.07-53.17.02-106.33,0-159.5-10.57-.01-21.13,0-31.7-.01-2.7-.07-5.26.88-7.81,1.62-13.08,3.81-26.19,7.53-39.27,11.38Z"/>
        </g>
        <path id="r" d="M1032.97,338.3c14.56-13.95,28.68-28.37,43.18-42.39,4.1,10.69,8.11,21.42,12.08,32.16,1.95,4.83-2.2,10.89-7.54,10.28-15.91.02-31.82.08-47.72-.05Z"/>
        <g id="R">
          <path d="M954.02,123.2h89.13c11.23.99,22.67,2.22,33.06,6.94,13.61,5.81,25,17.12,29.75,31.26,6.24,18.43,2.52,39.39-8,55.53-9.34,14.49-23.77,25.04-39.37,31.96,4.83,12.77,9.53,25.59,14.24,38.41-16.44,16.03-32.55,32.41-49.12,48.3-8.47-25.75-16.81-51.54-25.37-77.26-6.34.01-12.7.02-19.04-.01-4.81,24.36-9.5,48.73-14.27,73.1-.45,3.57-3.34,7.08-7.19,6.9-13.19.16-26.37-.05-39.56.08-3.03-.06-6.57.33-8.83-2.14-2.87-2.42-2.27-6.53-1.78-9.82,12.95-65.56,25.65-131.18,38.61-196.73.48-3.89,4.19-6,7.74-6.55ZM996.19,171.01c-2.48,14.44-5.58,28.79-8.27,43.19,10.21.01,20.44.01,30.65.01,12.04.57,24.71-5.78,29.65-17.12,2.84-6.33,2.35-14.56-2.64-19.71-4.36-4.8-11.1-6.34-17.34-6.4-10.69,0-21.37-.01-32.05.02Z"/>
        </g>
        <path id="E" d="M785.58,123.2h137.36c4.31.93,10.25-.56,13.44,3.37,2.76,3.46,1.24,8.03.56,11.92-1.95,8.83-3.38,17.76-5.34,26.59-.54,3.48-3.8,6.24-7.36,5.91-31.93-.14-63.84.35-95.77.17-2.4,11.67-4.59,23.38-6.92,35.06,25.44-.07,50.9-.04,76.35-.02,4.93-.48,9.95,3.77,8.98,8.97-1.74,10.87-4.23,21.62-6.37,32.42-.5,3.44-3.75,6.24-7.26,5.97-27.02.08-54.04.02-81.06.01-2.47,12.48-4.89,24.98-7.38,37.45,28.27-.07,56.55.02,84.81-.05,3.26.05,6.58-.24,9.81.41,4.05.96,6.58,5.46,5.54,9.46-1.94,10.48-4.13,20.92-6.22,31.37-.47,3.79-4.09,6.58-7.86,6.19-47.85.04-95.7-.01-143.55.02-2.63.18-5.34-.72-6.86-2.97-2.9-3.74-.85-8.65-.19-12.8,12.23-61.49,24.32-123.01,36.5-184.5.78-3.56,1.11-7.24,2.42-10.64,1.08-2.58,4-3.32,6.35-4.29Z"/>
        <g id="D">
          <path d="M603.83,123.2h83.77c17.07,1.1,34.99,3.86,49.07,14.35,12.74,9.46,21.24,24.55,22.22,40.46,1.22,17.37-3.44,34.4-6.7,51.31-3.39,16.5-5.59,33.42-11.86,49.18-5.65,14.5-15.38,27.27-27.59,36.87-18.87,15.7-43.73,22.92-68.03,23.03-26.68-.02-53.38.05-80.08-.02-5.63.61-9.52-5.73-7.64-10.75,13.12-65.86,26.28-131.73,39.51-197.57.45-3.82,3.82-6.08,7.33-6.86ZM646.29,170.87c-7.55,40.09-15.95,80.03-23.67,120.09,9.72-.01,19.45.14,29.17-.06,12.58-.41,24.83-7.49,30.96-18.56,4.29-8.97,6.02-18.87,8.27-28.49,3.26-16.2,6.93-32.38,8.41-48.87.66-6.38-1.73-12.94-6.37-17.37-5.35-5.57-13.55-6.74-20.9-6.84-8.61-.05-17.25-.19-25.86.1Z"/>
        </g>
        <path id="I" d="M512.35,224.98c23.9-22.85,47.61-45.88,71.64-68.59-12.17,58.21-24.8,116.33-37.11,174.51-.33,3.71-3.2,7.58-7.23,7.43-14.81.22-29.63-.05-44.45-.16-4.54-.2-7.33-5.35-6.16-9.51,7.63-34.59,15.78-69.08,23.3-103.69Z"/>
        <path id="i" d="M528.68,130.36c.36-4.19,4.42-7.17,8.5-6.84,14.78.08,29.54.51,44.3.29,4.67-.75,8.95,4.01,8,8.54-.76,3.57-1.42,7.2-2.72,10.63-24.28,22.99-48.94,45.63-73.15,68.71,4.98-27.11,10-54.23,15.06-81.32Z"/>
        <path id="L" d="M365.91,129.67c.65-3.56,4.09-6.24,7.67-6.21,13.92-.06,27.83-.04,41.75-.01,3.69-.19,7.12,2.52,8.1,6.01.42,2.76-.42,5.49-.88,8.18-10.39,51.1-20.6,102.23-30.97,153.33,29.78.11,59.56-.08,89.33.08,5.08-.13,8.78,5.27,7.51,10.05-1.8,10.06-4,20.04-5.92,30.08-.35,2.99-2.11,5.85-5.03,6.93-12.72.3-101.58.08-144.6.12-4.9.38-8.56-5.28-6.99-9.78,13.33-66.26,26.78-132.49,40.04-198.77Z"/>
      </g>
      <rect class="cls-1" width="1440" height="720"/>
    </g>
  </g>
</svg>