<?xml version="1.0" encoding="UTF-8"?>
<svg id="Capa_2" data-name="Capa 2" xmlns="http://www.w3.org/2000/svg" viewBox="0 0 1440 720">
  <defs>
    <style>
      .cls-1 {
        fill: none;
      }

      .cls-2 {
        fill-rule: evenodd;
      }
    </style>
  </defs>
  <g id="Capa_13" data-name="Capa 13">
    <g>
      <g id="Ima">
        <g id="Chill_Chews" data-name="Chill &amp;amp; Chews">
          <path d="M761.87,505.18l-7.81-3.03c-2.34,3.4-6.32,6.17-10.63,6.17-6.91,0-12.49-5.9-12.49-12.55s5.58-12.5,12.49-12.5c4.3,0,8.29,2.71,10.63,6.06l7.81-3.03c-3.72-6.33-10.63-10.64-18.44-10.64-11.53,0-20.93,9.04-20.93,20.11s9.4,20.16,20.93,20.16c7.81,0,14.72-4.31,18.44-10.74Z"/>
          <path d="M802.57,476.3h-8.34v16.49h-18.22v-16.49h-8.34v38.88h8.34v-15.11h18.22v15.11h8.34v-38.88Z"/>
          <path d="M820.7,515.18v-38.88h-8.39v38.88h8.39Z"/>
          <path d="M858.91,507.89h-20.35v-31.59h-8.45v38.88h28.8v-7.29Z"/>
          <path d="M892.81,507.89h-20.35v-31.59h-8.45v38.88h28.8v-7.29Z"/>
          <path d="M939.79,516.08l6.32-4.73c-1.81-1.97-3.98-4.1-5.9-6.01,2.34-2.98,3.61-4.95,5.26-7.93l-7.28-3.51c0,.11-1.12,2.71-3.45,5.96l-4.3-4.26c2.55-1.49,4.62-3.03,5.79-5.21.8-1.49,1.17-3.14,1.17-4.63s-.32-2.77-1.01-4.1c-1.33-2.77-3.93-4.89-6.96-5.69-.85-.21-1.75-.32-2.76-.32-2.18,0-4.46.59-6.27,1.76-2.5,1.65-4.2,4.31-4.68,7.23-.37,3.3.69,6.6,2.98,9.41-.8.58-2.07,1.44-2.76,1.97-3.29,2.71-5.21,5.85-4.73,10.16.74,5.8,6.11,9.89,12.49,9.63,4.09-.16,6.16-.69,11-4.68l5.1,4.95ZM923.48,485.44c.32-2.07,1.75-2.98,3.13-2.98,1.49,0,3.03,1.01,2.98,2.61,0,2.45-2.13,4.15-4.2,5.32-1.17-1.33-2.13-3.19-1.91-4.95ZM923.1,499.54l6.48,6.44c-1.28,1.12-3.19,2.71-6.22,2.61-2.18-.11-3.88-1.54-4.04-3.3-.32-2.5,1.17-3.94,1.59-4.31.64-.48,1.33-.96,2.18-1.44Z"/>
          <path d="M1004.88,505.18l-7.81-3.03c-2.34,3.4-6.32,6.17-10.63,6.17-6.91,0-12.49-5.9-12.49-12.55s5.58-12.5,12.49-12.5c4.3,0,8.29,2.71,10.63,6.06l7.81-3.03c-3.72-6.33-10.63-10.64-18.44-10.64-11.53,0-20.93,9.04-20.93,20.11s9.4,20.16,20.93,20.16c7.81,0,14.72-4.31,18.44-10.74Z"/>
          <path d="M1045.59,476.3h-8.34v16.49h-18.22v-16.49h-8.34v38.88h8.34v-15.11h18.22v15.11h8.34v-38.88Z"/>
          <path d="M1062.71,483.58h21.04v-7.29h-29.43v38.88h29.43v-7.29h-21.04v-8.3h18.6v-7.34h-18.6v-8.67Z"/>
          <path d="M1141.29,476.35h-8.93l-7.65,20.16-10.2-21.17-10.2,21.17-7.49-20.16h-9.03l15.51,40.26,11.21-23.08,11.1,23.08,15.67-40.26Z"/>
          <path d="M1149.06,503.42l-4.46,6.44c3.61,3.08,9.14,6.06,17.53,6.06,9.19,0,15.46-3.99,15.46-12.07,0-10.43-10.04-11.22-16.36-12.55-3.51-.74-7.7-1.38-7.7-4.15,0-3.08,4.25-3.83,6.69-3.83,3.77,0,7.65,1.6,11,3.99l4.68-6.38c-4.25-3.14-8.55-5.21-15.35-5.21s-15.41,2.5-15.41,11.75,10.52,11.12,15.41,11.91c4.52.8,8.66,1.6,8.66,4.68,0,2.18-2.55,4.31-7.17,4.31s-10.15-2.61-12.96-4.95Z"/>
        </g>
        <g id="El_Patio" data-name="El Patio">
          <path d="M599.02,199.8h41.02v-14.21h-57.39v75.81h57.39v-14.21h-41.02v-16.18h36.26v-14.31h-36.26v-16.91Z"/>
          <path d="M711.31,247.19h-39.68v-61.61h-16.47v75.81h56.15v-14.21Z"/>
          <path d="M626.79,286.75h-65.89v162.35h35.05v-47.31h30.61c43.48,0,65.66-24.87,65.66-56.86s-24.62-58.19-65.44-58.19ZM631.67,371.37h-35.72v-54.19h32.17c18.86,0,28.84,13.99,28.84,27.76s-7.76,26.43-25.29,26.43Z"/>
          <path d="M666.72,449.1h38.6l12.42-24.87h75.65l12.87,24.87h38.38l-88.96-167.46-88.96,167.46ZM735.04,394.24l20.63-42.42,20.85,42.42h-41.48Z"/>
          <path d="M948.23,317.18v-30.43h-129.55v30.43h47.25v131.92h35.27v-131.92h47.03Z"/>
          <path d="M1004.35,449.1v-162.35h-35.05v162.35h35.05Z"/>
          <path d="M1118.37,452.21c48.36,0,87.63-37.76,87.63-84.39s-39.26-84.17-87.63-84.17-87.18,37.98-87.18,84.17,39.04,84.39,87.18,84.39ZM1118.37,315.62c29.06,0,52.35,24.43,52.35,52.19s-23.29,52.64-52.35,52.64-52.35-24.65-52.35-52.64,23.51-52.19,52.35-52.19Z"/>
        </g>
        <path id="Iso" class="cls-2" d="M453.62,411.14c17.8-4.59,32.03-5.61,56.94-20.39l-12.2-71.36s-30.51,55.56-71.18,65.24c-40.67,9.68-17.29-11.21,10.17-30.58,27.46-19.37,59.99-32.11,50.84-85.63l-.22-1c22.05-8.82,37.64-30.41,37.64-55.66,0-33.11-26.77-59.94-59.79-59.94-30.11,0-55.02,22.32-59.17,51.36h-84.6l-7.58-26,70.03-15.31-82.98-13.72-65.51,46.19,69.18-15.13,6.99,23.97h-31.42l-14.24,75.44s18.3,33.13,40.67,50.97c61.52,51.48,32.54,48.93,2.03,28.54-30.51-20.39-50.84-44.85-50.84-44.85l-8.14,48.93s9.15,16.82,40.67,28.54c31.52,11.72,73.72,28.03,10.17,16.31-43.73-11.21-52.88-28.54-52.88-28.54,0,0-8.64,34.15,6.1,57.09,8.14,9.17,47.79,10.19,69.15,12.23,36.1-3.06,11.69,39.25-63.05,2.04,0,0,11.19,56.07,95.59,53.01l4.07-28.54,24.4,30.58s51.86,11.21,91.52-26.5c0,0-35.59,0-48.81-12.23-11.19-8.16-10.17-10.7,14.24-10.19,24.4.51,17.8,6.12,50.84,2.04,0,0,12.2-17.33,16.27-48.93,0,0-22.88,17.84-71.18,18.35-32.54,1.53-1.53-11.72,16.27-16.31ZM331.03,388.19c-.81-.16-1.66-.32-2.57-.5-.9-.19-1.83-.47-2.8-.72-1.95-.51-4.07-1.08-6.3-1.72-2.22-.66-4.52-1.51-6.9-2.36-2.4-.81-4.81-1.85-7.24-2.94-1.21-.56-2.46-1.05-3.66-1.67-1.2-.62-2.41-1.24-3.61-1.86-2.42-1.22-4.71-2.69-6.99-4.09-.57-.36-1.15-.68-1.69-1.06-.54-.39-1.07-.77-1.61-1.16-1.06-.77-2.11-1.53-3.15-2.27-1-.79-1.97-1.59-2.91-2.38-.94-.78-1.86-1.56-2.69-2.39-.84-.81-1.67-1.59-2.46-2.35-.74-.81-1.46-1.6-2.14-2.36-.7-.74-1.31-1.5-1.88-2.24-.56-.74-1.14-1.4-1.59-2.1-.47-.68-.91-1.32-1.31-1.9-.37-.61-.71-1.18-1.01-1.68-.6-1.02-1-1.86-1.26-2.44-.26-.58-.38-.89-.38-.89,0,0,.18.29.55.79.36.51.95,1.23,1.68,2.12.38.44.8.93,1.26,1.46.48.51,1,1.06,1.55,1.65.53.6,1.19,1.17,1.83,1.81.65.63,1.31,1.31,2.07,1.94.74.65,1.51,1.33,2.31,2.04.83.67,1.69,1.36,2.57,2.07.86.73,1.81,1.41,2.78,2.09.96.7,1.94,1.41,2.94,2.14,1.03.67,2.09,1.36,3.15,2.05,1.06.7,2.14,1.39,3.27,2.04,2.24,1.31,4.47,2.71,6.85,3.86,1.16.62,2.33,1.24,3.48,1.86,1.16.62,2.37,1.12,3.54,1.68,2.37,1.07,4.63,2.28,6.96,3.16,2.31.92,4.48,1.95,6.61,2.78,2.14.78,4.16,1.57,6.02,2.3,1.85.75,3.58,1.36,5.12,1.88,1.54.52,2.87,1.02,3.98,1.42,2.2.81,3.46,1.31,3.46,1.31,0,0-1.33-.2-3.64-.6-1.16-.21-2.57-.45-4.17-.77ZM342.19,476.97c-.24.43-.64,1.03-1.22,1.76-.3.35-.64.74-1.01,1.16-.38.41-.85.8-1.32,1.24-.46.47-1.04.84-1.63,1.28-.59.44-1.23.88-1.95,1.24-.72.36-1.44.82-2.25,1.15-.81.32-1.67.61-2.54.93-.88.32-1.82.44-2.77.68-.48.1-.96.2-1.45.31-.49.08-.99.08-1.5.13-1.01.07-2.04.14-3.08.21-1.03-.02-2.08-.1-3.14-.18-2.13-.05-4.2-.59-6.3-.96-.52-.11-1.05-.21-1.56-.34l-1.51-.48c-1-.33-2-.66-2.99-.98-.49-.16-.99-.33-1.48-.49-.48-.19-.94-.42-1.4-.63-.92-.42-1.83-.84-2.73-1.25-.89-.42-1.78-.8-2.63-1.23-.83-.46-1.61-.95-2.39-1.4-1.55-.91-2.99-1.8-4.32-2.63-1.33-.81-2.43-1.75-3.45-2.5-1.01-.76-1.88-1.45-2.59-2.02-1.42-1.13-2.2-1.81-2.2-1.81,0,0,.96.41,2.6,1.19.82.39,1.81.86,2.93,1.43.56.28,1.15.58,1.78.89.63.31,1.26.69,1.98.97,1.41.61,2.93,1.27,4.51,2.02.8.36,1.6.75,2.44,1.11.87.3,1.73.66,2.61.99.88.34,1.78.69,2.69,1.04.46.17.91.37,1.37.51.47.14.94.28,1.41.42.94.28,1.89.57,2.85.86l1.43.44c.48.12.97.19,1.46.3,1.94.38,3.88.94,5.81,1.01.97.1,1.92.2,2.87.3.95,0,1.88-.01,2.8-.02.46-.01.92.02,1.37-.03.44-.07.89-.12,1.32-.17.87-.13,1.76-.14,2.57-.35.81-.2,1.61-.41,2.39-.58.77-.19,1.47-.51,2.18-.75.72-.22,1.34-.56,1.95-.85.61-.3,1.22-.55,1.72-.9.52-.33,1.01-.63,1.46-.91.43-.32.83-.61,1.18-.87.68-.57,1.24-1.02,1.56-1.37.35-.33.52-.53.52-.53,0,0-.1.24-.35.66ZM338.97,431.66c-2.27.13-5.52.35-9.43.37-1.95.02-4.07.07-6.3.02-2.24-.05-4.6-.09-7.04-.2-2.44-.17-4.96-.25-7.52-.5-2.56-.27-5.16-.49-7.75-.85-2.59-.35-5.17-.82-7.71-1.27-2.54-.48-5-1.1-7.38-1.7-4.75-1.25-9.07-2.7-12.75-3.91-1.85-.6-3.54-1.15-5.04-1.63-1.51-.47-2.82-.88-3.9-1.21-2.18-.65-3.42-1.05-3.42-1.05,0,0,1.3.1,3.57.34,2.26.26,5.51.73,9.34,1.52,1.92.39,3.98.82,6.15,1.32,2.16.47,4.44.96,6.81,1.47,1.18.23,2.38.47,3.59.7,1.22.2,2.45.41,3.69.65,2.49.4,5.02.82,7.57,1.12,2.54.39,5.1.66,7.61.96,2.52.27,5,.54,7.41.81,2.41.2,4.74.46,6.95.69,2.21.21,4.31.4,6.24.61,3.86.42,7.1.73,9.35,1.02,2.26.28,3.55.47,3.55.47,0,0-1.3.12-3.57.26ZM460.14,310.2c-.05.39-.12.85-.21,1.36-.12.5-.3,1.04-.47,1.65-.18.6-.5,1.19-.78,1.86-.26.69-.7,1.31-1.09,2.02-.21.35-.42.71-.64,1.07-.25.34-.51.69-.77,1.04-.54.69-1.06,1.48-1.69,2.18-.65.7-1.32,1.42-2,2.16-.67.77-1.48,1.4-2.25,2.14-.78.71-1.58,1.46-2.44,2.12-.87.66-1.76,1.34-2.65,2.02-.45.34-.9.68-1.35,1.03-.46.34-.95.62-1.43.94-.96.62-1.94,1.24-2.91,1.86-.97.64-1.96,1.25-2.98,1.8-2.04,1.09-4.07,2.23-6.1,3.26-2.04,1-4.1,1.89-6.07,2.79-1.95.95-3.94,1.6-5.78,2.33-1.85.72-3.61,1.35-5.23,1.93-6.59,2.1-11.07,3.19-11.07,3.19,0,0,4.05-2.25,10.26-5.15,1.52-.79,3.17-1.64,4.93-2.5.88-.43,1.78-.88,2.7-1.33.46-.23.93-.46,1.4-.68.46-.24.93-.49,1.4-.74,1.89-.98,3.82-2.04,5.82-3.02,1.97-1.04,3.92-2.19,5.9-3.29,1.01-.52,1.98-1.1,2.92-1.69.96-.59,1.91-1.17,2.85-1.75,1.91-1.14,3.65-2.43,5.42-3.58.88-.59,1.64-1.27,2.46-1.86.79-.62,1.64-1.16,2.32-1.83.72-.63,1.42-1.25,2.09-1.85.69-.59,1.25-1.25,1.85-1.83.29-.3.58-.59.86-.88.25-.31.49-.61.73-.9.47-.59.99-1.12,1.33-1.7.36-.57.74-1.09,1.03-1.6.27-.52.53-.99.74-1.44.18-.46.33-.87.47-1.22.1-.37.18-.69.25-.94.04-.26.06-.47.08-.6,0-.14,0-.21,0-.21,0,0,.01.07.04.21.01.14.04.35.06.62,0,.28-.01.61-.02,1.01ZM493.49,246.34l-13.75-16.65-2.5-11.45,30.18,8.54c-2.79,7.75-7.65,14.49-13.93,19.55ZM510.08,211.77c0,1.89-.16,3.73-.38,5.55l-33.33-3.15-1.08-4.96,30.24-16.97c2.89,5.9,4.56,12.5,4.56,19.52ZM478.98,169.4c8.42,2.62,15.76,7.71,21.19,14.41l-25.77,21.39-.44-2.03h-4.49l9.51-33.77ZM465.82,167.41c1.08,0,2.13.09,3.19.16l-3.34,35.6h-5.07l-16.7-29.91c6.47-3.71,13.94-5.86,21.92-5.86ZM435.79,179.25l19.75,23.92h-25.02l-7.59-2.15c2.11-8.5,6.65-16.01,12.86-21.77ZM289.61,219.46h27.32l15.47,53.06h-49.61l6.82-53.06ZM340.17,337.32c-1.5-.78-3.64-1.9-6.12-3.37-1.23-.75-2.57-1.56-3.96-2.47-1.4-.89-2.88-1.82-4.33-2.9-1.46-1.06-3.01-2.11-4.51-3.27-1.48-1.19-2.99-2.4-4.5-3.6-1.44-1.29-2.89-2.58-4.31-3.84-1.39-1.31-2.7-2.66-3.97-3.96-1.23-1.35-2.43-2.63-3.45-3.97-.52-.66-1.04-1.28-1.51-1.91-.45-.65-.88-1.28-1.3-1.88-.83-1.21-1.51-2.38-2.06-3.44-.57-1.05-.96-2.02-1.27-2.82-.29-.81-.45-1.47-.54-1.92-.08-.46-.08-.7-.08-.7,0,0,.09.23.28.63.2.4.55.96.99,1.65.48.68,1.07,1.49,1.8,2.38.34.46.76.91,1.19,1.39.43.48.85,1.01,1.35,1.51.49.51.99,1.04,1.52,1.6.54.54,1.1,1.09,1.68,1.66,1.11,1.17,2.45,2.26,3.7,3.5,1.32,1.18,2.69,2.39,4.08,3.63,1.42,1.21,2.86,2.43,4.3,3.66,1.46,1.21,2.91,2.43,4.35,3.62,1.45,1.19,2.87,2.35,4.25,3.48,1.38,1.13,2.72,2.22,3.99,3.26,1.28,1.02,2.46,2.03,3.56,2.96,2.22,1.81,4.05,3.37,5.31,4.49,1.27,1.12,1.97,1.79,1.97,1.79,0,0-.88-.41-2.38-1.18ZM342.27,272.52l-15.47-53.06h136.3l1.63,12.7,5.19,40.37h-127.65ZM385.31,471.89c-.38-1.33-.94-3.28-1.57-5.78-.62-2.5-1.39-5.54-2.19-9.04-.4-1.75-.83-3.62-1.28-5.58-.44-1.97-.83-4.05-1.28-6.22-.92-4.33-1.74-9.05-2.63-14.04-.81-5-1.73-10.27-2.45-15.76-.72-5.48-1.57-11.14-2.12-16.92-.3-2.89-.61-5.8-.92-8.72-.25-2.93-.5-5.87-.74-8.81-.52-5.88-.77-11.78-1.09-17.58-.08-1.45-.15-2.89-.23-4.33-.07-1.44-.07-2.87-.11-4.29-.06-2.85-.12-5.66-.17-8.42-.2-5.53,0-10.88.04-15.95.05-2.53.05-5,.13-7.38.12-2.38.24-4.68.35-6.89.23-4.42.42-8.47.72-12.05.34-3.58.63-6.7.87-9.27.23-2.57.47-4.58.61-5.95.15-1.37.22-2.1.22-2.1,0,0,0,.74-.02,2.12-.02,1.38-.02,3.41-.09,5.98-.06,2.57-.13,5.7-.21,9.28-.04,3.58.06,7.63.02,12.04,0,2.2,0,4.5,0,6.87.05,2.37.1,4.83.16,7.35.14,5.05.17,10.37.45,15.87.25,5.5.42,11.18.82,16.95.36,5.77.66,11.63,1.21,17.48.23,2.93.45,5.85.68,8.77.29,2.91.57,5.81.85,8.68.53,5.76,1.17,11.41,1.79,16.88.64,5.47,1.32,10.75,1.95,15.76.73,4.99,1.31,9.74,2,14.09.67,4.36,1.28,8.36,1.82,11.9.56,3.54,1.1,6.62,1.55,9.16.46,2.53.82,4.53,1.06,5.88.26,1.36.4,2.08.4,2.08,0,0-.21-.71-.59-2.03ZM420.46,489.06c1.46.23,2.95.42,4.45.49,1.5.1,3.01.09,4.49.03,1.49-.07,2.95-.2,4.37-.39,1.42-.18,2.79-.42,4.09-.66,1.29-.29,2.53-.54,3.65-.84,2.26-.58,4.14-1.17,5.46-1.61,1.32-.44,2.07-.72,2.07-.72,0,0-.59.56-1.74,1.37-1.15.81-2.86,1.91-5.07,2.94-1.1.53-2.32,1.04-3.64,1.5-1.33.44-2.74.92-4.25,1.23-3,.7-6.33,1-9.65.83-.83-.03-1.66-.16-2.48-.23-.82-.12-1.64-.26-2.44-.43-1.6-.35-3.16-.81-4.6-1.39-1.46-.55-2.8-1.24-4.03-1.94-.6-.37-1.21-.69-1.76-1.08-.54-.39-1.05-.77-1.55-1.13-.96-.77-1.82-1.49-2.51-2.2-.69-.71-1.31-1.31-1.74-1.87-.9-1.1-1.37-1.74-1.37-1.74,0,0,.7.42,1.85,1.19.56.4,1.32.78,2.12,1.3.81.5,1.78.97,2.79,1.53,1.05.5,2.17,1.03,3.38,1.53,1.21.49,2.52.93,3.87,1.32,1.35.4,2.78.7,4.23.97ZM423.83,440.49c2.01-.06,4.87-.1,8.29-.08,1.71-.04,3.57-.07,5.52-.06,1.96-.01,4.02.02,6.15-.02,2.13-.02,4.33-.09,6.56-.06,2.23-.06,4.49-.13,6.75-.19,2.26-.02,4.51-.2,6.74-.29,2.22-.12,4.39-.31,6.5-.45,2.09-.26,4.13-.41,6.04-.69,1.9-.3,3.72-.54,5.36-.91.83-.15,1.62-.33,2.35-.53.74-.2,1.46-.34,2.11-.56.65-.21,1.26-.41,1.82-.6.55-.22,1.05-.43,1.51-.61.88-.42,1.58-.78,2.02-1.08.43-.3.64-.51.64-.51,0,0-.15.24-.51.66-.37.4-.95.96-1.78,1.56-.43.28-.9.6-1.42.94-.53.3-1.13.61-1.76.94-1.28.6-2.75,1.31-4.42,1.82-.83.27-1.69.61-2.59.85-.91.24-1.85.48-2.82.73-1.94.47-4.01.85-6.16,1.21-1.08.14-2.17.28-3.28.43-1.11.14-2.23.31-3.36.36-2.27.13-4.57.35-6.87.42-2.3.02-4.61.04-6.87.07-2.26-.03-4.49-.18-6.64-.26-2.15-.05-4.22-.3-6.19-.47-1.97-.17-3.82-.38-5.53-.58-3.41-.46-6.24-.95-8.22-1.3-1.98-.36-3.1-.6-3.1-.6,0,0,1.15-.07,3.16-.13ZM421.47,404.26c-1.69.18-3.16.3-4.37.4-2.42.2-3.81.28-3.81.28,0,0,1.34-.39,3.69-1,1.18-.3,2.6-.68,4.24-1.07.82-.2,1.69-.41,2.6-.64.91-.26,1.86-.53,2.86-.81,1.99-.56,4.14-1.17,6.43-1.76,2.26-.7,4.62-1.49,7.08-2.21,2.49-.67,4.92-1.75,7.49-2.57,2.57-.81,5.07-1.94,7.61-2.93l1.91-.74,1.87-.83c1.24-.55,2.48-1.11,3.71-1.65,2.42-1.16,4.8-2.31,7.08-3.49,2.22-1.27,4.45-2.36,6.43-3.62,2.03-1.19,3.89-2.4,5.6-3.53.88-.54,1.63-1.17,2.41-1.69.77-.54,1.5-1.04,2.15-1.57.66-.51,1.28-.99,1.86-1.43.56-.46,1.07-.89,1.54-1.27.91-.79,1.64-1.4,2.1-1.86.48-.44.72-.7.72-.7,0,0-.18.29-.56.83-.37.54-.95,1.31-1.74,2.24-.4.46-.85.97-1.33,1.53-.5.55-1.07,1.1-1.66,1.72-1.19,1.22-2.62,2.52-4.22,3.88-.81.67-1.66,1.36-2.54,2.08-.88.72-1.86,1.36-2.83,2.07-1.93,1.45-4.11,2.77-6.35,4.15-1.12.69-2.31,1.29-3.49,1.96-1.19.64-2.37,1.36-3.63,1.91-1.25.58-2.51,1.17-3.78,1.76l-1.9.88-1.95.79c-2.62.98-5.2,2.09-7.84,2.88-1.31.43-2.61.85-3.9,1.24-.64.2-1.28.4-1.92.59-.64.16-1.29.33-1.92.49-2.54.65-5,1.24-7.34,1.77-2.36.45-4.59.82-6.65,1.16-1.03.17-2.02.33-2.95.49-.95.1-1.85.19-2.69.28Z"/>
      </g>
      <rect class="cls-1" width="1440" height="720"/>
    </g>
  </g>
</svg>