<?xml version="1.0" encoding="UTF-8"?>
<svg id="Capa_2" data-name="Capa 2" xmlns="http://www.w3.org/2000/svg" viewBox="0 0 1440 720">
  <defs>
    <style>
      .cls-1 {
        fill: none;
      }
    </style>
  </defs>
  <g id="Capa_9" data-name="Capa 9">
    <g>
      <rect class="cls-1" width="1440" height="720"/>
      <g>
        <path d="M998.87,150.12l-4.62-13.61c-.16-.47-.51-.84-.96-1.04-.45-.19-.97-.19-1.41.02l-20.72,9.54,2.64-22.76c.06-.49-.09-.99-.43-1.36-.33-.37-.8-.58-1.3-.58h-14.53c-.5,0-.97.21-1.3.58-.33.37-.48.86-.43,1.36l2.65,22.76-20.72-9.54c-.45-.21-.96-.21-1.42-.02-.45.2-.8.57-.96,1.04l-4.62,13.61c-.16.47-.11.99.14,1.42.24.43.66.74,1.15.84l22.42,4.68-15.73,17.36c-.32.36-.49.84-.44,1.32.04.48.28.92.67,1.22l11.3,8.76c.3.24.68.36,1.06.36.11,0,.22-.01.33-.03.5-.09.92-.4,1.17-.83l12.1-20.71,11.89,20.7c.25.43.68.74,1.16.84.49.1,1-.02,1.4-.32l11.53-8.77c.39-.29.63-.74.67-1.22.05-.48-.11-.97-.44-1.33l-15.73-17.37,22.19-4.68c.49-.1.91-.41,1.15-.84.24-.43.29-.95.14-1.42"/>
        <path d="M284.83,357.83v-91.04c0-27.56,12.22-47.2,47.44-47.2h5.75c35.7,0,46,18.69,46,44.56v13.65h-35.7v-10.54c0-10.54-3.59-16.53-12.93-16.53-8.39,0-12.7,5.51-12.7,16.53v86.02c0,11.26,3.84,17.97,14.14,17.97s14.14-7.19,14.14-17.97v-29.23h-16.29v-29.71h51.03v105.42h-23.72c-.72-2.63-3.6-11.02-5.75-17.01-3.12,5.75-12.22,19.41-32.11,19.41h-1.68c-24.92,0-37.61-19.41-37.61-44.32"/>
        <polygon points="495.41 365.5 537.34 365.5 537.34 399.76 457.56 399.76 457.56 221.51 495.41 221.51 495.41 365.5"/>
        <path d="M656.16,402.15h-5.99c-34.26,0-49.11-18.93-49.11-50.31v-82.65c0-31.63,14.61-49.83,48.87-49.83h5.99c34.26,0,49.11,18.45,49.11,49.83v82.65c0,31.87-15.57,50.31-48.87,50.31M653.04,251.69c-9.34,0-13.65,5.27-13.65,17.97v82.18c0,11.74,4.55,17.73,13.65,17.73s13.66-5.99,13.66-17.73v-82.18c0-12.7-4.79-17.97-13.66-17.97"/>
        <path d="M776.89,399.76v-178.25h63.49c23.24,0,35.69,10.78,35.69,34.74v16.53c0,18.21-8.62,27.07-18.45,30.67,10.54,4.07,18.45,12.22,18.45,29.71v46.96c0,8.62,1.2,14.61,2.88,18.45v1.2h-36.9c-1.68-2.63-3.11-7.67-3.11-17.97v-42.17c0-11.26-3.6-16.06-12.94-16.06h-11.98v76.19h-37.14ZM825.77,294.34c9.35,0,13.18-5.03,13.18-15.33v-15.33c0-10.78-3.35-14.86-13.18-14.86h-11.74v45.52h11.74Z"/>
        <rect x="947.7" y="221.51" width="38.1" height="178.25"/>
        <path d="M1087.36,370.05l-4.55,29.71h-32.82l29.23-178.25h48.4l31.39,178.25h-36.42l-4.55-29.71h-30.67ZM1113.48,340.1l-5.27-34.74c-2.87-19.17-4.55-32.59-5.51-43.13-.96,10.54-2.87,24.2-5.51,43.13l-5.27,34.74h21.57Z"/>
        <polygon points="301.82 483.49 301.82 517.33 312.66 517.33 312.66 523.6 283 523.6 283 517.33 293.78 517.33 293.78 483.49 283 483.49 283 477.22 312.66 477.22 312.66 483.49 301.82 483.49"/>
        <path d="M352.76,512.17h.26c-.26-1.83-.39-4.38-.39-6.27v-28.68h7.51v46.38h-8.62l-12.94-29.79c-1.05-2.48-1.89-5.48-2.09-6.07h-.33c.26,1.5.39,3.59.39,5.29v30.57h-7.51v-46.38h9.4l12.08,28.41c1.12,2.75,1.9,5.23,2.22,6.54"/>
        <path d="M421.01,502.83v-4.84c0-13.52,5.81-21.88,17.44-21.88,9.93,0,16,5.36,16.86,16.79l-8.04,1.24c-.4-7.32-3.46-11.37-8.88-11.37-6.27,0-9.15,4.9-9.15,15.09v4.64c0,10.13,3,15.55,9.15,15.55,5.48,0,8.49-3.98,8.88-11.43l7.97,1.5c-.65,9.8-6.47,16.6-17.18,16.6-11.43,0-17.05-8.36-17.05-21.89"/>
        <polygon points="488.94 523.6 480.91 523.6 480.91 505.51 466.46 477.22 475.22 477.22 484.89 498.78 494.49 477.22 503.31 477.22 488.94 505.51 488.94 523.6"/>
        <path d="M514.54,502.83v-4.84c0-13.52,5.81-21.88,17.44-21.88,9.93,0,16,5.36,16.86,16.79l-8.04,1.24c-.4-7.32-3.46-11.37-8.88-11.37-6.27,0-9.15,4.9-9.15,15.09v4.64c0,10.13,3,15.55,9.15,15.55,5.49,0,8.49-3.98,8.88-11.43l7.97,1.5c-.65,9.8-6.47,16.6-17.18,16.6-11.43,0-17.05-8.36-17.05-21.89"/>
        <polygon points="573.06 477.22 573.06 516.81 594.1 516.81 594.1 523.6 565.03 523.6 565.03 477.22 573.06 477.22"/>
        <polygon points="629.17 483.49 629.17 517.33 640.02 517.33 640.02 523.6 610.36 523.6 610.36 517.33 621.13 517.33 621.13 483.49 610.36 483.49 610.36 477.22 640.02 477.22 640.02 483.49 629.17 483.49"/>
        <path d="M680.11,512.17h.26c-.26-1.83-.39-4.38-.39-6.27v-28.68h7.51v46.38h-8.62l-12.94-29.79c-1.05-2.48-1.9-5.48-2.09-6.07h-.33c.26,1.5.39,3.59.39,5.29v30.57h-7.51v-46.38h9.41l12.08,28.41c1.11,2.75,1.9,5.23,2.22,6.54"/>
        <path d="M701.47,503.29v-5.95c0-13.2,6.07-21.23,17.38-21.23s15.35,8.62,15.81,14.5l-7.97,1.31c-.26-4.18-2.22-9.34-7.97-9.34s-8.95,3.66-8.95,15.48v4.25c0,10.19,2.68,15.87,9.08,15.87,7.12,0,8.95-6.86,8.95-11.17v-2.02h-10.06v-6.08h17.32v24.7h-5.55l-.72-6.8c-1.9,4.9-5.49,7.91-11.7,7.91-9.67,0-15.61-8.23-15.61-21.43"/>
        <path d="M794.6,477.22h7.38l1.31,28.74c.2,4.38.2,7.19.2,9.21h.65c.06-1.3.26-3.53,1.17-8.17l3.66-18.23h6.53l3.66,18.23c.92,4.64,1.11,6.86,1.18,8.17h.65c0-2.02,0-4.83.2-9.21l1.31-28.74h7.38l-3.4,46.38h-9.28l-3.46-18.16c-.72-3.72-1.05-7.05-1.18-9.35h-.66c-.13,2.29-.46,5.62-1.11,9.35l-3.53,18.16h-9.21l-3.46-46.38Z"/>
        <polygon points="873.12 483.82 853.2 483.82 853.2 496.62 872.01 496.62 872.01 503.09 853.2 503.09 853.2 517 873.58 517 873.58 523.6 845.16 523.6 845.16 477.22 873.12 477.22 873.12 483.82"/>
        <polygon points="970.11 477.22 970.11 484.01 956.52 484.01 956.52 523.6 948.42 523.6 948.42 484.01 934.83 484.01 934.83 477.22 970.11 477.22"/>
        <path d="M999.17,504.59h-7.12v19.01h-8.04v-46.38h15.82c10.19,0,16,5.03,16,13.85,0,5.88-3.2,10.25-8.82,12.15l10.32,20.38h-8.82l-9.34-19.01ZM992.05,498.84h7.05c5.42,0,8.3-2.75,8.3-7.71s-2.87-7.71-8.3-7.71h-7.05v15.42Z"/>
        <path d="M1037.9,477.22v31.23c0,5.75,2.81,9.54,8.3,9.54s7.97-3.79,7.97-9.54v-31.23h8.1v31.29c0,9.67-5.29,16.2-16,16.2s-16.46-6.54-16.46-16.2v-31.29h8.1Z"/>
        <path d="M1075.33,511.26l7.19-2.48c1.37,5.23,4.51,9.28,10.84,9.28,3.72,0,8.16-1.37,8.16-6.27s-3.13-6.4-6.73-7.38l-6.2-1.7c-6.86-1.83-11.63-5.88-11.63-12.93,0-7.71,6.33-13.65,15.68-13.65,8.42,0,14.96,3.46,16.72,11.5l-6.8,3.53c-1.43-6.4-5.61-8.5-9.99-8.5-5.75,0-7.51,3.2-7.51,6.21,0,3.46,2.61,5.68,6.4,6.79l6.14,1.7c6.47,1.76,12.09,4.77,12.09,13.39,0,7.19-5.49,13.98-16.6,13.98-9.86,0-15.75-5.49-17.77-13.46"/>
        <polygon points="1157.17 477.22 1157.17 484.01 1143.58 484.01 1143.58 523.6 1135.48 523.6 1135.48 484.01 1121.89 484.01 1121.89 477.22 1157.17 477.22"/>
      </g>
    </g>
  </g>
</svg>