<?xml version="1.0" encoding="UTF-8"?>
<svg id="Capa_2" data-name="Capa 2" xmlns="http://www.w3.org/2000/svg" viewBox="0 0 1440 720">
  <defs>
    <style>
      .cls-1 {
        fill: none;
      }
    </style>
  </defs>
  <g id="Capa_10" data-name="Capa 10">
    <g>
      <rect class="cls-1" width="1440" height="720"/>
      <g>
        <g>
          <path d="M353.31,412.34l-47.29-94.18-1.71,31.66c-.53,9.2-.99,18.32-1.38,27.39-.39,9.06-1.12,17.69-2.17,25.88-1.05,8.19-2.69,15.79-4.93,22.79-2.23,7.01-5.47,13.07-9.72,18.19-4.25,5.12-9.77,9.13-16.55,12.02-6.79,2.89-15.26,4.33-25.42,4.33-4.47,0-8.76-.37-12.87-1.12-4.12-.74-7.75-1.77-10.9-3.09-3.15-1.31-5.67-2.87-7.55-4.66-1.88-1.79-2.82-3.74-2.82-5.85,0-1.58.22-3.17.66-4.79.44-1.62,1.1-3.11,1.97-4.47.88-1.36,1.95-2.45,3.22-3.28,1.27-.83,2.69-1.25,4.27-1.25.96,0,1.82.48,2.56,1.44.74.97,1.51,2.17,2.3,3.61s1.69,3,2.69,4.66c1.01,1.67,2.32,3.22,3.94,4.66,1.62,1.44,3.57,2.65,5.85,3.61,2.28.97,5.12,1.44,8.54,1.44,6.74,0,12.41-1.16,17.01-3.48,4.6-2.32,8.38-5.67,11.36-10.05,2.98-4.38,5.25-9.67,6.83-15.89,1.58-6.22,2.76-13.27,3.55-21.15.35-4.38.7-8.6,1.05-12.68.35-4.07.7-8.12,1.05-12.15.35-4.03.68-8.12.99-12.28.31-4.16.63-8.56.99-13.2.44-6.74.83-13.16,1.18-19.24.35-6.08.63-11.76.85-17.01.22-5.25.39-9.98.53-14.19.13-4.2.24-7.84.33-10.9-1.49-3.06-2.8-5.54-3.94-7.42-1.14-1.88-2.32-3.33-3.55-4.33-1.23-1-2.58-1.68-4.07-2.04-1.49-.35-3.28-.53-5.39-.53-1.75,0-3.92.33-6.5.99-2.58.66-5.25,1.6-8.01,2.82-2.76,1.23-5.52,2.74-8.28,4.53-2.76,1.8-5.21,3.86-7.36,6.17-2.15,2.32-3.9,4.88-5.25,7.68-1.36,2.8-2.04,5.83-2.04,9.06,0,2.8.37,5.04,1.12,6.7.74,1.67,1.62,2.91,2.63,3.74,1.01.83,2.01,1.36,3.02,1.58,1.01.22,1.73.33,2.17.33,2.19,0,3.98-.37,5.39-1.12,1.4-.74,2.67-1.53,3.81-2.36,1.14-.83,2.21-1.62,3.22-2.36,1.01-.74,2.17-1.12,3.48-1.12,1.05,0,2.17.24,3.35.72,1.18.48,2.28,1.25,3.28,2.3,1.01,1.05,1.86,2.43,2.56,4.14.7,1.71,1.05,3.79,1.05,6.24,0,3.5-.68,6.53-2.04,9.06-1.36,2.54-3.11,4.66-5.25,6.37-2.15,1.71-4.6,2.98-7.36,3.81-2.76.83-5.5,1.25-8.21,1.25-4.2,0-7.99-.72-11.36-2.17-3.37-1.44-6.24-3.43-8.6-5.98-2.36-2.54-4.16-5.52-5.39-8.93-1.23-3.42-1.84-7.05-1.84-10.9,0-9.11,2.1-17.05,6.31-23.84,4.2-6.78,9.72-12.46,16.55-17.01,6.83-4.55,14.56-7.95,23.18-10.18,8.62-2.23,17.4-3.35,26.34-3.35,7.18,0,13.18.72,18,2.17,4.81,1.44,8.84,3.37,12.08,5.78,3.24,2.41,5.91,5.23,8.01,8.47,2.1,3.24,4.03,6.66,5.78,10.25l34.68,70.41c9.02-17.78,17.23-33.69,24.63-47.75,7.4-14.06,14.25-26.42,20.56-37.11,6.31-10.68,12.19-19.79,17.67-27.32,5.47-7.53,10.77-13.68,15.89-18.46,5.12-4.77,10.2-8.25,15.24-10.44,5.03-2.19,10.27-3.28,15.7-3.28,4.64,0,8.41.99,11.3,2.96,2.89,1.97,4.33,4.93,4.33,8.87,0,3.5-.57,6.39-1.71,8.67-1.14,2.28-2.72,3.42-4.73,3.42-1.66,0-2.93-.63-3.81-1.9-.88-1.27-1.73-2.65-2.56-4.14-.83-1.49-1.86-2.87-3.09-4.14-1.23-1.27-3.02-1.9-5.39-1.9-1.4,0-3.11.39-5.12,1.18-2.02.79-4.09,1.97-6.24,3.55-2.15,1.58-4.27,3.55-6.37,5.91s-3.94,5.12-5.52,8.28c-1.58,3.15-2.8,6.75-3.68,10.77-.88,4.03-1.14,8.45-.79,13.27.35,5.52.83,11.98,1.44,19.38.61,7.4,1.29,15.33,2.04,23.78.74,8.45,1.53,17.19,2.36,26.21.83,9.02,1.69,17.91,2.56,26.67.87,8.76,1.73,17.17,2.56,25.22.83,8.06,1.6,15.35,2.3,21.87.7,6.53,1.36,12.04,1.97,16.55.61,4.51,1.09,7.6,1.44,9.26.53,2.54,1.23,4.58,2.1,6.11.87,1.53,2.45,2.3,4.73,2.3s4.6-.41,6.7-1.25c2.1-.83,3.98-1.68,5.65-2.56l2.1,4.86c-1.58,1.14-3.57,2.43-5.98,3.88-2.41,1.44-5.17,2.82-8.28,4.14-3.11,1.31-6.52,2.41-10.25,3.28-3.72.87-7.73,1.31-12.02,1.31-6.04,0-10.82-.77-14.32-2.3-3.5-1.53-6.2-3.42-8.08-5.65-1.88-2.23-3.15-4.6-3.81-7.09-.66-2.5-1.16-4.75-1.51-6.76-.79-4.47-1.62-9.85-2.5-16.16-.88-6.31-1.73-13.07-2.56-20.29-.83-7.22-1.64-14.67-2.43-22.33-.79-7.66-1.51-15.15-2.17-22.46-.66-7.31-1.25-14.21-1.77-20.69-.53-6.48-.96-12.13-1.31-16.95-2.63,4.29-5.06,8.43-7.29,12.41-2.23,3.99-4.4,8.06-6.5,12.22-2.1,4.16-4.25,8.52-6.44,13.07-2.19,4.56-4.49,9.5-6.9,14.84-2.41,5.34-5.04,11.21-7.88,17.6-2.85,6.39-5.98,13.53-9.39,21.41h-12.87Z"/>
          <path d="M538.48,314.09c-2.98,0-5.74.35-8.28,1.05-2.54.7-4.73,1.58-6.57,2.63s-3.28,2.21-4.33,3.48c-1.05,1.27-1.58,2.48-1.58,3.61,0,1.31.68,2.26,2.04,2.82,1.36.57,2.87,1.23,4.53,1.97,1.66.75,3.17,1.8,4.53,3.15,1.36,1.36,2.04,3.44,2.04,6.24,0,1.84-.37,3.53-1.12,5.06-.74,1.53-1.75,2.89-3.02,4.07-1.27,1.18-2.76,2.1-4.47,2.76s-3.48.99-5.32.99c-4.9,0-8.87-1.66-11.89-4.99-3.02-3.33-4.53-7.75-4.53-13.27s1.4-9.92,4.2-13.73c2.8-3.81,6.46-6.94,10.97-9.39,4.51-2.45,9.61-4.27,15.3-5.45,5.69-1.18,11.38-1.77,17.08-1.77,6.83,0,13.35.75,19.57,2.23,6.22,1.49,11.71,3.86,16.49,7.09,4.77,3.24,8.58,7.36,11.43,12.35,2.85,4.99,4.27,11.03,4.27,18.13v74.22c0,.79.04,1.67.13,2.63.09.97.31,1.84.66,2.63.35.79.87,1.44,1.58,1.97.7.53,1.71.79,3.02.79,1.58,0,3.04-.59,4.4-1.77,1.36-1.18,2.56-2.38,3.61-3.61l3.28,2.76c-1.31,1.84-2.89,3.86-4.73,6.04-1.84,2.19-4.07,4.25-6.7,6.17-2.63,1.93-5.69,3.55-9.2,4.86-3.5,1.31-7.49,1.97-11.95,1.97-5.52,0-10.42-1.64-14.71-4.93-4.29-3.28-7.09-8.34-8.41-15.17-2.8,3.77-5.71,6.92-8.74,9.46-3.02,2.54-6.11,4.6-9.26,6.17-3.15,1.58-6.33,2.71-9.52,3.42-3.2.7-6.42,1.05-9.65,1.05-4.2,0-8.28-.66-12.22-1.97-3.94-1.31-7.47-3.39-10.57-6.24-3.11-2.84-5.61-6.54-7.49-11.1-1.88-4.55-2.82-10.11-2.82-16.68,0-7.97,1.58-14.49,4.73-19.57,3.15-5.08,7.29-9.35,12.41-12.81,5.12-3.46,10.95-6.41,17.47-8.87,6.52-2.45,13.2-5.03,20.03-7.75,5.08-2.01,8.78-5.01,11.1-9,2.32-3.98,3.48-8.08,3.48-12.28,0-6.48-1.9-11.67-5.71-15.57-3.81-3.89-9-5.85-15.57-5.85ZM559.37,371.62c0-2.19-.7-3.85-2.1-4.99-1.4-1.14-3.2-1.71-5.39-1.71-3.07,0-5.98.7-8.74,2.1-2.76,1.4-5.19,3.46-7.29,6.17-2.1,2.72-3.77,6.07-4.99,10.05-1.23,3.99-1.84,8.6-1.84,13.86s.37,9.28,1.12,12.61c.74,3.33,1.75,5.98,3.02,7.95,1.27,1.97,2.74,3.35,4.4,4.14,1.66.79,3.42,1.18,5.25,1.18,2.28,0,4.42-.59,6.44-1.77,2.01-1.18,3.76-2.69,5.25-4.53,1.49-1.84,2.67-3.89,3.55-6.17.87-2.28,1.31-4.55,1.31-6.83v-32.05Z"/>
          <path d="M705.59,374.25c0-11.03-.5-19.85-1.51-26.47-1.01-6.61-2.34-11.64-4.01-15.11-1.66-3.46-3.5-5.73-5.52-6.83-2.02-1.09-4.07-1.64-6.17-1.64-2.54,0-4.79.68-6.76,2.04-1.97,1.36-3.68,2.91-5.12,4.66-1.44,1.75-2.67,3.5-3.68,5.25-1.01,1.75-1.86,3.07-2.56,3.94v87.75c0,1.14-.18,2.52-.53,4.14-.35,1.62-1.2,3.15-2.56,4.6-1.36,1.44-3.37,2.67-6.04,3.68-2.67,1.01-6.33,1.51-10.97,1.51s-8.3-.55-10.97-1.64c-2.67-1.09-4.71-2.38-6.11-3.88-1.4-1.49-2.28-3.02-2.63-4.6-.35-1.58-.53-2.84-.53-3.81v-101.41c0-2.54-.59-4.75-1.77-6.63-1.18-1.88-3.17-2.82-5.98-2.82-1.49,0-2.76.26-3.81.79s-2.19,1.27-3.42,2.23l-2.76-3.28c2.01-1.66,4.27-3.3,6.76-4.93,2.5-1.62,5.19-3.04,8.08-4.27,2.89-1.22,6-2.23,9.33-3.02,3.33-.79,6.83-1.18,10.51-1.18,5.69,0,10.11.94,13.27,2.82,3.15,1.88,5.47,4.14,6.96,6.76,1.49,2.63,2.39,5.37,2.69,8.21.31,2.85.46,5.23.46,7.16,3.24-4.64,6.92-8.8,11.03-12.48,1.66-1.58,3.52-3.11,5.58-4.6,2.06-1.49,4.25-2.82,6.57-4.01,2.32-1.18,4.77-2.12,7.36-2.82,2.58-.7,5.23-1.05,7.95-1.05,5.95,0,11.23,1.14,15.83,3.42,4.6,2.28,8.47,6.09,11.63,11.43,3.15,5.34,5.56,12.41,7.22,21.21,1.66,8.8,2.5,19.73,2.5,32.77s-1.14,23.73-3.42,33.1c-2.28,9.37-5.25,17.34-8.93,23.91-3.68,6.57-7.84,11.93-12.48,16.09-4.64,4.16-9.33,7.42-14.06,9.79-4.73,2.36-9.26,4.01-13.6,4.93-4.33.92-8.08,1.42-11.23,1.51l-1.44-5.39c2.63-.61,5.06-1.58,7.29-2.89,2.23-1.31,4.27-3.24,6.11-5.78,1.84-2.54,3.46-5.76,4.86-9.65,1.4-3.89,2.6-8.78,3.61-14.65,1.01-5.87,1.75-12.81,2.23-20.82.48-8.01.72-17.36.72-28.04Z"/>
          <path d="M761.86,357.04c0-8.93,1.55-16.75,4.66-23.45,3.11-6.7,7.29-12.3,12.54-16.81,5.25-4.51,11.34-7.88,18.26-10.11,6.92-2.23,14.19-3.35,21.81-3.35s14.84,1.01,21.67,3.02c6.83,2.02,12.87,5.12,18.13,9.33,1.66-2.54,3.02-5.21,4.07-8.01,1.05-2.8,1.58-5.6,1.58-8.41,0-3.68-.99-6.61-2.96-8.8-1.97-2.19-4.49-3.28-7.55-3.28v-3.81c1.93-.61,3.63-1.16,5.12-1.64,1.49-.48,2.85-.85,4.07-1.12,1.23-.26,2.45-.46,3.68-.59,1.23-.13,2.58-.2,4.07-.2,4.12,0,7.27,1.27,9.46,3.81,2.19,2.54,3.28,6.04,3.28,10.51,0,2.63-.61,5.23-1.84,7.82-1.23,2.59-2.76,5.06-4.6,7.42-1.84,2.36-3.88,4.6-6.11,6.7-2.23,2.1-4.36,3.94-6.37,5.52,3.68,4.2,6.52,9.11,8.54,14.71,2.01,5.61,3.02,12,3.02,19.18,0,9.02-1.56,16.99-4.66,23.91-3.11,6.92-7.29,12.74-12.54,17.47-5.25,4.73-11.34,8.3-18.26,10.71-6.92,2.41-14.19,3.61-21.81,3.61-4.47,0-8.85-.39-13.14-1.18-4.29-.79-8.32-1.92-12.08-3.42-1.4,1.05-2.61,2.36-3.61,3.94-1.01,1.58-1.51,3.33-1.51,5.25,0,3.24,1.4,5.65,4.2,7.22,2.8,1.58,6.52,2.72,11.17,3.42,4.64.7,9.9,1.14,15.76,1.31,5.87.18,11.89.46,18.06.85s12.19,1.14,18.06,2.23c5.87,1.1,11.12,2.89,15.76,5.39,4.64,2.5,8.36,5.89,11.17,10.18,2.8,4.29,4.2,9.85,4.2,16.68,0,4.99-1.05,9.48-3.15,13.46s-4.93,7.49-8.47,10.51-7.66,5.6-12.35,7.75c-4.69,2.15-9.63,3.9-14.84,5.25-5.21,1.36-10.51,2.34-15.89,2.96-5.39.61-10.53.92-15.43.92-8.93,0-16.97-.46-24.1-1.38-7.14-.92-13.2-2.34-18.19-4.27-4.99-1.93-8.85-4.42-11.56-7.49-2.72-3.07-4.07-6.74-4.07-11.03,0-3.07.7-5.89,2.1-8.47,1.4-2.58,3.26-4.95,5.58-7.09,2.32-2.15,4.93-4.07,7.82-5.78s5.82-3.3,8.8-4.79c-4.38-1.84-8.04-4.62-10.97-8.34-2.93-3.72-4.4-8.65-4.4-14.78,0-3.24.57-6.24,1.71-9,1.14-2.76,2.6-5.3,4.4-7.62,1.79-2.32,3.76-4.42,5.91-6.31,2.15-1.88,4.22-3.48,6.24-4.79-3.59-2.1-6.9-4.66-9.92-7.68-3.02-3.02-5.61-6.44-7.75-10.25-2.15-3.81-3.81-8.03-4.99-12.68-1.18-4.64-1.77-9.67-1.77-15.11ZM856.84,473.56c0-2.8-1.1-5.1-3.28-6.9-2.19-1.79-5.06-3.24-8.6-4.33s-7.58-1.93-12.08-2.5c-4.51-.57-9.09-1.01-13.73-1.31-4.64-.31-9.15-.59-13.53-.85-4.38-.26-8.19-.61-11.43-1.05-1.84,1.31-3.61,2.74-5.32,4.27-1.71,1.53-3.2,3.15-4.47,4.86-1.27,1.71-2.3,3.5-3.09,5.39s-1.18,3.79-1.18,5.71c0,3.33.96,6.11,2.89,8.34,1.93,2.23,4.53,4.01,7.82,5.32s7.09,2.23,11.43,2.76c4.33.53,8.91.79,13.73.79,6.39,0,12.13-.55,17.21-1.64,5.08-1.1,9.37-2.58,12.87-4.47,3.5-1.88,6.17-4.05,8.01-6.5,1.84-2.45,2.76-5.08,2.76-7.88ZM836.87,355.99c0-5.08-.26-10.03-.79-14.84-.53-4.81-1.44-9.11-2.76-12.87-1.31-3.76-3.11-6.81-5.39-9.13-2.28-2.32-5.21-3.48-8.8-3.48s-6.52,1.21-8.8,3.61c-2.28,2.41-4.07,5.56-5.39,9.46-1.31,3.9-2.23,8.32-2.76,13.27-.53,4.95-.79,9.96-.79,15.04s.26,10.25.79,15.24c.53,4.99,1.44,9.46,2.76,13.4,1.31,3.94,3.11,7.12,5.39,9.52,2.28,2.41,5.21,3.61,8.8,3.61s6.52-1.27,8.8-3.81c2.28-2.54,4.07-5.85,5.39-9.92,1.31-4.07,2.23-8.65,2.76-13.73.53-5.08.79-10.2.79-15.37Z"/>
          <g>
            <path d="M934.27,314.09c-2.98,0-5.74.35-8.28,1.05-2.54.7-4.73,1.58-6.57,2.63s-3.28,2.21-4.33,3.48c-1.05,1.27-1.58,2.48-1.58,3.61,0,1.31.68,2.26,2.04,2.82,1.36.57,2.87,1.23,4.53,1.97,1.66.75,3.17,1.8,4.53,3.15,1.36,1.36,2.04,3.44,2.04,6.24,0,1.84-.37,3.53-1.12,5.06-.74,1.53-1.75,2.89-3.02,4.07-1.27,1.18-2.76,2.1-4.47,2.76s-3.48.99-5.32.99c-4.9,0-8.87-1.66-11.89-4.99-3.02-3.33-4.53-7.75-4.53-13.27s1.4-9.92,4.2-13.73c2.8-3.81,6.46-6.94,10.97-9.39,4.51-2.45,9.61-4.27,15.3-5.45,5.69-1.18,11.38-1.77,17.08-1.77,6.83,0,13.35.75,19.57,2.23,6.22,1.49,11.71,3.86,16.49,7.09,4.77,3.24,8.58,7.36,11.43,12.35,2.85,4.99,4.27,11.03,4.27,18.13v74.22c0,.79.04,1.67.13,2.63.09.97.31,1.84.66,2.63.35.79.87,1.44,1.58,1.97.7.53,1.71.79,3.02.79,1.58,0,3.04-.59,4.4-1.77,1.36-1.18,2.56-2.38,3.61-3.61l3.28,2.76c-1.31,1.84-2.89,3.86-4.73,6.04-1.84,2.19-4.07,4.25-6.7,6.17-2.63,1.93-5.69,3.55-9.2,4.86-3.5,1.31-7.49,1.97-11.95,1.97-5.52,0-10.42-1.64-14.71-4.93-4.29-3.28-7.09-8.34-8.41-15.17-2.8,3.77-5.71,6.92-8.74,9.46-3.02,2.54-6.11,4.6-9.26,6.17-3.15,1.58-6.33,2.71-9.52,3.42-3.2.7-6.42,1.05-9.65,1.05-4.2,0-8.28-.66-12.22-1.97s-7.47-3.39-10.57-6.24c-3.11-2.84-5.61-6.54-7.49-11.1-1.88-4.55-2.82-10.11-2.82-16.68,0-7.97,1.58-14.49,4.73-19.57,3.15-5.08,7.29-9.35,12.41-12.81,5.12-3.46,10.95-6.41,17.47-8.87,6.52-2.45,13.2-5.03,20.03-7.75,5.08-2.01,8.78-5.01,11.1-9,2.32-3.98,3.48-8.08,3.48-12.28,0-6.48-1.9-11.67-5.71-15.57-3.81-3.89-9-5.85-15.57-5.85ZM955.15,371.62c0-2.19-.7-3.85-2.1-4.99-1.4-1.14-3.2-1.71-5.39-1.71-3.07,0-5.98.7-8.74,2.1-2.76,1.4-5.19,3.46-7.29,6.17-2.1,2.72-3.77,6.07-4.99,10.05-1.23,3.99-1.84,8.6-1.84,13.86s.37,9.28,1.12,12.61c.74,3.33,1.75,5.98,3.02,7.95,1.27,1.97,2.74,3.35,4.4,4.14,1.66.79,3.42,1.18,5.25,1.18,2.28,0,4.42-.59,6.44-1.77,2.01-1.18,3.76-2.69,5.25-4.53,1.49-1.84,2.67-3.89,3.55-6.17.87-2.28,1.31-4.55,1.31-6.83v-32.05Z"/>
            <path d="M1066.24,314.61v97.07c0,4.64.87,7.86,2.63,9.65,1.75,1.8,4.16,2.69,7.22,2.69,2.36,0,4.47-.66,6.31-1.97,1.84-1.31,3.42-2.8,4.73-4.47,1.58-1.84,2.93-3.98,4.07-6.44l4.07,1.84c-1.31,2.8-2.87,5.87-4.66,9.2-1.8,3.33-4.18,6.42-7.16,9.26-2.98,2.85-6.72,5.23-11.23,7.16-4.51,1.93-10.18,2.89-17.01,2.89-3.85,0-7.55-.57-11.1-1.71-3.55-1.14-6.7-2.93-9.46-5.39-2.76-2.45-4.97-5.52-6.63-9.2-1.66-3.68-2.5-8.1-2.5-13.27v-97.34h-14.71v-9.46c2.45,0,5.87-.63,10.25-1.9,4.38-1.27,8.87-3.39,13.46-6.37,4.6-2.98,8.87-6.96,12.81-11.95,3.94-4.99,6.74-11.17,8.41-18.52h10.51v38.75h21.41c7.01,0,10.51-1.18,10.51-3.55,0-.87-.44-1.46-1.31-1.77-.88-.3-1.86-.7-2.96-1.18-1.1-.48-2.08-1.16-2.96-2.04-.88-.87-1.31-2.32-1.31-4.33,0-2.45.77-4.38,2.3-5.78,1.53-1.4,3.52-2.1,5.98-2.1,1.58,0,2.96.33,4.14.99s2.17,1.53,2.96,2.63c.79,1.1,1.38,2.34,1.77,3.74.39,1.4.59,2.8.59,4.2,0,5.69-1.64,10.23-4.93,13.6-3.28,3.37-8.56,5.06-15.83,5.06h-20.36Z"/>
            <path d="M1151.97,314.09c-2.98,0-5.74.35-8.28,1.05-2.54.7-4.73,1.58-6.57,2.63s-3.28,2.21-4.33,3.48c-1.05,1.27-1.58,2.48-1.58,3.61,0,1.31.68,2.26,2.04,2.82,1.36.57,2.87,1.23,4.53,1.97,1.66.75,3.17,1.8,4.53,3.15,1.36,1.36,2.04,3.44,2.04,6.24,0,1.84-.37,3.53-1.12,5.06-.74,1.53-1.75,2.89-3.02,4.07-1.27,1.18-2.76,2.1-4.47,2.76s-3.48.99-5.32.99c-4.9,0-8.87-1.66-11.89-4.99-3.02-3.33-4.53-7.75-4.53-13.27s1.4-9.92,4.2-13.73c2.8-3.81,6.46-6.94,10.97-9.39,4.51-2.45,9.61-4.27,15.3-5.45,5.69-1.18,11.38-1.77,17.08-1.77,6.83,0,13.35.75,19.57,2.23,6.22,1.49,11.71,3.86,16.49,7.09,4.77,3.24,8.58,7.36,11.43,12.35,2.85,4.99,4.27,11.03,4.27,18.13v74.22c0,.79.04,1.67.13,2.63.09.97.31,1.84.66,2.63.35.79.87,1.44,1.58,1.97.7.53,1.71.79,3.02.79,1.58,0,3.04-.59,4.4-1.77,1.36-1.18,2.56-2.38,3.61-3.61l3.28,2.76c-1.31,1.84-2.89,3.86-4.73,6.04-1.84,2.19-4.07,4.25-6.7,6.17-2.63,1.93-5.69,3.55-9.2,4.86-3.5,1.31-7.49,1.97-11.95,1.97-5.52,0-10.42-1.64-14.71-4.93-4.29-3.28-7.09-8.34-8.41-15.17-2.8,3.77-5.71,6.92-8.74,9.46-3.02,2.54-6.11,4.6-9.26,6.17-3.15,1.58-6.33,2.71-9.52,3.42-3.2.7-6.42,1.05-9.65,1.05-4.2,0-8.28-.66-12.22-1.97s-7.47-3.39-10.57-6.24c-3.11-2.84-5.61-6.54-7.49-11.1-1.88-4.55-2.82-10.11-2.82-16.68,0-7.97,1.58-14.49,4.73-19.57,3.15-5.08,7.29-9.35,12.41-12.81,5.12-3.46,10.95-6.41,17.47-8.87,6.52-2.45,13.2-5.03,20.03-7.75,5.08-2.01,8.78-5.01,11.1-9,2.32-3.98,3.48-8.08,3.48-12.28,0-6.48-1.9-11.67-5.71-15.57-3.81-3.89-9-5.85-15.57-5.85ZM1172.86,371.62c0-2.19-.7-3.85-2.1-4.99-1.4-1.14-3.2-1.71-5.39-1.71-3.07,0-5.98.7-8.74,2.1-2.76,1.4-5.19,3.46-7.29,6.17-2.1,2.72-3.77,6.07-4.99,10.05-1.23,3.99-1.84,8.6-1.84,13.86s.37,9.28,1.12,12.61c.74,3.33,1.75,5.98,3.02,7.95,1.27,1.97,2.74,3.35,4.4,4.14,1.66.79,3.42,1.18,5.25,1.18,2.28,0,4.42-.59,6.44-1.77,2.01-1.18,3.76-2.69,5.25-4.53,1.49-1.84,2.67-3.89,3.55-6.17.87-2.28,1.31-4.55,1.31-6.83v-32.05Z"/>
          </g>
        </g>
        <g>
          <path d="M920.62,493.25v-4.77l4.1-.78v-24.86l-4.1-.83v-4.74h23.08c2.84,0,5.14.85,6.9,2.55,1.76,1.7,2.64,3.89,2.64,6.56,0,1.77-.4,3.35-1.21,4.74-.81,1.39-1.93,2.46-3.37,3.21,1.85.59,3.33,1.69,4.42,3.32,1.09,1.63,1.64,3.56,1.64,5.78,0,2.91-.95,5.27-2.87,7.09-1.91,1.81-4.41,2.72-7.5,2.72h-23.73ZM932.11,471.73h9.16c1.33,0,2.41-.4,3.22-1.2.81-.8,1.21-1.82,1.21-3.06s-.4-2.32-1.21-3.14c-.81-.82-1.88-1.23-3.22-1.23h-9.16v8.63ZM941.7,477.8h-9.59v9.66h9.59c1.54,0,2.77-.47,3.72-1.39.94-.93,1.41-2.11,1.41-3.55s-.47-2.54-1.41-3.41c-.94-.87-2.18-1.3-3.72-1.3Z"/>
          <path d="M984.27,482.82h-18.72c.23,1.51,1.11,2.74,2.62,3.7,1.51.96,3.32,1.44,5.44,1.44,2.57,0,4.54-.59,5.91-1.76l3.68,3.71c-2.57,2.58-6.04,3.86-10.41,3.84-4.3,0-7.8-1.27-10.48-3.8-2.68-2.53-4.02-5.82-4.02-9.85s1.21-6.96,3.63-9.4c2.42-2.43,5.56-3.65,9.42-3.65s7.01,1.25,9.44,3.75c2.43,2.5,3.64,5.73,3.64,9.7,0,.72-.05,1.49-.15,2.31ZM965.67,477.8h11.61c.03-1.47-.46-2.68-1.48-3.63-1.02-.94-2.33-1.42-3.94-1.42s-3,.47-4.15,1.42c-1.16.94-1.84,2.15-2.04,3.63Z"/>
          <path d="M996.27,493.75c-2.6,0-4.73-.7-6.38-2.1-1.65-1.4-2.48-3.22-2.48-5.46,0-2.64,1.19-4.79,3.57-6.45,2.38-1.66,5.44-2.48,9.2-2.48,1.47,0,2.8.12,4.01.35v-1.38c0-.99-.5-1.8-1.49-2.43-.99-.64-2.27-.95-3.84-.95-2.74,0-5.18.77-7.34,2.31l-3.23-4.01c1.2-1.24,2.82-2.23,4.87-2.97,2.04-.74,4.2-1.12,6.47-1.12,3.35,0,6.1.83,8.22,2.48,2.13,1.66,3.19,3.79,3.19,6.4v12.02l3.55.83v4.47h-10.41v-2.41c-2.14,1.94-4.77,2.91-7.91,2.91ZM1000.75,481.84c-1.82,0-3.29.34-4.42,1.03-1.13.69-1.69,1.55-1.69,2.59,0,.82.38,1.49,1.13,2.02.75.53,1.69.79,2.83.79,1.64,0,2.97-.55,4.02-1.64,1.04-1.1,1.56-2.53,1.56-4.3-.95-.32-2.1-.48-3.43-.48Z"/>
          <path d="M1030.27,493.75c-4.17,0-7.57-1.24-10.2-3.71-2.63-2.47-3.94-5.72-3.94-9.73s1.27-7.08,3.82-9.55c2.54-2.47,5.92-3.7,10.13-3.7,3.45,0,6.44.77,8.96,2.31v8.05h-5.03l-.8-4.22c-.82-.23-1.73-.35-2.73-.35-2.09,0-3.77.69-5.04,2.08-1.28,1.39-1.92,3.18-1.92,5.37s.68,4.1,2.04,5.52c1.36,1.42,3.1,2.13,5.22,2.13s3.96-.6,5.33-1.81l3.95,3.96c-2.39,2.43-5.65,3.64-9.79,3.64Z"/>
          <path d="M1042.35,455.99h10.39v14.18c2.09-2.09,4.74-3.13,7.96-3.11,3,0,5.44.94,7.32,2.82,1.88,1.88,2.81,4.34,2.81,7.39v10.69l3.6.83v4.47h-13.99v-4.47l3.58-.83v-9.36c0-1.74-.5-3.16-1.51-4.25s-2.31-1.64-3.92-1.64c-1.7,0-3.1.61-4.2,1.84-1.1,1.23-1.65,2.81-1.65,4.73v8.68l3.55.83v4.47h-13.94v-4.47l3.53-.83v-26.67l-3.53-.83v-4.47Z"/>
          <path d="M1074.07,472.03v-4.47h13.59v4.47l-3.48.83,3.58,11.77,5.18-16.81h6.11l5.08,16.81,3.68-11.77-3.53-.83v-4.47h13.57v4.47l-3.48.83-6.86,20.4h-6.36l-5.13-16.18-5.23,16.18h-6.41l-6.81-20.4-3.5-.83Z"/>
          <path d="M1145.25,482.82h-18.72c.23,1.51,1.11,2.74,2.62,3.7,1.51.96,3.32,1.44,5.44,1.44,2.57,0,4.54-.59,5.91-1.76l3.68,3.71c-2.57,2.58-6.04,3.86-10.41,3.84-4.3,0-7.8-1.27-10.48-3.8s-4.02-5.82-4.02-9.85,1.21-6.96,3.63-9.4,5.56-3.65,9.42-3.65,7.01,1.25,9.44,3.75c2.43,2.5,3.64,5.73,3.64,9.7,0,.72-.05,1.49-.15,2.31ZM1126.65,477.8h11.61c.03-1.47-.46-2.68-1.48-3.63s-2.33-1.42-3.94-1.42-3,.47-4.15,1.42c-1.16.94-1.84,2.15-2.04,3.63Z"/>
          <path d="M1157.24,493.75c-2.6,0-4.73-.7-6.38-2.1-1.65-1.4-2.48-3.22-2.48-5.46,0-2.64,1.19-4.79,3.57-6.45,2.38-1.66,5.44-2.48,9.2-2.48,1.47,0,2.8.12,4.01.35v-1.38c0-.99-.5-1.8-1.49-2.43-.99-.64-2.27-.95-3.84-.95-2.74,0-5.18.77-7.34,2.31l-3.23-4.01c1.2-1.24,2.82-2.23,4.87-2.97,2.04-.74,4.2-1.12,6.47-1.12,3.35,0,6.1.83,8.22,2.48,2.13,1.66,3.19,3.79,3.19,6.4v12.02l3.55.83v4.47h-10.41v-2.41c-2.14,1.94-4.77,2.91-7.91,2.91ZM1161.72,481.84c-1.82,0-3.29.34-4.42,1.03-1.13.69-1.69,1.55-1.69,2.59,0,.82.38,1.49,1.13,2.02.75.53,1.69.79,2.83.79,1.64,0,2.97-.55,4.02-1.64,1.04-1.1,1.56-2.53,1.56-4.3-.95-.32-2.1-.48-3.43-.48Z"/>
          <path d="M1177.76,493.25v-4.47l3.53-.83v-15.1l-3.53-.83v-4.47h10.41v4.84c.95-1.64,2.27-2.94,3.94-3.9s3.48-1.44,5.42-1.44v6.57c-2.77,0-5.02.69-6.76,2.08s-2.6,3.19-2.6,5.42v6.83l4.56.83v4.47h-14.97Z"/>
        </g>
      </g>
    </g>
  </g>
</svg>