<?xml version="1.0" encoding="UTF-8"?>
<svg id="Capa_2" data-name="Capa 2" xmlns="http://www.w3.org/2000/svg" viewBox="0 0 1440 720">
  <defs>
    <style>
      .cls-1 {
        fill: none;
      }
    </style>
  </defs>
  <g id="Capa_6" data-name="Capa 6">
    <g>
      <rect class="cls-1" width="1440" height="720"/>
      <g>
        <g>
          <g>
            <path d="M490.7,423.82c-2.97-1.09-6.25-1.63-9.84-1.63-6.04,0-11.19,2.09-15.43,6.25-4.25,4.17-6.37,9.22-6.37,15.15s2.08,10.65,6.23,15.03c4.15,4.38,9.71,6.57,16.68,6.57,3.06,0,5.7-.34,7.91-1.01,2.21-.67,4.28-1.8,6.21-3.37,1.93-1.57,3.48-3.35,4.64-5.33,1.16-1.98,1.93-3.8,2.3-5.44.37-1.65.55-3.85.55-6.61h-17.21v5.51h10.9c-2.07,6.99-7.13,10.49-15.18,10.49-5.37,0-9.58-1.6-12.63-4.8-3.05-3.2-4.58-6.79-4.58-10.78,0-4.56,1.57-8.36,4.72-11.4,3.15-3.04,7.09-4.56,11.82-4.56,5.41,0,10.17,2.02,14.29,6.05l4.09-4.02c-3.11-2.98-6.14-5.01-9.11-6.1Z"/>
            <path d="M522.24,463.87h5.51v-16.61h1.24l11.2,16.61h6.33l-11.73-17.28c3.75-.84,6.51-2.3,8.28-4.37,1.77-2.07,2.66-4.46,2.66-7.16,0-3.38-1.37-6.15-4.1-8.32-2.74-2.16-6.28-3.25-10.63-3.25h-8.75v40.37ZM534.73,428.97c1.58.39,2.85,1.13,3.8,2.22.95,1.09,1.43,2.49,1.43,4.2,0,4.88-4.07,7.24-12.2,7.07v-14.07c3.06,0,5.39.2,6.97.59Z"/>
            <path d="M565.18,446.75c0,5.85,1.44,10.28,4.33,13.28,2.88,3,6.72,4.5,11.52,4.5s8.45-1.48,11.27-4.44c2.82-2.96,4.23-6.91,4.23-11.85v-25.38h-5.51v25.76c0,3.36-.89,5.96-2.68,7.81-1.79,1.85-4.28,2.77-7.49,2.77s-5.73-1-7.49-3.01c-1.76-2.01-2.65-4.85-2.65-8.52v-24.81h-5.51v23.89Z"/>
            <path d="M615.19,463.87h5.45v-16.61c6.04.06,10.55-1.08,13.52-3.42,2.97-2.35,4.45-5.25,4.45-8.71s-1.41-6.24-4.21-8.4c-2.81-2.15-6.51-3.23-11.09-3.23h-8.11v40.37ZM630.57,430.38c1.51,1.37,2.27,3,2.27,4.88,0,2.49-1,4.3-2.99,5.43-2,1.13-5.07,1.72-9.21,1.76v-14.13c5.11,0,8.42.69,9.93,2.06Z"/>
            <path d="M663.77,458.82c4.33,4.24,9.58,6.36,15.75,6.36s11.53-2.11,15.83-6.32c4.3-4.21,6.45-9.37,6.45-15.47,0-5.76-2.18-10.74-6.53-14.93-4.35-4.19-9.54-6.29-15.56-6.29s-11.45,2.08-15.84,6.24c-4.39,4.16-6.59,9.15-6.59,14.98s2.17,11.18,6.5,15.42ZM691.19,454.75c-3.16,3.11-6.91,4.67-11.27,4.67-4.73,0-8.73-1.52-11.99-4.57-3.26-3.05-4.9-6.78-4.9-11.19s1.59-8.07,4.77-11.18c3.18-3.1,7-4.65,11.46-4.65,4.69,0,8.64,1.53,11.85,4.57,3.21,3.05,4.82,6.8,4.82,11.25s-1.58,7.98-4.74,11.1Z"/>
            <path d="M747.56,463.87h5.45v-40.37h-5.45v40.37Z"/>
            <path d="M771.68,463.75h5.51v-28.68l29.85,30.55v-42.24h-5.51v29.07l-29.85-30.68v41.99Z"/>
            <path d="M844.69,451.97l-12.64-30.09-11.04,42.05h5.37l6.77-25.92,11.54,27.47,11.51-27.25,6.68,25.69h5.4l-11.04-42.05-12.55,30.09Z"/>
            <path d="M888.74,458.82c4.33,4.24,9.58,6.36,15.75,6.36s11.53-2.11,15.83-6.32c4.3-4.21,6.45-9.37,6.45-15.47,0-5.76-2.18-10.74-6.53-14.93-4.35-4.19-9.54-6.29-15.56-6.29s-11.45,2.08-15.84,6.24c-4.39,4.16-6.59,9.15-6.59,14.98s2.17,11.18,6.5,15.42ZM916.17,454.75c-3.16,3.11-6.91,4.67-11.27,4.67-4.73,0-8.73-1.52-11.99-4.57-3.26-3.05-4.9-6.78-4.9-11.19s1.59-8.07,4.77-11.18c3.18-3.1,7-4.65,11.46-4.65,4.69,0,8.64,1.53,11.85,4.57,3.21,3.05,4.82,6.8,4.82,11.25s-1.58,7.98-4.74,11.1Z"/>
            <path d="M945.43,463.87h6.62c5.26,0,9.46-1.07,12.6-3.2,3.14-2.14,4.71-4.95,4.71-8.44,0-5.01-3.04-8.53-9.13-10.56,3.93-2.28,5.89-5.12,5.89-8.52,0-2.79-1.33-5.09-3.99-6.92-2.66-1.83-6.1-2.74-10.3-2.74h-6.4v40.37ZM952.25,428.32c2.45,0,4.4.51,5.86,1.54,1.46,1.02,2.19,2.39,2.19,4.1,0,1.96-.81,3.51-2.42,4.63-1.62,1.12-3.95,1.7-6.99,1.74v-11.95c.38-.04.83-.06,1.36-.06h0ZM952.76,445.11c3.38,0,6.04.62,7.99,1.87,1.94,1.25,2.92,2.92,2.92,5.01,0,1.58-.87,3.14-2.6,4.66-1.73,1.52-4.98,2.28-9.73,2.28h-.44v-13.82h1.87Z"/>
            <path d="M988.02,463.87h5.45v-40.37h-5.45v40.37Z"/>
            <path d="M1012.14,463.87h18.6v-5.45h-13.15v-34.92h-5.45v40.37Z"/>
            <path d="M1049.4,463.87h5.45v-40.37h-5.45v40.37Z"/>
            <path d="M1073.52,464.65h5.74l4.63-10.33h17.13l4.69,10.33h5.78l-19.06-41.93-18.9,41.93ZM1098.93,449.72h-12.99l6.46-14.4,6.53,14.4Z"/>
            <path d="M1130.15,463.87h5.51v-16.61h1.24l11.2,16.61h6.33l-11.73-17.28c3.75-.84,6.51-2.3,8.28-4.37,1.77-2.07,2.65-4.46,2.65-7.16,0-3.38-1.37-6.15-4.1-8.32-2.74-2.16-6.28-3.25-10.63-3.25h-8.75v40.37ZM1142.63,428.97c1.58.39,2.85,1.13,3.8,2.22.95,1.09,1.43,2.49,1.43,4.2,0,4.88-4.07,7.24-12.2,7.07v-14.07c3.06,0,5.39.2,6.97.59Z"/>
            <path d="M1173.08,463.87h5.45v-40.37h-5.45v40.37Z"/>
            <path d="M1203.69,458.82c4.33,4.24,9.58,6.36,15.75,6.36s11.53-2.11,15.83-6.32c4.3-4.21,6.45-9.37,6.45-15.47,0-5.76-2.18-10.74-6.53-14.93-4.35-4.19-9.54-6.29-15.56-6.29s-11.45,2.08-15.84,6.24c-4.39,4.16-6.59,9.15-6.59,14.98s2.17,11.18,6.5,15.42ZM1231.12,454.75c-3.16,3.11-6.91,4.67-11.27,4.67-4.73,0-8.73-1.52-11.99-4.57-3.26-3.05-4.9-6.78-4.9-11.19s1.59-8.07,4.77-11.18c3.18-3.1,7-4.65,11.46-4.65,4.69,0,8.64,1.53,11.85,4.57,3.21,3.05,4.82,6.8,4.82,11.25s-1.58,7.98-4.74,11.1Z"/>
          </g>
          <g>
            <path d="M434.78,380.32h27.1v-49l15.82-.39c5.02-.13,11.06-1.8,18.13-5.02,7.07-3.21,12.36-8.09,15.87-14.61,3.5-6.53,5.26-13.42,5.26-20.69,0-11.06-3.57-19.98-10.71-26.76-7.14-6.78-16.53-10.18-28.16-10.18h-43.3v126.63ZM467.57,276.07c6.75,0,11.96,1.42,15.62,4.24,3.67,2.83,5.5,6.82,5.5,11.96,0,4.5-1.62,8.39-4.87,11.67-3.25,3.28-7.15,4.92-11.72,4.92h-10.61v-32.41l6.08-.39Z"/>
            <path d="M529.78,380.32h64.43v-27.29h-37.32v-99.34h-27.1v126.63Z"/>
            <path d="M607.04,380.32h27.32l9.93-24.88h48.6l10.14,24.88h27.47l-51.59-126.63h-21.14l-50.72,126.63ZM683.54,332.49h-30.09l14.89-37.32,15.21,37.32Z"/>
            <path d="M714.63,280.6h28.84v99.73h27.29v-99.73h29.03v-26.91h-85.16v26.91Z"/>
            <path d="M812.62,380.32h27.29v-126.63h-27.29v126.63Z"/>
            <path d="M937.81,335.09l-58.08-81.4h-26.99v126.63h27.29v-81.98l57.9,81.98h26.59v-126.63h-26.72v81.4Z"/>
            <path d="M977.36,380.32h27.29v-126.63h-27.29v126.63Z"/>
            <path d="M1017.48,337.02c0,10.67,4.02,20.85,12.06,30.53,8.04,9.68,20.74,14.52,38.1,14.52,9.58,0,18.24-2.06,25.99-6.17,7.75-4.11,13.49-10.05,17.22-17.79,3.73-7.75,5.59-15.22,5.59-22.42v-81.98h-26.81v76.1c0,8.04-2.06,14.26-6.17,18.66-4.12,4.4-9.9,6.61-17.36,6.61-6.5,0-11.73-2.19-15.72-6.56-3.99-4.37-5.98-10.16-5.98-17.36v-77.45h-26.91v83.33Z"/>
            <path d="M1122.97,380.32h26.43l10.55-89.89,28.6,89.89h12.39l27.87-89.12,11.18,89.12h26l-16.31-126.63h-31.28l-23.74,75.9-23.72-75.9h-32.43l-15.55,126.63Z"/>
          </g>
        </g>
        <g>
          <path d="M174,278.63c0,1.7,0,3.4,0,5.1l86.95-50.98s46.71-1.27,128.54,16.48c-5.24-4.98-11.31-9.45-18.02-13.29-30.99-6.52-73.71-13.91-110.08-14.4l-87.39,57.1Z"/>
          <path d="M260.95,251.69s52.9-1.44,144.75,20.15c-1.57-3.63-3.53-7.15-5.84-10.54-27.29-6.62-88.81-20.15-138.47-20.82l-87.39,57.1c0,1.7,0,3.4,0,5.1l86.95-50.98Z"/>
          <path d="M260.95,270.63s54.92-1.49,150,21.4c-.36-3.17-.92-6.32-1.69-9.44-19.04-4.88-91.18-22.4-147.87-23.17l-87.39,57.1c0,1.7,0,3.4,0,5.1l86.95-50.98Z"/>
          <path d="M260.95,289.57s54.83-1.49,149.77,21.34c.41-2.93.64-5.88.7-8.83-14.93-3.89-90.88-22.92-150.03-23.72l-87.39,57.1c0,1.7,0,3.4,0,5.1l86.95-50.98Z"/>
          <path d="M260.95,308.51s53.02-1.44,145.05,20.22c1.09-2.76,2.03-5.56,2.79-8.38-19.72-5.04-91.16-22.28-147.4-23.05l-87.39,57.1c0,1.7,0,3.4,0,5.1l86.95-50.98Z"/>
          <path d="M260.95,327.46s49.53-1.35,135.94,18.12c1.83-2.61,3.5-5.28,4.98-8.02-26.17-6.42-89.55-20.62-140.48-21.32l-87.39,57.1c0,1.7,0,3.4,0,5.1l86.95-50.98Z"/>
          <path d="M260.95,346.4s44.05-1.2,121.55,14.99c2.14-1.77,4.15-3.63,6.02-5.61.63-.66,1.25-1.34,1.86-2.01-30.37-7.03-84.45-17.98-128.99-18.58l-87.39,57.1c0,1.7,0,3.4,0,5.1l86.95-50.98Z"/>
          <path d="M260.95,365.34s34.94-.95,97.32,10.28c4.84-2.07,9.49-4.37,13.83-6.96-31.04-6.55-74.09-14.04-110.71-14.53l-87.39,57.1c0,1.7,0,3.4,0,5.1l86.95-50.98Z"/>
          <path d="M260.95,384.28s19.24-.52,54.64,3.79c3.55-.59,7.2-1.34,11.04-2.32,4.99-1.2,9.98-2.55,14.9-4.07-25.64-4.49-54.47-8.27-80.14-8.62l-87.39,57.1c0,1.7,0,3.4,0,5.1l86.95-50.98Z"/>
          <path d="M260.94,403.24c0-3.64,0-7.28,0-10.92l-86.93,56.79c0,1.7,0,3.4,0,5.1l86.94-50.97Z"/>
          <path d="M260.94,422.18c0-3.64,0-7.28,0-10.92l-86.94,56.8c0,1.7,0,3.4,0,5.1l86.94-50.98Z"/>
          <path d="M260.95,441.11c0-3.64,0-7.28,0-10.92l-86.95,56.8c0,1.7,0,3.4,0,5.1l86.95-50.98Z"/>
          <path d="M260.95,460.06c0-3.64,0-7.28,0-10.93l-74.43,48.63c3.3,0,6.68,0,10.12,0l64.31-37.71Z"/>
          <path d="M260.94,479.01c0-3.64,0-7.28,0-10.93l-45.45,29.69c4.49,0,8.98,0,13.43,0l32.01-18.77Z"/>
        </g>
      </g>
    </g>
  </g>
</svg>