<?xml version="1.0" encoding="UTF-8"?>
<svg id="Capa_2" data-name="Capa 2" xmlns="http://www.w3.org/2000/svg" viewBox="0 0 1440 720">
  <defs>
    <style>
      .cls-1 {
        fill: none;
      }
    </style>
  </defs>
  <g id="Capa_11" data-name="Capa 11">
    <g>
      <rect class="cls-1" width="1440" height="720"/>
      <g>
        <g>
          <g>
            <path d="M571.45,463.57c-2.61-.45-5.66-.88-9.13-1.28-3.47-.41-7.37-.61-11.69-.61-7.66,0-14.26.68-19.81,2.03-5.54,1.35-10.12,3.27-13.72,5.75-3.61,2.48-6.27,5.41-7.98,8.79-1.71,3.38-2.57,7.1-2.57,11.15,0,5.23,1.26,9.55,3.79,12.98,2.52,3.43,5.7,6.29,9.53,8.59,3.83,2.3,7.95,4.15,12.37,5.54,4.41,1.4,8.54,2.73,12.37,3.99,3.83,1.26,7.01,2.55,9.53,3.85,2.52,1.31,3.79,3.04,3.79,5.21,0,1.89-1.24,3.45-3.72,4.66-2.48,1.22-6.92,1.83-13.32,1.83-3.43,0-6.87-.16-10.34-.47-3.47-.31-6.6-.65-9.4-1.01-3.34-.45-6.54-.95-9.6-1.49l-2.7,19.33c2.97.72,6.13,1.35,9.46,1.89,2.88.54,6.24,1.01,10.07,1.42,3.83.41,7.82.61,11.96.61,14.33,0,24.94-2.48,31.84-7.44,6.89-4.96,10.34-11.49,10.34-19.6,0-5.23-1.26-9.55-3.79-12.98-2.52-3.42-5.68-6.29-9.46-8.59-3.79-2.3-7.91-4.17-12.37-5.61-4.46-1.44-8.58-2.79-12.37-4.06-3.79-1.26-6.94-2.59-9.46-3.99-2.52-1.4-3.79-3.18-3.79-5.34,0-.9.27-1.76.81-2.57.54-.81,1.51-1.53,2.91-2.16,1.4-.63,3.29-1.15,5.68-1.55,2.39-.41,5.43-.61,9.13-.61s7.03.16,10.27.47c3.24.32,6.13.65,8.65,1.01,2.97.54,5.72,1.08,8.25,1.62l2.7-19.47c-2.43-.72-5.18-1.35-8.25-1.89h0Z"/>
            <path d="M687.62,462.35h-22.98v36.23h-45.15v-36.23h-22.98v93.29h22.98v-38.94h45.15v38.94h22.98v-93.29Z"/>
            <path d="M733.92,461.94c-4.51,0-8.68.65-12.5,1.96-3.83,1.31-7.12,3.18-9.87,5.61-2.75,2.43-4.91,5.36-6.49,8.79-1.58,3.43-2.37,7.3-2.37,11.63v37.99c0,4.33.79,8.23,2.37,11.69,1.58,3.47,3.74,6.42,6.49,8.86,2.75,2.43,6.04,4.33,9.87,5.68,3.83,1.35,8,2.03,12.5,2.03h28.12c4.51,0,8.67-.68,12.5-2.03,3.83-1.35,7.14-3.24,9.94-5.68,2.79-2.43,4.96-5.38,6.49-8.86,1.53-3.47,2.3-7.37,2.3-11.69v-37.99c0-4.24-.79-8.09-2.37-11.56-1.58-3.47-3.74-6.42-6.49-8.86-2.75-2.43-6.04-4.3-9.87-5.61-3.83-1.31-8.04-1.96-12.64-1.96h-27.98ZM767.52,534.41c-1.85,1.53-4.39,2.3-7.64,2.3h-23.93c-3.16,0-5.66-.76-7.5-2.3-1.85-1.53-2.77-3.79-2.77-6.76v-37.32c0-3.06.92-5.34,2.77-6.83,1.85-1.49,4.35-2.23,7.5-2.23h24.06c3.15,0,5.65.74,7.5,2.23,1.85,1.49,2.77,3.76,2.77,6.83v37.18c0,3.07-.93,5.36-2.77,6.9Z"/>
            <path d="M909.79,462.35l-7.3,32.45-5.41,31.37h-.41l-17.57-63.81h-24.33l-17.57,63.81h-.27l-5.41-31.37-7.3-32.45h-23.25l20.95,93.29h26.9l17.98-60.43,18.25,60.43h27.04l21.36-93.29h-23.66Z"/>
          </g>
          <g>
            <path d="M337.5,417.6c-2.34.36-5,.68-7.98.95-2.97.27-5.9.41-8.79.41-7.03,0-12.64-1.13-16.83-3.38-4.19-2.25-6.29-6.08-6.29-11.49v-25.15c0-5.5,2.03-9.44,6.08-11.83,4.06-2.39,9.6-3.58,16.63-3.58,3.06,0,6.1.16,9.13.47,3.02.32,5.7.7,8.04,1.15,2.79.54,5.5,1.13,8.11,1.76l2.7-19.2c0-.09-.86-.34-2.57-.74-1.71-.41-3.99-.83-6.83-1.28-2.84-.45-6.04-.86-9.6-1.22-3.56-.36-7.23-.54-11.02-.54-6.49,0-12.42.65-17.78,1.96-5.36,1.31-9.96,3.29-13.79,5.95-3.83,2.66-6.81,5.95-8.92,9.87-2.12,3.92-3.18,8.5-3.18,13.72v31.64c0,5.23,1.13,9.8,3.38,13.72,2.25,3.92,5.38,7.21,9.4,9.87,4.01,2.66,8.74,4.64,14.19,5.95,5.45,1.31,11.38,1.96,17.78,1.96,3.96,0,7.68-.2,11.15-.61,3.47-.41,6.51-.88,9.13-1.42,3.15-.54,6.04-1.17,8.65-1.89l-2.7-18.39c-2.62.54-5.32.99-8.11,1.35h0Z"/>
            <path d="M390.3,344.19c-4.51,0-8.68.65-12.51,1.96-3.83,1.31-7.12,3.18-9.87,5.61-2.75,2.43-4.91,5.36-6.49,8.79-1.58,3.43-2.37,7.3-2.37,11.63v37.99c0,4.33.79,8.23,2.37,11.69,1.58,3.47,3.74,6.42,6.49,8.86,2.75,2.43,6.04,4.33,9.87,5.68,3.83,1.35,8,2.03,12.51,2.03h28.12c4.51,0,8.67-.68,12.51-2.03,3.83-1.35,7.14-3.24,9.94-5.68,2.79-2.43,4.96-5.38,6.49-8.86,1.53-3.47,2.3-7.37,2.3-11.69v-37.99c0-4.24-.79-8.09-2.37-11.56-1.58-3.47-3.74-6.42-6.49-8.86-2.75-2.43-6.04-4.3-9.87-5.61-3.83-1.31-8.04-1.96-12.64-1.96h-27.98ZM423.89,416.65c-1.85,1.53-4.39,2.3-7.64,2.3h-23.93c-3.16,0-5.66-.76-7.5-2.3-1.85-1.53-2.77-3.79-2.77-6.76v-37.32c0-3.06.92-5.34,2.77-6.83,1.85-1.49,4.35-2.23,7.5-2.23h24.06c3.15,0,5.65.74,7.5,2.23,1.85,1.49,2.77,3.76,2.77,6.83v37.18c0,3.07-.93,5.36-2.77,6.9Z"/>
            <path d="M555.51,344.59l-32.04,65.03-32.18-65.03h-26.36v93.29h22.98v-24.07l-2.03-36.64,27.17,60.84h20.82l27.04-60.84-2.03,36.64v24.07h22.98v-93.29h-26.36Z"/>
            <path d="M689.54,344.59l-32.04,65.03-32.18-65.03h-26.36v93.29h22.98v-24.07l-2.03-36.64,27.17,60.84h20.82l27.04-60.84-2.03,36.64v24.07h22.98v-93.29h-26.36Z"/>
            <path d="M795.67,344.59v63.27c0,3.52-1.31,6.24-3.92,8.18-2.62,1.94-5.68,2.91-9.19,2.91h-13.79c-3.7,0-6.85-.97-9.46-2.91-2.62-1.94-3.92-4.62-3.92-8.04v-63.41h-22.98v65.57c0,4.06.86,7.8,2.57,11.22,1.71,3.43,4.01,6.35,6.89,8.79,2.88,2.43,6.22,4.33,10,5.68,3.79,1.35,7.79,2.03,12.03,2.03h23.52c4.24,0,8.22-.68,11.96-2.03,3.74-1.35,7.05-3.24,9.94-5.68,2.88-2.43,5.16-5.36,6.83-8.79,1.67-3.42,2.5-7.17,2.5-11.22v-65.57h-22.98Z"/>
            <path d="M905.48,344.59v44.35l1.22,17.31-46.64-61.65h-25.01v93.29h22.98v-46.78l-1.35-17.17,46.78,63.95h25.01v-93.29h-22.98Z"/>
            <path d="M968.89,344.59h-23.12v93.29h23.12v-93.29Z"/>
            <path d="M1046.73,417.6c-2.34.36-5,.68-7.98.95-2.97.27-5.9.41-8.79.41-7.03,0-12.64-1.13-16.83-3.38-4.19-2.25-6.29-6.08-6.29-11.49v-25.15c0-5.5,2.03-9.44,6.08-11.83,4.06-2.39,9.6-3.58,16.63-3.58,3.06,0,6.1.16,9.13.47,3.02.32,5.7.7,8.04,1.15,2.79.54,5.5,1.13,8.11,1.76l2.7-19.2c0-.09-.86-.34-2.57-.74-1.71-.41-3.99-.83-6.83-1.28-2.84-.45-6.04-.86-9.6-1.22-3.56-.36-7.23-.54-11.02-.54-6.49,0-12.42.65-17.78,1.96-5.36,1.31-9.96,3.29-13.79,5.95-3.83,2.66-6.81,5.95-8.92,9.87-2.12,3.92-3.18,8.5-3.18,13.72v31.64c0,5.23,1.13,9.8,3.38,13.72,2.25,3.92,5.38,7.21,9.4,9.87,4.01,2.66,8.74,4.64,14.19,5.95,5.45,1.31,11.38,1.96,17.78,1.96,3.96,0,7.68-.2,11.15-.61,3.47-.41,6.51-.88,9.13-1.42,3.15-.54,6.04-1.17,8.65-1.89l-2.7-18.39c-2.62.54-5.32.99-8.11,1.35h0Z"/>
            <path d="M1096.01,423.01h40.96l3.51,14.87h24.87l-23.79-93.42h-28.8c-3.16,0-6.17.5-9.06,1.49-2.89.99-5.5,2.39-7.84,4.19-2.34,1.8-4.35,3.97-6.02,6.49-1.67,2.52-2.91,5.32-3.72,8.38l-18.39,72.87h24.87l3.38-14.87ZM1106.42,373.52c.45-1.8,1.4-3.24,2.84-4.33,1.44-1.08,3.06-1.62,4.87-1.62h10.54l9.19,39.21h-34.74l7.3-33.26Z"/>
          </g>
          <g>
            <path d="M479.77,315.74c-.57.09-1.21.16-1.92.23-.72.07-1.42.1-2.12.1-1.7,0-3.05-.27-4.06-.82-1.01-.54-1.52-1.47-1.52-2.77v-6.07c0-1.33.49-2.28,1.47-2.85.98-.58,2.31-.86,4.01-.86.74,0,1.47.04,2.2.11.73.08,1.37.17,1.94.28.67.13,1.33.27,1.96.42l.65-4.63s-.21-.08-.62-.18c-.41-.1-.96-.2-1.65-.31-.68-.11-1.46-.21-2.31-.29-.86-.09-1.74-.13-2.66-.13-1.57,0-2.99.16-4.29.47-1.29.32-2.4.79-3.33,1.43-.92.64-1.64,1.43-2.15,2.38-.51.95-.77,2.05-.77,3.31v7.63c0,1.26.27,2.36.82,3.31.54.95,1.3,1.74,2.27,2.38.97.64,2.11,1.12,3.42,1.43,1.31.31,2.74.47,4.29.47.96,0,1.85-.05,2.69-.15.84-.1,1.57-.21,2.2-.34.76-.13,1.46-.28,2.09-.46l-.65-4.43c-.63.13-1.28.24-1.96.33h0Z"/>
            <path d="M491.65,317.05h9.88l.85,3.59h6l-5.74-22.53h-6.95c-.76,0-1.49.12-2.18.36-.7.24-1.33.58-1.89,1.01-.57.44-1.05.96-1.45,1.57-.4.61-.7,1.28-.9,2.02l-4.43,17.58h6l.82-3.59ZM494.16,305.11c.11-.43.34-.78.68-1.04.35-.26.74-.39,1.17-.39h2.54l2.22,9.46h-8.38l1.76-8.02Z"/>
            <path d="M511.4,298.14v22.5h5.54v-7.11h5.71c.43,0,.85.07,1.24.21.39.14.74.38,1.04.7.3.33.55.76.73,1.29.18.53.28,1.2.28,2.01v2.9h5.31v-3.59c0-1.11-.22-2.07-.67-2.89-.45-.82-1.03-1.51-1.74-2.07.76-.54,1.36-1.23,1.81-2.07.45-.84.66-1.84.64-3.02v-2.32c0-1.04-.18-1.97-.54-2.79-.36-.82-.86-1.5-1.52-2.05s-1.43-.98-2.33-1.27c-.9-.29-1.9-.44-2.98-.44h-12.52ZM523.44,308.96h-6.49v-6.26h6.49c.76,0,1.34.14,1.73.42.39.28.59.8.59,1.57v2.15c0,1.41-.77,2.12-2.31,2.12h0Z"/>
            <path d="M540.51,316.07v-17.93h-5.54v22.5h17.77v-4.57h-12.23Z"/>
            <path d="M562.45,298.04c-1.09,0-2.09.16-3.02.47-.92.32-1.72.77-2.38,1.35-.66.59-1.19,1.29-1.57,2.12-.38.83-.57,1.76-.57,2.8v9.16c0,1.04.19,1.98.57,2.82.38.84.9,1.55,1.57,2.14.66.59,1.46,1.04,2.38,1.37.92.33,1.93.49,3.02.49h6.78c1.09,0,2.09-.16,3.02-.49.92-.33,1.72-.78,2.4-1.37.67-.59,1.2-1.3,1.57-2.14.37-.84.55-1.78.55-2.82v-9.16c0-1.02-.19-1.95-.57-2.79-.38-.84-.9-1.55-1.57-2.14-.66-.59-1.46-1.04-2.38-1.35-.92-.31-1.94-.47-3.05-.47h-6.75ZM570.55,315.52c-.45.37-1.06.55-1.84.55h-5.77c-.76,0-1.36-.18-1.81-.55-.45-.37-.67-.91-.67-1.63v-9c0-.74.22-1.29.67-1.65.45-.36,1.05-.54,1.81-.54h5.8c.76,0,1.36.18,1.81.54.45.36.67.91.67,1.65v8.97c0,.74-.22,1.29-.67,1.66Z"/>
            <path d="M595.48,298.43c-.63-.11-1.36-.21-2.2-.31-.84-.1-1.78-.15-2.82-.15-1.85,0-3.44.16-4.78.49-1.34.33-2.44.79-3.31,1.39-.87.6-1.51,1.3-1.92,2.12-.41.82-.62,1.71-.62,2.69,0,1.26.3,2.3.91,3.13.61.83,1.37,1.52,2.3,2.07.92.55,1.92,1,2.98,1.34,1.06.34,2.06.66,2.98.96.92.3,1.69.61,2.3.93.61.32.91.73.91,1.26,0,.46-.3.83-.9,1.13-.6.29-1.67.44-3.21.44-.83,0-1.66-.04-2.49-.11-.84-.08-1.59-.16-2.27-.24-.8-.11-1.58-.23-2.31-.36l-.65,4.66c.72.17,1.48.33,2.28.46.7.13,1.51.24,2.43.34.92.1,1.89.15,2.89.15,3.46,0,6.02-.6,7.68-1.79,1.66-1.2,2.49-2.77,2.49-4.73,0-1.26-.3-2.3-.91-3.13-.61-.83-1.37-1.52-2.28-2.07-.91-.55-1.91-1.01-2.98-1.35-1.08-.35-2.07-.67-2.98-.98-.91-.3-1.67-.62-2.28-.96-.61-.34-.91-.77-.91-1.29,0-.22.07-.42.2-.62s.36-.37.7-.52c.34-.15.79-.28,1.37-.38.58-.1,1.31-.15,2.2-.15s1.7.04,2.48.11c.78.08,1.48.16,2.09.24.72.13,1.38.26,1.99.39l.65-4.7c-.59-.17-1.25-.33-1.99-.46h0Z"/>
            <path d="M634.31,298.14l-7.73,15.68-7.76-15.68h-6.36v22.5h5.54v-5.8l-.49-8.84,6.55,14.67h5.02l6.52-14.67-.49,8.84v5.8h5.54v-22.5h-6.36Z"/>
            <path d="M650.53,317.05h9.88l.85,3.59h6l-5.74-22.53h-6.95c-.76,0-1.49.12-2.18.36-.7.24-1.33.58-1.89,1.01-.57.44-1.05.96-1.45,1.57-.4.61-.7,1.28-.9,2.02l-4.43,17.58h6l.82-3.59ZM653.04,305.11c.11-.43.34-.78.68-1.04.35-.26.74-.39,1.17-.39h2.54l2.22,9.46h-8.38l1.76-8.02Z"/>
            <path d="M684.73,298.14v15.26c0,.85-.32,1.51-.95,1.97-.63.47-1.37.7-2.22.7h-3.33c-.89,0-1.65-.23-2.28-.7-.63-.47-.95-1.11-.95-1.94v-15.29h-5.54v15.82c0,.98.21,1.88.62,2.71.41.83.97,1.53,1.66,2.12.7.59,1.5,1.04,2.41,1.37s1.88.49,2.9.49h5.67c1.02,0,1.98-.16,2.89-.49.9-.33,1.7-.78,2.4-1.37.7-.59,1.24-1.29,1.65-2.12.4-.83.6-1.73.6-2.71v-15.82h-5.54Z"/>
            <path d="M694.23,298.14v22.5h5.54v-7.11h5.71c.43,0,.85.07,1.24.21.39.14.74.38,1.04.7.3.33.55.76.73,1.29.18.53.28,1.2.28,2.01v2.9h5.31v-3.59c0-1.11-.22-2.07-.67-2.89-.45-.82-1.03-1.51-1.74-2.07.76-.54,1.36-1.23,1.81-2.07.45-.84.66-1.84.64-3.02v-2.32c0-1.04-.18-1.97-.54-2.79-.36-.82-.86-1.5-1.52-2.05-.65-.55-1.43-.98-2.33-1.27-.9-.29-1.9-.44-2.98-.44h-12.52ZM706.26,308.96h-6.49v-6.26h6.49c.76,0,1.34.14,1.73.42.39.28.59.8.59,1.57v2.15c0,1.41-.77,2.12-2.31,2.12h0Z"/>
            <path d="M723.39,298.14h-5.58v22.5h5.58v-22.5Z"/>
            <path d="M742.16,315.74c-.57.09-1.21.16-1.92.23-.72.07-1.42.1-2.12.1-1.7,0-3.05-.27-4.06-.82-1.01-.54-1.52-1.47-1.52-2.77v-6.07c0-1.33.49-2.28,1.47-2.85.98-.58,2.31-.86,4.01-.86.74,0,1.47.04,2.2.11.73.08,1.37.17,1.94.28.67.13,1.33.27,1.96.42l.65-4.63s-.21-.08-.62-.18c-.41-.1-.96-.2-1.65-.31-.68-.11-1.46-.21-2.31-.29-.86-.09-1.74-.13-2.66-.13-1.57,0-2.99.16-4.29.47-1.29.32-2.4.79-3.33,1.43-.92.64-1.64,1.43-2.15,2.38-.51.95-.77,2.05-.77,3.31v7.63c0,1.26.27,2.36.82,3.31.54.95,1.3,1.74,2.27,2.38.97.64,2.11,1.12,3.42,1.43,1.31.31,2.74.47,4.29.47.96,0,1.85-.05,2.69-.15.84-.1,1.57-.21,2.2-.34.76-.13,1.46-.28,2.09-.46l-.65-4.43c-.63.13-1.28.24-1.96.33h0Z"/>
            <path d="M753.55,298.14h-5.58v22.5h5.58v-22.5Z"/>
            <path d="M764.77,298.04c-1.09,0-2.09.16-3.02.47-.92.32-1.72.77-2.38,1.35-.66.59-1.18,1.29-1.57,2.12-.38.83-.57,1.76-.57,2.8v9.16c0,1.04.19,1.98.57,2.82.38.84.9,1.55,1.57,2.14.66.59,1.46,1.04,2.38,1.37.92.33,1.93.49,3.02.49h6.78c1.09,0,2.09-.16,3.02-.49.92-.33,1.72-.78,2.4-1.37.67-.59,1.2-1.3,1.57-2.14.37-.84.55-1.78.55-2.82v-9.16c0-1.02-.19-1.95-.57-2.79-.38-.84-.9-1.55-1.57-2.14-.66-.59-1.46-1.04-2.38-1.35-.92-.31-1.94-.47-3.05-.47h-6.75ZM772.87,315.52c-.45.37-1.06.55-1.84.55h-5.77c-.76,0-1.36-.18-1.81-.55-.45-.37-.67-.91-.67-1.63v-9c0-.74.22-1.29.67-1.65.45-.36,1.05-.54,1.81-.54h5.8c.76,0,1.36.18,1.81.54.45.36.67.91.67,1.65v8.97c0,.74-.22,1.29-.67,1.66Z"/>
            <path d="M793.72,298.14v22.5h5.54v-7.11h5.71c.43,0,.85.07,1.24.21.39.14.74.38,1.04.7.3.33.55.76.73,1.29.18.53.28,1.2.28,2.01v2.9h5.31v-3.59c0-1.11-.22-2.07-.67-2.89-.45-.82-1.03-1.51-1.74-2.07.76-.54,1.36-1.23,1.81-2.07.45-.84.66-1.84.64-3.02v-2.32c0-1.04-.18-1.97-.54-2.79-.36-.82-.86-1.5-1.52-2.05-.65-.55-1.43-.98-2.33-1.27-.9-.29-1.9-.44-2.98-.44h-12.52ZM805.75,308.96h-6.49v-6.26h6.49c.76,0,1.34.14,1.73.42.39.28.59.8.59,1.57v2.15c0,1.41-.77,2.12-2.31,2.12h0Z"/>
            <path d="M823.21,317.05h9.88l.85,3.59h6l-5.74-22.53h-6.95c-.76,0-1.49.12-2.18.36-.7.24-1.33.58-1.89,1.01-.57.44-1.05.96-1.45,1.57-.4.61-.7,1.28-.9,2.02l-4.43,17.58h6l.82-3.59ZM825.72,305.11c.11-.43.34-.78.68-1.04.35-.26.74-.39,1.17-.39h2.54l2.22,9.46h-8.38l1.76-8.02Z"/>
            <path d="M864.81,298.14l-7.73,15.68-7.76-15.68h-6.36v22.5h5.54v-5.8l-.49-8.84,6.55,14.67h5.02l6.52-14.67-.49,8.84v5.8h5.54v-22.5h-6.36Z"/>
            <path d="M876.16,290.8l-1.63,4.57h4.73l2.45-4.57h-5.54ZM875.35,298.14v22.5h5.54v-22.5h-5.54Z"/>
            <path d="M885.01,298.14v22.5h5.54v-7.11h5.71c.43,0,.85.07,1.24.21.39.14.74.38,1.04.7.3.33.55.76.73,1.29.18.53.28,1.2.28,2.01v2.9h5.31v-3.59c0-1.11-.22-2.07-.67-2.89-.45-.82-1.03-1.51-1.74-2.07.76-.54,1.36-1.23,1.81-2.07.45-.84.66-1.84.64-3.02v-2.32c0-1.04-.18-1.97-.54-2.79-.36-.82-.86-1.5-1.52-2.05-.65-.55-1.43-.98-2.33-1.27-.9-.29-1.9-.44-2.98-.44h-12.52ZM897.04,308.96h-6.49v-6.26h6.49c.76,0,1.34.14,1.73.42.39.28.59.8.59,1.57v2.15c0,1.41-.77,2.12-2.32,2.12h0Z"/>
            <path d="M926.34,302.7v-4.57h-17.77v22.5h17.77v-4.57h-12.23v-4.5h12.23v-4.4h-12.23v-4.47h12.23Z"/>
            <path d="M947.16,298.14h-17.77v4.57h11.41l-11.41,13.47v4.47h17.77v-4.57h-11.38l11.38-13.79v-4.14Z"/>
            <path d="M953.06,305.47l1.96-7.34h-4.56l-.65,7.34h3.26Z"/>
            <path d="M972.72,298.43c-.63-.11-1.36-.21-2.2-.31-.84-.1-1.78-.15-2.82-.15-1.85,0-3.44.16-4.78.49-1.34.33-2.44.79-3.31,1.39-.87.6-1.51,1.3-1.92,2.12-.41.82-.62,1.71-.62,2.69,0,1.26.3,2.3.91,3.13.61.83,1.37,1.52,2.3,2.07.92.55,1.92,1,2.98,1.34,1.06.34,2.06.66,2.98.96.92.3,1.69.61,2.3.93.61.32.91.73.91,1.26,0,.46-.3.83-.9,1.13-.6.29-1.67.44-3.21.44-.83,0-1.66-.04-2.49-.11-.84-.08-1.59-.16-2.27-.24-.8-.11-1.58-.23-2.32-.36l-.65,4.66c.72.17,1.48.33,2.28.46.7.13,1.51.24,2.43.34.92.1,1.89.15,2.89.15,3.46,0,6.02-.6,7.68-1.79,1.66-1.2,2.49-2.77,2.49-4.73,0-1.26-.3-2.3-.91-3.13-.61-.83-1.37-1.52-2.28-2.07-.91-.55-1.91-1.01-2.98-1.35-1.08-.35-2.07-.67-2.98-.98-.91-.3-1.67-.62-2.28-.96-.61-.34-.91-.77-.91-1.29,0-.22.07-.42.2-.62s.36-.37.7-.52c.34-.15.79-.28,1.37-.38.58-.1,1.31-.15,2.2-.15s1.7.04,2.48.11c.78.08,1.48.16,2.09.24.72.13,1.38.26,1.99.39l.65-4.7c-.59-.17-1.25-.33-1.99-.46h0Z"/>
          </g>
        </g>
        <g>
          <path class="cls-1" d="M792.34,203.39c0,6.67-.9,13.14-2.6,19.27l-14.32.89-2.82.17-24.84,1.54c-.19-.82-.38-1.67-.55-2.53-.41-2.04-.75-4.18-1.03-6.4-.51-4.07-.78-8.42-.78-12.94s.27-8.87.78-12.94c.28-2.22.62-4.36,1.03-6.4.17-.86.36-1.7.55-2.53l24.84,1.54,2.82.17,14.32.89c1.69,6.14,2.6,12.6,2.6,19.27Z"/>
          <path class="cls-1" d="M745.02,225.43s0,.03.01.05c-1.47,1.67-3.11,3.19-4.89,4.54-5.28,4-11.78,6.47-18.85,6.74,3.86-7.64,6.35-19.74,6.35-33.36s-2.49-25.73-6.35-33.36c7.07.27,13.57,2.74,18.85,6.74,1.78,1.34,3.42,2.87,4.89,4.54,0,.02,0,.03-.01.05-.26,1.09-.5,2.21-.72,3.37-1.08,5.62-1.68,11.96-1.68,18.67s.6,13.05,1.68,18.67c.22,1.15.46,2.28.72,3.37Z"/>
          <path class="cls-1" d="M723.48,203.39c0,13.57-2.47,25.63-6.3,33.27-6.79-.57-13.01-3.17-18.03-7.2-2.11-1.69-4.01-3.63-5.65-5.78h0c-4.31-5.63-6.88-12.66-6.88-20.3s2.56-14.67,6.88-20.3h0c1.64-2.15,3.54-4.09,5.65-5.78,5.03-4.03,11.24-6.63,18.03-7.2,3.83,7.64,6.3,19.7,6.3,33.27Z"/>
          <path d="M772.61,223.72l-24.84,1.54c-.19-.82-.38-1.67-.55-2.53-.41-2.04-.75-4.18-1.03-6.4-.51-4.07-.78-8.42-.78-12.94s.27-8.87.78-12.94c.28-2.22.62-4.36,1.03-6.4.17-.86.36-1.7.55-2.53l24.84,1.54,2.82.17,14.32.89c-.81-2.93-1.79-5.78-2.95-8.55-10.9-26.14-36.7-44.52-66.8-44.52-39.95,0-72.34,32.39-72.34,72.34s32.39,72.34,72.34,72.34c30.09,0,55.9-18.38,66.8-44.52,1.15-2.77,2.14-5.62,2.95-8.55l-14.32.89-2.82.17ZM717.18,236.66c-6.79-.57-13.01-3.17-18.03-7.2-2.11-1.69-4.01-3.63-5.65-5.78h0c-4.31-5.63-6.88-12.66-6.88-20.3s2.56-14.67,6.88-20.3h0c1.64-2.15,3.54-4.09,5.65-5.78,5.03-4.03,11.24-6.63,18.03-7.2,3.83,7.64,6.3,19.7,6.3,33.27s-2.47,25.63-6.3,33.27ZM740.15,230.01c-5.28,4-11.78,6.47-18.85,6.74,3.86-7.64,6.35-19.74,6.35-33.36s-2.49-25.73-6.35-33.36c7.07.27,13.57,2.74,18.85,6.74,1.78,1.34,3.42,2.87,4.89,4.54,0,.02,0,.03-.01.05-.26,1.09-.5,2.21-.72,3.37-1.08,5.62-1.68,11.96-1.68,18.67s.6,13.05,1.68,18.67c.22,1.15.46,2.28.72,3.37,0,.02,0,.03.01.05-1.47,1.67-3.11,3.19-4.89,4.54Z"/>
        </g>
      </g>
    </g>
  </g>
</svg>