<?xml version="1.0" encoding="UTF-8"?>
<svg id="Capa_2" data-name="Capa 2" xmlns="http://www.w3.org/2000/svg" viewBox="0 0 1440 720">
  <defs>
    <style>
      .cls-1 {
        fill: none;
      }
    </style>
  </defs>
  <g id="Capa_7" data-name="Capa 7">
    <g>
      <rect class="cls-1" width="1440" height="720"/>
      <g>
        <g>
          <g>
            <path d="M1106.8,445.92c5-14.34,9.96-28.69,15.02-43.01.81-2.29,1.78-4.58,3.07-6.62,7.84-12.43,16.3-24.42,25.82-35.63,8.94-10.54,18.64-20.3,29.7-28.64,2.66-2.01,5.52-3.79,8.4-5.49,2.56-1.51,5.37-2.48,8.31-3.02,1.67-.31,3.32-.34,4.95.23,3.03,1.06,4.37,3.12,3.68,6.25-.55,2.5-1.32,4.98-2.21,7.39-6.96,18.97-14,37.91-20.95,56.88-3.14,8.58-6.19,17.19-9.18,25.82-1.26,3.65-1.93,7.45-2.24,11.33-.53,6.55,2.17,11.48,7.25,15.3,3.47,2.61,7.44,4.03,11.68,4.79,9.2,1.65,18.2.82,27.07-2.02,9.09-2.91,17.07-7.79,24.42-13.76,8.65-7.02,15.99-15.3,22.74-24.12.29-.38.41-.89.67-1.44-2.71-1.44-5.15-3.07-8.19-3.79-1.41,1.59-2.76,3.14-4.14,4.66-2.77,3.05-5.5,6.14-8.36,9.11-2.51,2.6-5.31,4.88-8.41,6.76-.77.46-1.53.99-2.37,1.28-4.15,1.42-7.51-1.52-6.75-5.84.72-4.09,2.21-7.93,3.66-11.78,6.93-18.43,13.93-36.84,20.86-55.27,2.9-7.71,5.79-15.42,8.48-23.2,1.9-5.5,2.94-11.18,2.9-17.05-.06-7.82-3.4-13.87-9.73-18.32-4.77-3.36-10.13-4.98-15.93-5.18-5.32-.18-10.53.59-15.67,1.89-9.09,2.29-17.42,6.26-25.19,11.45-8.91,5.96-17.26,12.62-24.88,20.15-4.85,4.8-9.58,9.73-14.15,14.79-5.7,6.31-11.16,12.82-16.76,19.22-.8.92-1.38,2.12-3.19,2.75,2.11-6.22,4.31-11.95,6.4-17.72,2.1-5.81,4.23-11.61,6.34-17.41,2.11-5.8,4.25-11.6,6.34-17.41,2.08-5.79,4.36-11.51,6.17-17.33-.46-.28-.67-.52-.88-.52-5.15.04-10.32-.18-15.44.26-6.15.52-12.25,1.6-18.37,2.44-10.71,1.46-21.43,2.92-32.14,4.38-5.86.8-11.72,1.63-17.59,2.44-1.02,2.15-2.16,4.12-2.17,6.66,2.48.08,4.79.11,7.09.24,2.97.17,5.91.56,8.69,1.65,3.95,1.55,5.67,4.26,5.29,8.41-.2,2.17-.47,4.37-1.05,6.47-1.31,4.71-2.64,9.42-4.29,14.02-6.42,17.8-12.96,35.55-19.48,53.31-6.6,18-13.22,36-19.82,54-.43,1.17-1.16,2.3-.86,3.7.4.12.75.33,1.11.33,17.51.02,35.01.01,52.9.01.5-1.37.96-2.57,1.38-3.78Z"/>
            <g>
              <path d="M1039.47,289.57c-5,.35-9.95,1.29-14.93,1.91-15.33,1.92-30.66,3.8-45.98,5.72-2.15.27-4.29.64-6.46.97-.9,2.2-2.24,4.09-2.23,6.76,1.72,0,3.25-.07,4.78.02,2.44.13,4.88.28,7.3.57,2.2.27,4.24,1.13,6.03,2.44,3.04,2.23,4.47,5.08,3.84,9.01-.89,5.5-2.54,10.76-4.45,15.96-6.77,18.49-13.57,36.96-20.35,55.45-3.32,9.06-6.65,18.12-9.94,27.19-1.59,4.37-2.78,8.81-3.01,13.51-.36,7.51,2.81,13.18,8.76,17.46,2.85,2.05,6.03,3.45,9.42,4.33,9.08,2.35,18.13,1.89,27.11-.44,10.01-2.6,18.83-7.55,26.88-13.96,9.85-7.84,18.13-17.15,25.51-27.29.34-.47.53-1.06.89-1.83-2.42-1.16-4.59-2.2-7.05-3.38-2.76,3.14-5.19,5.96-7.67,8.74-4.21,4.72-8.7,9.15-13.85,12.84-1.66,1.19-3.46,2.25-5.34,3.03-1.25.52-2.76.66-4.13.58-2.71-.16-6.04-3.38-4.98-6.52.66-1.94.89-4.02,1.52-5.97,1.18-3.67,2.46-7.32,3.78-10.95,13.6-37.5,27.22-74.99,40.83-112.49.43-1.19.79-2.4,1.17-3.56-.41-.23-.63-.46-.84-.46-5.53.07-11.08-.05-16.59.33Z"/>
              <path d="M1069.34,250.82c-5.37,5.63-12.13,8.66-19.74,9.69-7.01.96-13.87.16-20.4-2.78-3.8-1.71-7.18-4.02-10.06-7.05-7.97-8.36-8.36-20.69-.86-29.5,4.41-5.18,10.07-8.39,16.65-9.88,2.99-.68,6.1-.84,9.16-1.23,8.29.13,15.82,2.3,22.35,7.49,4.03,3.21,7.09,7.17,8.38,12.21,2.04,7.97.22,15.08-5.48,21.05Z"/>
            </g>
            <path d="M843.82,445.86c2.11-6.48,4.12-13,6.28-19.47,3.83-11.49,8.01-22.85,13.88-33.47,5.48-9.91,11.17-19.71,17-29.41,2.98-4.95,6.38-9.67,9.79-14.35,3.65-5.01,7.9-9.51,12.85-13.28,1.43-1.09,2.93-2.13,4.54-2.9,4.28-2.06,7.24-1.37,10.27,2.23.74.88,1.39,1.85,2.07,2.79.75,1.04,1.47,2.11,2.24,3.15,2.63,3.55,6.24,5.24,10.57,5.57,5.44.42,10.18-1.21,14.1-5.01,9.43-9.15,12.92-20.46,11.95-33.33-.12-1.53-.36-3.1-.87-4.53-2.62-7.26-7.92-11.22-15.51-12.09-7.66-.88-14.84.74-21.53,4.56-4.17,2.38-7.98,5.25-11.26,8.73-3.61,3.84-7.15,7.78-10.42,11.9-9.21,11.62-17.34,24-25.1,36.61-5.19,8.44-10.17,17.02-15.28,25.51-.58.97-.87,2.23-2.39,2.93.48-1.51.85-2.72,1.26-3.93,3.84-11.47,7.67-22.94,11.55-34.4,5.41-15.96,10.87-31.91,16.28-47.87.43-1.28,1.17-2.55,1.01-3.97-3.79-.79-10.47-.97-14.32-.32-17.89,3.02-35.77,6.07-53.66,9.12-2.91.49-5.81,1.01-8.73,1.52-.89,1.65-1.71,3.16-1.74,5.18,1.67.05,3.08,0,4.47.14,2.94.28,5.95.33,8.79,1.05,6.1,1.54,9.04,5.87,8.22,12.05-.48,3.55-1.26,7.11-2.31,10.53-5.28,17.22-10.67,34.4-16.06,51.59-6.54,20.87-13.13,41.73-19.67,62.6-.41,1.3-1.19,2.57-.81,3.98.33.16.55.35.78.36,16.35.13,32.7.25,49.05.35.37,0,.73-.14,1.17-.24.91-1.14,1.12-2.57,1.55-3.89Z"/>
            <path d="M708.42,318.6c-9.02,24.52-18.07,49.02-27.06,73.55-2.66,7.25-5.28,14.51-7.68,21.85-1.77,5.39-2.84,10.95-2.97,16.67-.15,6.42,2.46,11.45,7.44,15.36,3.41,2.67,7.3,4.32,11.51,5.21,7.14,1.51,14.33,1.58,21.51.38,15.12-2.52,28.34-9.07,39.87-19.11,6.05-5.26,11.34-11.23,16.13-17.65.43-.57.72-1.25,1.16-2.02-2.52-1.48-4.78-2.89-7.51-3.75-1.09,1.16-2.14,2.28-3.19,3.41-5.09,5.49-10.39,10.73-16.46,15.15-2.19,1.6-4.44,3.14-7.09,3.84-1.34.35-2.8.58-4.17.46-3.23-.29-5.36-2.84-5.18-6.07.09-1.53.31-3.09.73-4.56,1.01-3.45,2.08-6.9,3.3-10.28,11.26-31.09,22.56-62.18,33.86-93.26.47-1.31,1.01-2.59,1.58-4.04,4.68,0,9.17.03,13.67,0,4.49-.04,8.98.17,13.37-.14,1.78-3.13,6.71-16.14,7.28-19.16-.97-.87-2.19-.51-3.29-.52-6.83-.04-13.65-.01-20.48-.04-.97,0-1.94-.19-3.2-.32.58-1.76,1.02-3.23,1.55-4.66,4.64-12.55,9.29-25.1,13.93-37.66.43-1.17,1.2-2.29.79-3.88-2.16-.04-4.34,0-6.52-.13-2.73-.17-4.87.74-6.98,2.55-7.13,6.12-14.34,12.16-21.72,17.98-11.67,9.22-24.33,16.85-38.08,22.6-7.96,3.33-16.07,6.25-24.33,8.76-1.46.44-2.91.97-4.39,1.47-1.49,4.06-3.03,7.96-4.05,12.19,1.62.7,3.18.62,4.69.64,6.44.08,12.88.09,19.32.14,1.27,0,2.54.07,4.33.12-.69,2.03-1.16,3.48-1.69,4.92Z"/>
            <path d="M624.56,401.58c7.46-20.57,15.08-41.08,22.64-61.61,5.43-14.73,10.86-29.46,16.25-44.21.43-1.17,1.24-2.3.85-3.74-.34-.1-.7-.3-1.05-.29-16.21.6-32.42,1.22-48.78,1.84-2.92,6.36-4.73,13.06-7.7,19.8-.47-1.1-.79-1.78-1.04-2.48-.79-2.18-1.46-4.4-2.34-6.54-3.47-8.43-9.81-13.3-18.73-14.94-6.83-1.26-13.6-.8-20.34.51-8.8,1.7-17.04,4.94-24.89,9.22-34.89,19.04-57.83,48.12-71.09,85.17-3.72,10.38-5.43,21.19-4.11,32.3.96,8.06,3.61,15.5,8.15,22.26,3.91,5.82,9.25,9.59,15.95,11.48,8.25,2.33,16.56,2.16,24.84.28,8.18-1.86,15.34-5.89,22.05-10.78,5.63-4.11,10.83-8.73,15.79-13.61,7.55-7.42,14.38-15.46,20.86-23.81.77-1,1.6-1.96,2.41-2.94l.41.2c-.16.69-.24,1.41-.48,2.07-1.72,4.71-3.59,9.38-5.19,14.13-1.47,4.39-2.94,8.81-3.94,13.32-2.56,11.58,3.06,18.33,12.43,21.62.61.21,1.23.42,1.86.5,3.19.41,6.37,1.07,9.57,1.11,16.11.18,30.68-4.59,43.68-14.1,10.2-7.46,18.38-16.85,25.5-27.22.19-.28.17-.7.32-1.36-2.37-.97-4.6-2.16-7.12-2.81-.66.6-1.26,1.08-1.78,1.63-2.03,2.16-3.95,4.43-6.05,6.5-2.65,2.62-5.36,5.2-8.21,7.6-2.78,2.34-6.04,3.95-9.56,4.89-4.89,1.3-8.52-2.33-7.09-7.21,1.84-6.3,3.7-12.6,5.93-18.77ZM596.11,329.71c-.88,8.64-3.07,16.96-6.43,24.95-8.46,20.14-19.89,38.34-35.53,53.74-3.12,3.08-6.41,5.97-10.2,8.22-3.24,1.92-6.67,3.34-10.48,3.63-6.16.47-11.05-2.9-12.82-8.83-.94-3.13-.86-6.36-.89-9.47.1-8.55,1.87-16.72,4.33-24.73,1.43-4.67,3.1-9.27,4.96-13.79,5.6-13.6,12.58-26.49,20.63-38.79,4.03-6.16,8.6-11.88,14-16.92,3.13-2.92,6.57-5.37,10.62-6.87,2.44-.91,4.93-1.45,7.55-1.27,4.53.31,8.11,2.25,10.61,6.1,1.57,2.42,2.49,5.09,3.04,7.88,1.04,5.34,1.15,10.74.59,16.15Z"/>
          </g>
          <g>
            <g>
              <path d="M309.07,403.59c-3.26.96-8.65,2.5-17.82,2.5-3.34.04-7.15,0-10.06-1.79-9.38,6.93-20.85,7.37-31.18,4.11-.94.54-1.95,1.19-3,1.85-3.95,2.53-8.87,5.68-15.15,6.19-1.01.09-2.01.14-2.97.14-1.99,0-3.72-.2-5.28-.62-.97-.26-1.87-.61-2.72-1.04-1.32,3.55-2.64,7.1-3.95,10.65-4.28,11.6-8.16,23.27-12.38,34.89-2.98,8.18-6.34,16.3-9.33,24.48-5.9,16.17-11.34,32.44-19.02,48.24-2.05,4.21-1.53,6.37,1.62,8.91,3.09,2.49,6.74,3.96,11.15,3.92,13.15-.09,26.3-.1,39.48-.37,3.85-.08,7.84-.6,11.75-1.43,18.41-3.92,32.2-19.51,34.49-31.91.21-1.15.66-2.31,1.08-3.45,2.77-7.41,5.67-14.8,8.31-22.23,5.23-14.68,10.23-29.39,15.49-44.06,4.23-11.79,8.57-23.56,12.89-35.34-1.27-1.42-2.32-2.57-3.19-3.42-.08-.08-.16-.16-.23-.23Z"/>
              <path d="M280.83,306.04c1.57,1.01,2.84,2.06,3.87,1.99,4.39.57,9.51-.11,13.99-.2,21.85-.04,23.15,15.5,43.28-.66,4.15-2.98,8.32-6.01,12.48-9.04,3.8-9.61,7.63-19.21,11.54-28.8,10.48-25.66,20.41-51.48,33.13-76.59,2.91-5.74,2.37-10.64-.19-15.19-1.47-2.61-3.64-4.22-7.16-3.92-1.76.15-3.48-.05-5.24.15-10.44,1.14-20.6.77-30.81.6-4.81-.08-9.65-.11-14.53.24-13.52.95-25.22,7.41-35.45,17.6-2.21,2.21-3.98,4.93-5.64,7.57-3.6,5.71-5.98,11.79-7.86,17.95-3.22,10.56-6.57,21.07-10.74,31.5-4.22,10.58-7.79,21.31-11.67,31.97-2.42,6.66-4.86,13.31-7.29,19.97,1.34-.27,2.69-.4,4.01-.4,6.47,0,10.98,3.05,14.26,5.28Z"/>
            </g>
            <path d="M602.37,173.27c16,0,33.26,4.74,17.28,20.09-19.98,7.19-38.96,17.9-57,30.62-34.77,22.82-66.45,49.88-97.32,77.89-14.53,12.65-29.68,26.55-39.07,42.8-3.62,12.68-4.63,25.14-9.14,37.6.17,9.8,9.2,16.06,13.47,23.89,4.16,10.12,10.47,18.83,17.36,26.99,15.62,18.98,28.81,39.83,45.93,57.53,11.18,10.69,21.73,22.16,35.04,30.59,8.15,2.58,13.62,12.21,4.12,20.35-4.01,3.04-9.49,2.84-13.82,4.19-83.93-2.58-141.53-82.93-190.26-134.75-6.12-7.2-9.91-11.68-12.62-14.36-2.72-2.7-4.34-3.57-6.11-3.57-3.24,0-6.98,2.95-18.98,2.95-1.26,0-2.62-.03-4.07-.1-2.35-.55-3.95-3.12-6.26-3.12-.87,0-1.84.37-2.99,1.35-5.62,4.69-10.55,6.21-15.33,6.21-4.45,0-8.77-1.32-13.37-2.63-6.3,2.06-11.63,8.19-18.22,8.69-.59.06-1.34.1-2.11.1-1.87,0-3.92-.28-4.34-1.41,5.08-13.52,10.19-27.04,15.19-40.57,4.77-12.93,9.2-25.93,13.87-38.88,1.64-4.55,3.29-9.1,4.95-13.64,1.34-.71,3.75-.06,5.08-.9,1.04-.29,2.01-.41,2.92-.41,6.77,0,10.39,6.99,17.4,7.25,1.61.18,3.19.23,4.77.23,1.75,0,3.5-.07,5.28-.1,1.66-.22,3.21-.31,4.67-.31,12.38,0,18.2,6.94,27.57,6.94,5.35,0,11.86-2.26,21.41-9.37.05-.04.1-.07.15-.11,40.35-29.01,80.09-59.99,122.35-86.05,36.75-23.64,75.54-45.55,116.01-54.13,3.8-1.11,9.9-1.85,16.2-1.85"/>
          </g>
        </g>
        <g>
          <path d="M604.56,526.45h-9.98v-39.5h29.33v8.11h-19.34v9.05h18.09v8.11h-18.09v14.23Z"/>
          <path d="M656.75,526.45h-9.98v-39.5h9.98v39.5Z"/>
          <path d="M681.53,516.28c1.83.62,3.84,1.11,6.02,1.47,2.18.35,4.36.53,6.52.53,2.95,0,5.15-.13,6.58-.41,1.43-.27,2.38-.7,2.84-1.28.46-.58.69-1.33.69-2.25,0-.79-.17-1.41-.5-1.87-.33-.46-.98-.82-1.93-1.09-.96-.27-2.37-.49-4.24-.66l-4.12-.37c-3.08-.29-5.5-.94-7.27-1.93-1.77-1-3.02-2.34-3.74-4.02-.73-1.68-1.09-3.71-1.09-6.08,0-2.83.57-5.12,1.72-6.86,1.14-1.75,3-3.03,5.58-3.84,2.58-.81,6.01-1.22,10.29-1.22,5.57,0,10.17.73,13.79,2.18l-.19,8.49-.19.25c-4.12-1.46-8.42-2.18-12.92-2.18-2.16,0-3.83.12-4.99.34-1.16.23-1.98.59-2.43,1.09-.46.5-.69,1.21-.69,2.12s.16,1.6.47,2.06c.31.46.95.8,1.9,1.03.96.23,2.35.45,4.18.66l3.93.44c3.33.37,5.89,1.04,7.67,2,1.79.96,3.03,2.24,3.71,3.84.69,1.6,1.03,3.55,1.03,5.83,0,2.79-.59,5.11-1.78,6.96-1.19,1.85-3.11,3.24-5.77,4.15-2.66.92-6.22,1.37-10.67,1.37-2.91,0-5.53-.16-7.86-.47-2.33-.31-4.6-.74-6.8-1.28v-8.8l.25-.19Z"/>
          <path d="M748.11,526.45h-9.98v-39.5h9.98v15.1h14.97v-15.1h9.98v39.5h-9.98v-16.28h-14.97v16.28Z"/>
          <path d="M808.4,526.45h-9.98v-39.5h9.98v39.5Z"/>
          <path d="M859.36,486.96h9.98v39.5h-9.92l-11.23-16.72c-.87-1.33-1.6-2.45-2.18-3.37-.58-.91-1.12-1.83-1.62-2.75-.5-.91-1.06-2-1.68-3.24l-.19.25c.58,2,.94,3.86,1.06,5.58.12,1.73.19,3.4.19,5.02v15.22h-9.98v-39.5h9.92l11.23,16.72c.87,1.29,1.6,2.4,2.18,3.34.58.94,1.12,1.86,1.62,2.78.5.92,1.06,2,1.68,3.24l.19-.25c-.42-1.75-.73-3.44-.94-5.09-.21-1.64-.31-3.28-.31-4.9v-15.85Z"/>
          <path d="M919.93,514.79c0-1.37.06-2.62.19-3.74l-.12-.19c-1.16.17-2.43.28-3.81.34-1.37.06-2.64.07-3.81.03v-8.11l16.28-.06v21.21c-1.91.87-4.09,1.55-6.52,2.03-2.43.48-5.52.72-9.27.72-4.99,0-8.9-.68-11.73-2.03-2.83-1.35-4.83-3.53-5.99-6.55-1.16-3.02-1.75-7.04-1.75-12.07,0-4.08.47-7.42,1.4-10.05.94-2.62,2.31-4.65,4.12-6.08,1.81-1.44,4.02-2.43,6.64-3,2.62-.56,5.62-.84,8.98-.84,2,0,4,.08,6.02.25,2.02.17,4.02.48,6.02.94v8.24l-.19.12c-1.75-.42-3.48-.71-5.21-.87-1.73-.17-3.46-.25-5.21-.25-2.54,0-4.75.26-6.65.78-1.89.52-3.36,1.59-4.4,3.21-1.04,1.62-1.56,4.14-1.56,7.55s.28,5.94.84,7.71c.56,1.77,1.62,2.97,3.18,3.62,1.56.65,3.8.97,6.71.97.37,0,.96,0,1.75-.03.79-.02,1.58-.05,2.37-.09.79-.04,1.35-.1,1.68-.19v-3.56Z"/>
          <path d="M1000.29,526.45v-31.07h-11.23v-8.42h32.44v8.42h-11.23v31.07h-9.98Z"/>
          <path d="M1044.14,526.45v-39.5h29.33v8.11h-19.34v7.49h16.78v8.11h-16.78v7.67h19.34v8.11h-29.33Z"/>
          <path d="M1134.28,526.27v.19h-10.61c-.29-1-.63-2.14-1.03-3.43-.4-1.29-.82-2.66-1.28-4.12h-13.48c-.83,2.91-1.6,5.43-2.31,7.55h-10.61v-.12l12.79-39.37h13.73l12.79,39.31ZM1114.5,494.07c-.42,2.12-1.02,4.7-1.81,7.74-.79,3.04-1.62,6.14-2.5,9.3h8.92c-.92-3.16-1.77-6.26-2.56-9.3-.79-3.04-1.39-5.62-1.81-7.74h-.25Z"/>
          <path d="M1174.83,524.46c-.71-2.25-1.43-4.64-2.15-7.18-.73-2.54-1.45-5.05-2.15-7.55-.71-2.5-1.35-4.82-1.93-6.99-.58-2.16-1.08-4.03-1.5-5.62-.42-1.58-.71-2.7-.87-3.37l-.25.06c.12.75.23,1.74.31,2.96.08,1.23.15,2.52.19,3.87.04,1.35.06,2.59.06,3.71v22.09h-9.55v-39.5h16.72c.58,2.21,1.19,4.52,1.84,6.96.64,2.43,1.29,4.85,1.93,7.24.64,2.39,1.22,4.66,1.72,6.8.5,2.14.85,4,1.06,5.58h.12c.21-1.58.55-3.43,1.03-5.55.48-2.12,1.03-4.39,1.65-6.8.62-2.41,1.27-4.84,1.93-7.27.66-2.43,1.27-4.75,1.81-6.96h16.47v39.5h-9.42v-22.09c0-1.12.02-2.36.06-3.71.04-1.35.11-2.64.22-3.87.1-1.23.2-2.21.28-2.96l-.25-.06c-.17.67-.46,1.79-.87,3.37-.42,1.58-.93,3.46-1.53,5.65-.6,2.18-1.26,4.52-1.97,7.02-.71,2.5-1.43,5-2.15,7.52-.73,2.52-1.43,4.9-2.09,7.14h-10.73Z"/>
        </g>
      </g>
    </g>
  </g>
</svg>