<?xml version="1.0" encoding="UTF-8"?>
<svg id="Capa_2" data-name="Capa 2" xmlns="http://www.w3.org/2000/svg" viewBox="0 0 1440 720">
  <defs>
    <style>
      .cls-1 {
        fill: none;
      }
    </style>
  </defs>
  <g id="Capa_5" data-name="Capa 5">
    <g>
      <rect class="cls-1" width="1440" height="720"/>
      <g id="PB_C_Logotipo" data-name="PB&amp;amp;C Logotipo">
        <g id="Firma_de_Abogados" data-name="Firma de Abogados">
          <path d="M620.65,483.25h11.02v4.33h-11.02v9.35h-5.02v-23.09h17.5v4.33h-12.47v5.08Z"/>
          <path d="M652.96,496.92v-23.09h4.99v23.09h-4.99Z"/>
          <path d="M679.2,496.92v-23.09h10.26c4.96,0,8.34,3.28,8.34,8.02,0,3.35-1.83,6.1-4.71,7.33,1.99,2.5,4.11,5.27,5.97,7.74h-5.97c-1.89-2.37-3.63-4.67-5.53-7.2h-3.41v7.2h-4.96ZM689.47,485.39c1.55,0,3.38-1.14,3.38-3.54,0-1.2-.44-3.7-3.38-3.7h-5.31v7.23h5.31Z"/>
          <path d="M742.05,496.92h-5.02v-11.02l-7.07,8.21-7.07-8.21v11.02h-5.02v-23.81l12.1,13.64,12.1-13.64v23.81Z"/>
          <path d="M773.1,473.11l12.66,23.81h-5.46l-1.83-3.54h-10.77l-1.77,3.54h-5.5l12.66-23.81ZM776.06,489.12l-2.97-6.03-2.94,6.03h5.91Z"/>
          <path d="M829.15,473.84h9.54c3.41,0,6.28,1.01,8.43,2.91,2.37,2.05,3.6,5.05,3.6,8.62s-1.33,6.63-3.6,8.69c-2.12,1.86-5.05,2.87-8.43,2.87h-9.54v-23.09ZM838.69,492.6c3.16,0,6.98-1.14,6.98-7.2s-3.85-7.2-6.98-7.2h-4.55v14.4h4.55Z"/>
          <path d="M874.54,483.31h11.05v4.36h-11.05v4.93h12.51v4.33h-17.5v-23.09h17.5v4.33h-12.51v5.15Z"/>
          <path d="M942.53,473.11l12.66,23.81h-5.46l-1.83-3.54h-10.77l-1.77,3.54h-5.5l12.66-23.81ZM945.5,489.12l-2.97-6.03-2.94,6.03h5.91Z"/>
          <path d="M987.66,484.86c2.05.69,3.85,2.91,3.85,5.37,0,5.15-3.92,6.7-8.08,6.7h-9.98v-23.09h9.6c4.48,0,7.52,1.67,7.52,6.41,0,2.08-1.2,3.92-2.91,4.61ZM983.14,482.99c1.77,0,2.4-1.36,2.4-2.56s-1.04-2.27-2.37-2.27h-4.71v4.83h4.67ZM986.52,489.97c0-1.39-1.04-2.62-3.19-2.62h-4.86v5.24h4.96c2.05,0,3.09-1.26,3.09-2.62Z"/>
          <path d="M1010.15,485.36c0-6.57,5.56-11.97,12.41-11.97s12.47,5.4,12.47,11.97-5.59,12-12.47,12-12.41-5.37-12.41-12ZM1015.1,485.36c0,3.98,3.35,7.48,7.45,7.48s7.45-3.51,7.45-7.48-3.32-7.42-7.45-7.42-7.45,3.47-7.45,7.42Z"/>
          <path d="M1078.01,485.93c0,.41-.03.85-.06,1.33-.51,5.91-5.84,10.11-12.06,10.11-6.85,0-12.44-5.37-12.44-11.97s5.59-11.97,12.44-11.97c4.29,0,8.18,2.18,10.45,5.56l-4.29,2.5c-1.42-1.96-3.66-3.51-6.16-3.51-4.11,0-7.48,3.47-7.48,7.42s3.38,7.45,7.48,7.45c2.97,0,6-1.93,6.73-4.39h-8.62v-4.39h13.96c.03.63.06,1.36.06,1.86Z"/>
          <path d="M1106.66,473.11l12.66,23.81h-5.46l-1.83-3.54h-10.77l-1.77,3.54h-5.5l12.66-23.81ZM1109.63,489.12l-2.97-6.03-2.94,6.03h5.91Z"/>
          <path d="M1137.61,473.84h9.54c3.41,0,6.28,1.01,8.43,2.91,2.37,2.05,3.6,5.05,3.6,8.62s-1.33,6.63-3.6,8.69c-2.12,1.86-5.05,2.87-8.43,2.87h-9.54v-23.09ZM1147.15,492.6c3.16,0,6.98-1.14,6.98-7.2s-3.85-7.2-6.98-7.2h-4.55v14.4h4.55Z"/>
          <path d="M1177.88,485.36c0-6.57,5.56-11.97,12.41-11.97s12.47,5.4,12.47,11.97-5.59,12-12.47,12-12.41-5.37-12.41-12ZM1182.83,485.36c0,3.98,3.35,7.48,7.45,7.48s7.45-3.51,7.45-7.48-3.32-7.42-7.45-7.42-7.45,3.47-7.45,7.42Z"/>
          <path d="M1231.79,492.88c2.75,0,4.26-1.26,4.26-2.56,0-1.83-2.46-2.31-5.15-2.78-2.91-.47-9.16-1.55-9.16-7.07s5.08-6.98,9.16-6.98,6.6,1.23,9.13,3.09l-2.78,3.79c-1.99-1.42-4.29-2.37-6.54-2.37-1.45,0-3.98.44-3.98,2.27,0,1.64,2.49,2.02,4.58,2.46,3.76.79,9.73,1.26,9.73,7.45,0,4.8-3.73,7.17-9.19,7.17-4.99,0-8.27-1.77-10.42-3.6l2.65-3.82c1.67,1.39,5.05,2.94,7.71,2.94Z"/>
        </g>
        <g id="Logotipo">
          <g id="Letras">
            <g id="Calzadilla">
              <path d="M626.6,442.99c-27.95,0-50.75-21.9-50.75-48.82s22.8-48.69,50.75-48.69c18.94,0,35.68,10.43,44.7,25.76l-18.94,7.34c-5.67-8.12-15.33-14.68-25.76-14.68-16.75,0-30.27,14.17-30.27,30.27s13.53,30.4,30.27,30.4c10.43,0,20.1-6.7,25.76-14.94l18.94,7.34c-9.02,15.59-25.76,26.02-44.7,26.02Z"/>
              <path d="M738.53,434.1c-2.96,3.99-11.46,8.63-21.51,8.63-22.41,0-35.55-16.62-35.55-36.97s13.14-36.97,35.55-36.97c10.31,0,17.91,4.12,21.51,8.89v-7.34h19.06v70.85h-19.06v-7.08ZM719.86,385.67c-12.24,0-19.45,8.5-19.45,20.1s7.6,19.97,19.45,19.97,19.45-7.6,19.45-19.97c0-11.72-7.47-20.1-19.45-20.1Z"/>
              <path d="M777.44,343.8h19.32v97.38h-19.32v-97.38Z"/>
              <path d="M811.57,387.21v-16.62h67.37l-38.64,53.84h34.65v16.75h-68.66l38.52-53.97h-33.23Z"/>
              <path d="M943.09,434.1c-2.96,3.99-11.46,8.63-21.51,8.63-22.41,0-35.55-16.62-35.55-36.97s13.14-36.97,35.55-36.97c10.31,0,17.91,4.12,21.51,8.89v-7.34h19.06v70.85h-19.06v-7.08ZM924.41,385.67c-12.24,0-19.45,8.5-19.45,20.1s7.6,19.97,19.45,19.97,19.45-7.6,19.45-19.97c0-11.72-7.47-20.1-19.45-20.1Z"/>
              <path d="M1035.58,434.1c-2.96,3.99-11.46,8.63-21.51,8.63-22.41,0-35.55-16.62-35.55-36.97s13.14-36.97,35.55-36.97c10.31,0,17.91,4.12,21.51,8.89v-33.88h19.06v97.38h-19.06v-7.08ZM1016.9,385.67c-12.24,0-19.45,8.5-19.45,20.1s7.6,19.97,19.45,19.97,19.45-7.6,19.45-19.97c0-11.72-7.47-20.1-19.45-20.1Z"/>
              <path d="M1084.92,362.87c-5.93,0-10.82-4.64-10.82-10.43s4.89-10.31,10.82-10.31,10.56,4.64,10.56,10.31-4.77,10.43-10.56,10.43ZM1075.26,370.47h19.32v70.72h-19.32v-70.72Z"/>
              <path d="M1114.42,343.8h19.32v97.38h-19.32v-97.38Z"/>
              <path d="M1152.93,343.8h19.32v97.38h-19.32v-97.38Z"/>
              <path d="M1245.03,434.1c-2.96,3.99-11.46,8.63-21.51,8.63-22.41,0-35.55-16.62-35.55-36.97s13.14-36.97,35.55-36.97c10.31,0,17.91,4.12,21.51,8.89v-7.34h19.06v70.85h-19.06v-7.08ZM1226.35,385.67c-12.24,0-19.45,8.5-19.45,20.1s7.6,19.97,19.45,19.97,19.45-7.6,19.45-19.97c0-11.72-7.47-20.1-19.45-20.1Z"/>
            </g>
            <path id="_" data-name="&amp;amp;" d="M499.84,431.39c-11.72,9.66-16.75,10.95-26.66,11.34-15.46.64-28.47-9.27-30.27-23.32-1.16-10.43,3.48-18.03,11.46-24.6,1.67-1.29,4.77-3.35,6.7-4.77-5.54-6.83-8.12-14.81-7.21-22.8,1.16-7.08,5.28-13.53,11.34-17.52,4.38-2.83,9.92-4.25,15.2-4.25,2.45,0,4.64.26,6.7.77,7.34,1.93,13.65,7.08,16.87,13.78,1.67,3.22,2.45,6.44,2.45,9.92s-.9,7.6-2.83,11.21c-2.83,5.28-7.86,9.02-14.04,12.62l10.43,10.31c5.67-7.86,8.37-14.17,8.37-14.43l17.65,8.5c-3.99,7.21-7.08,11.98-12.75,19.19,4.64,4.64,9.92,9.79,14.3,14.56l-15.33,11.46-12.37-11.98ZM466.48,406.79c-1.03.9-4.64,4.38-3.86,10.43.39,4.25,4.51,7.73,9.79,7.99,7.34.26,11.98-3.61,15.07-6.31l-15.72-15.59c-2.06,1.16-3.74,2.32-5.28,3.48ZM477.3,381.16c5.02-2.83,10.18-6.96,10.18-12.88.13-3.86-3.61-6.31-7.21-6.31-3.35,0-6.83,2.19-7.6,7.21-.52,4.25,1.8,8.76,4.64,11.98Z"/>
            <g id="Burelli">
              <path d="M907.67,273.1c8.37,2.83,15.72,11.85,15.72,21.9,0,21-15.97,27.31-32.98,27.31h-40.71v-94.16h39.16c18.29,0,30.66,6.83,30.66,26.15,0,8.5-4.89,15.97-11.85,18.81ZM889.25,265.5c7.21,0,9.79-5.54,9.79-10.43s-4.25-9.27-9.66-9.27h-19.19v19.71h19.06ZM903.03,293.96c0-5.67-4.25-10.69-13.01-10.69h-19.84v21.38h20.22c8.37,0,12.62-5.15,12.62-10.69Z"/>
              <path d="M939.74,293.58v-41.86h19.45v41.86c0,10.82,6.44,14.17,13.78,14.17,5.41,0,14.04-3.22,13.53-18.55v-37.48h19.32v70.59h-19.32v-6.05c-4.64,4.77-11.46,7.6-18.94,7.6-20.35,0-27.82-11.98-27.82-30.27Z"/>
              <path d="M1044.21,291v31.3h-19.19v-70.85h19.19v9.4c7.21-9.53,19.19-10.82,24.22-10.69v18.81c-4.64-.39-24.22.52-24.22,22.03Z"/>
              <path d="M1075.13,287.14c0-29.11,25.25-36.84,38.52-36.84,18.16,0,36.33,12.37,36.97,35.17,0,5.41-.39,8.89-.39,8.89h-55.91c2.32,11.59,15.46,12.88,19.32,12.88,10.69,0,15.97-5.8,18.16-8.24l14.94,8.63c-2.83,3.86-12.37,16.49-33.11,16.49-13.78,0-38.52-7.86-38.52-36.97ZM1094.84,280.7h35.42c-.77-6.44-7.08-13.53-16.75-13.53-11.08,0-17.91,6.31-18.68,13.53Z"/>
              <path d="M1166.97,224.92h19.32v97.38h-19.32v-97.38Z"/>
              <path d="M1205.49,224.92h19.32v97.38h-19.32v-97.38Z"/>
              <path d="M1254.44,243.98c-5.93,0-10.82-4.64-10.82-10.43s4.89-10.31,10.82-10.31,10.56,4.64,10.56,10.31-4.77,10.43-10.56,10.43ZM1244.78,251.58h19.32v70.72h-19.32v-70.72Z"/>
            </g>
            <g id="Pérez">
              <path d="M494.3,261.89c0,18.55-12.88,32.98-38.13,32.98h-17.78v27.44h-20.35v-94.16h38.26c23.7,0,38,15.07,38,33.75ZM473.82,261.89c0-7.99-5.8-16.1-16.75-16.1h-18.68v31.43h20.74c10.18,0,14.68-7.6,14.68-15.33Z"/>
              <path d="M502.55,287.14c0-29.11,25.25-36.84,38.52-36.84,18.16,0,36.33,12.37,36.97,35.17,0,5.41-.39,8.89-.39,8.89h-55.91c2.32,11.59,15.46,12.88,19.32,12.88,10.69,0,15.97-5.8,18.16-8.24l14.94,8.63c-2.83,3.86-12.37,16.49-33.11,16.49-13.78,0-38.52-7.86-38.52-36.97ZM522.25,280.7h35.42c-.77-6.44-7.08-13.53-16.75-13.53-11.08,0-17.91,6.31-18.68,13.53ZM565.15,229.56l-19.19,13.91h-15.33l17-21.13,17.52,7.21Z"/>
              <path d="M613.2,291v31.3h-19.19v-70.85h19.19v9.4c7.21-9.53,19.19-10.82,24.22-10.69v18.81c-4.64-.39-24.22.52-24.22,22.03Z"/>
              <path d="M644.11,287.14c0-29.11,25.25-36.84,38.52-36.84,18.16,0,36.33,12.37,36.97,35.17,0,5.41-.39,8.89-.39,8.89h-55.91c2.32,11.59,15.46,12.88,19.32,12.88,10.69,0,15.97-5.8,18.16-8.24l14.94,8.63c-2.83,3.86-12.37,16.49-33.11,16.49-13.78,0-38.52-7.86-38.52-36.97ZM663.82,280.7h35.42c-.77-6.44-7.08-13.53-16.75-13.53-11.08,0-17.91,6.31-18.68,13.53Z"/>
              <path d="M731.58,268.33v-16.62h67.37l-38.64,53.84h34.65v16.75h-68.66l38.52-53.97h-33.23Z"/>
            </g>
          </g>
          <g id="Isotipo">
            <path id="Calzadilla-2" data-name="Calzadilla" d="M291.07,346.21v97.16h97.17v-97.16h-97.17ZM374.87,419.42c-7.57,10.38-17.89,15.57-30.94,15.57-11.7,0-21.2-3.63-28.52-10.88-7.32-7.25-10.97-16.66-10.97-28.23s3.94-21.55,11.84-29.45,17.71-11.84,29.45-11.84c4.81,0,10.23,1.06,16.27,3.19,2.59.94,4.36,1.4,5.3,1.4,1.87,0,3.45-1.32,4.72-3.96h2.11v28.01h-2.11c-1.74-7.7-4.89-13.68-9.44-17.93-4.55-4.25-10.08-6.38-16.59-6.38-7.1,0-12.75,3-16.94,9-4.19,6-6.28,14.06-6.28,24.18,0,11.27,2.45,19.99,7.34,26.16,4.89,6.17,11.63,9.25,20.23,9.25,4.64,0,8.89-.96,12.76-2.87,3.87-1.91,7.81-5,11.8-9.25v4.02Z"/>
            <g id="_-2" data-name="&amp;amp;">
              <path d="M201.24,403.9c0,5.19,1.8,10.06,5.41,14.58,3.61,4.53,8.05,6.79,13.33,6.79,2.79,0,6.09-1.14,9.92-3.41-7.43-9.57-13.67-19.83-18.74-30.78-6.61,2.58-9.92,6.85-9.92,12.81Z"/>
              <path d="M250.24,441.69c-4.34-2.66-10.37-8.35-18.09-17.06-8.28,5.71-16.03,8.56-23.24,8.56-6.18,0-11.44-2.06-15.77-6.18-4.34-4.12-6.5-9.1-6.5-14.94,0-11.16,7.75-19.21,23.24-24.14-2.32-4.85-3.48-9.94-3.48-15.26s2.06-9.55,6.18-13.07c4.12-3.52,9.27-5.28,15.45-5.28,5.02,0,9.09,1.23,12.2,3.7,3.11,2.47,4.67,5.63,4.67,9.5,0,8.37-6.8,14.53-20.41,18.48,2.02,4.46,7.73,13.16,17.13,26.08,5.02-5.84,7.53-11.12,7.53-15.84,0-2.36-.65-4.25-1.96-5.67-1.31-1.42-3.08-2.12-5.31-2.12-1.07,0-2.38.32-3.93.97l.39-2.38c3.13-1.42,6.03-2.12,8.69-2.12,4.68,0,7.02,2.68,7.02,8.05,0,6.74-3.48,13.99-10.43,21.76,10.18,14.32,19.03,22.18,26.56,23.59v-92.09h-97.17v97.16h80.39c-1.06-.48-2.11-1.04-3.15-1.68Z"/>
              <path d="M233.44,368.03c0-2.7-.64-4.91-1.93-6.63-1.29-1.72-2.92-2.58-4.89-2.58-2.1,0-3.89.9-5.34,2.7-1.46,1.8-2.19,4.01-2.19,6.63,0,4.98,1.31,9.89,3.93,14.74,6.95-3.52,10.43-8.48,10.43-14.87Z"/>
            </g>
            <g id="Burelli-2" data-name="Burelli">
              <path d="M339.49,277.81h-9.06v23.42c0,3.4.85,5.82,2.55,7.24,1.7,1.43,4.55,2.14,8.55,2.14,4.81,0,8.58-1.44,11.33-4.31,2.74-2.87,4.12-6.84,4.12-11.9s-1.54-9.04-4.63-12.06c-3.08-3.02-7.37-4.53-12.86-4.53Z"/>
              <path d="M348.11,269.45c2.76-2.72,4.15-6.51,4.15-11.36,0-10.17-5.61-15.25-16.84-15.25h-4.98v30.69h6.19c4.89,0,8.72-1.36,11.48-4.08Z"/>
              <path d="M291.07,228.14v97.16h97.17v-97.16h-97.17ZM368.4,309.39c-4.59,3.7-10.71,5.55-18.36,5.55h-46.03v-2.23c3.97-.81,6.56-1.97,7.76-3.48,1.2-1.51,1.81-3.92,1.81-7.24v-50.79c0-3.49-.67-5.97-2-7.43-1.33-1.47-3.86-2.48-7.57-3.03v-2.23h40.29c8.24,0,14.68,1.56,19.31,4.69,4.63,3.13,6.95,7.54,6.95,13.24,0,8.85-5.66,14.85-16.97,17.99v.26c14.46,2.64,21.69,9.36,21.69,20.16,0,6-2.29,10.85-6.88,14.55Z"/>
            </g>
            <g id="Pérez-2" data-name="Pérez">
              <path d="M173,228.14v97.16h97.17v-97.16h-97.17ZM246.5,274.62c-5.17,4.13-12.28,6.19-21.34,6.19-3.15,0-6.38-.21-9.7-.64v21.82c0,3.45.69,5.93,2.07,7.47,1.38,1.53,3.88,2.62,7.5,3.25v2.23h-36.11v-2.23c3.87-.77,6.45-1.92,7.75-3.48,1.3-1.55,1.95-4.26,1.95-8.13v-49.89c0-3.49-.62-5.89-1.85-7.21-1.23-1.32-3.85-2.4-7.85-3.25v-2.23h39.24c8.08,0,14.45,1.87,19.11,5.61,4.66,3.74,6.99,8.61,6.99,14.61,0,6.47-2.58,11.76-7.75,15.89Z"/>
              <path d="M221.9,242.84h-6.44v32.8c1.96.6,3.83.89,5.61.89,4.68,0,8.34-1.5,10.97-4.5,2.64-3,3.96-7.2,3.96-12.6,0-4.93-1.3-8.93-3.89-12-2.6-3.06-6-4.59-10.21-4.59Z"/>
            </g>
          </g>
        </g>
      </g>
    </g>
  </g>
</svg>