<?xml version="1.0" encoding="UTF-8"?>
<svg id="Capa_2" data-name="Capa 2" xmlns="http://www.w3.org/2000/svg" viewBox="0 0 1440 720">
  <defs>
    <style>
      .cls-1 {
        fill: none;
      }
    </style>
  </defs>
  <g id="Capa_8" data-name="Capa 8">
    <g>
      <rect class="cls-1" width="1440" height="720"/>
      <g>
        <g>
          <polygon points="610.38 483.92 610.38 510.57 577.07 510.57 577.07 577.18 550.42 577.18 550.42 510.57 517.11 510.57 517.11 483.92 610.38 483.92"/>
          <polygon points="431.08 517.23 431.08 543.88 377.79 543.88 377.79 577.18 351.13 577.18 351.13 483.92 431.08 483.92 431.08 510.57 377.79 510.57 377.79 517.23 431.08 517.23"/>
          <rect x="460.77" y="483.92" width="26.65" height="93.26"/>
          <polygon points="1088.89 537.22 1088.89 557.2 1068.91 577.18 995.63 577.18 995.63 550.54 1055.58 550.54 1058.91 547.21 1055.58 543.88 1015.61 543.88 995.63 523.89 995.63 503.91 1015.61 483.92 1088.89 483.92 1088.89 510.57 1028.94 510.57 1025.6 513.9 1028.94 517.23 1068.91 517.23 1088.89 537.22"/>
          <polygon points="733.34 483.92 733.34 577.18 713.35 577.18 666.72 530.56 666.72 577.18 640.07 577.18 640.07 483.92 660.06 483.92 706.69 530.56 706.69 483.92 733.34 483.92"/>
          <polygon points="965.93 537.22 965.93 557.2 945.95 577.18 872.67 577.18 872.67 550.54 932.62 550.54 935.96 547.21 932.62 543.88 892.65 543.88 872.67 523.89 872.67 503.91 892.65 483.92 965.93 483.92 965.93 510.57 905.98 510.57 902.65 513.9 905.98 517.23 945.95 517.23 965.93 537.22"/>
          <polygon points="842.98 550.54 842.98 577.18 763.03 577.18 763.03 483.92 842.98 483.92 842.98 510.57 789.68 510.57 789.68 517.23 842.98 517.23 842.98 543.88 789.68 543.88 789.68 550.54 842.98 550.54"/>
        </g>
        <g>
          <path d="M687.37,215.52c-2.61-5.87-6.74-11.83-12.37-17.93-.02-.02-.04-.05-.06-.07-2.33-2.76-4.79-5.36-7.38-7.8-2.66-2.53-5.46-4.88-8.39-7.06-8.63-6.42-18.43-11.39-29.4-14.92-18.33-5.9-39.07-10.36-62.2-13.42-23.13-3.05-40.82-6.97-53.03-11.79-2.62-.87-5.02-.98-7.2-.32-2.19.66-4.81,2.07-7.86,4.25-3.05,2.19-4.8,3.5-5.23,3.93-.88,0-8.74-.32-23.57-.99-14.84-.65-24.66-.86-29.46-.65-4.81.22-12.55.65-23.24,1.31-10.7.66-19.1,2.19-25.21,4.58-6.12,2.4-10.91,5.79-14.4,10.15-7.86,9.61-8.18,17.46-.98,23.57,7.2,6.13,16.91,8.95,29.13,8.51,5.67-.87,10.8-1.41,15.39-1.63,4.58-.22,8.28.11,11.13.98,2.84.88,5.34,1.86,7.53,2.95,2.18,1.09,3.49,2.84,3.93,5.23.42,2.4.87,4.58,1.31,6.55.43,1.96-.12,4.69-1.64,8.18-1.53,3.5-2.73,6.44-3.6,8.84-.88,2.4-2.51,5.89-4.91,10.47-2.4,4.59-4.37,8.08-5.89,10.47-1.53,2.41-3.82,6-6.87,10.8-1.31,2.62-2.19,4.59-2.61,5.89-2.2,11.78-6.55,22.91-13.1,33.39-6.54,10.47-13.21,19.1-19.97,25.86-6.77,6.77-14.73,14.84-23.9,24.22-9.17,9.39-16.37,17.79-21.61,25.21,6.1-2.62,11.46-3.6,16.04-2.94,3.77.54,6.28,1.9,7.54,4.07.42-.5.64,0,.64,1.5-.16-.53-.37-1.04-.64-1.5-.32.37-.76,1.31-1.32,2.81-6.55,17.02-10.26,35.58-11.14,55.65-.44,17.03,3.71,20.3,12.44,9.82,3.04,7.43,6.65,9.93,10.8,7.53,4.15-2.4,8.19-4.47,12.11-6.22,3.93-1.74,6.11.22,6.55,5.89,6.1-6.11,13.19-14.29,21.28-24.56,8.08-10.25,17.02-22.47,26.84-36.66,9.82-14.18,16.91-24.33,21.28-30.45,7.85-3.05,29.24-9.92,64.16-20.62,7.56-2.31,14.74-4.63,21.52-6.93,4.17-1.42,8.18-2.83,12.05-4.25,4.44-1.61,8.69-3.23,12.75-4.84,13.24-5.27,24.43-10.52,33.56-15.73,6.97-3.92,12.21-6.76,15.71-8.51,1.22-.61,2.72-1.41,4.48-2.4,3.26-1.84,7.44-4.31,12.54-7.43,7.85-4.79,13.75-8.84,17.68-12.11,3.35-2.8,7.35-6.31,11.98-10.54,1.97-1.92,3.84-3.71,5.61-5.36,3.94-4.11,6.69-8.08,8.26-11.92,1.69-4.15,3.15-8.62,4.36-13.43.19-.75.37-1.51.55-2.28,1.31-5.67.66-11.46-1.96-17.35ZM546.61,255.13c-8.3,3.5-13.98,5.9-17.02,7.21-6.99,6.12-12.22,8.74-15.71,7.85-6.12-1.3-5.89-10.47.66-27.5,6.97-18.33,14.61-28.37,22.91-30.12,5.24-.87,9.05-1.31,11.46-1.31s6.22.33,11.46.98c5.23.66,9.16.99,11.78.99,21.82.88,32.74,3.93,32.74,9.17,0,6.11-19.43,17.02-58.27,32.73Z"/>
          <path d="M892.76,196.99c-1.61-2.62-3.53-5.17-5.75-7.66-13.09-14.62-29.9-20.4-50.41-17.35-9.17,4.36-16.04,5.56-20.63,3.6-4.59-1.96-7.21-4.8-7.85-8.51-.65-3.7-2.62-8.07-5.89-13.09-3.27-5.01-7.97-8.18-14.08-9.49l-11.13-.65-11.78.65c-19.64,3.07-38.53,9.17-56.63,18.33-11.34,5.74-22.17,12.46-32.48,20.17,2.4,2.33,4.7,4.79,6.89,7.38.18.19.35.38.53.58,6.13,6.74,10.72,13.52,13.69,20.2,2.06,4.65,3.23,9.32,3.5,13.98.19,3.41-.1,6.82-.89,10.19-.47,2.02-.97,3.99-1.53,5.93,4.17-3.52,8.8-7.4,13.88-11.64,4.35-3.49,7.42-6.11,9.17-7.86-5.28,5.28-14.34,15.76-27.17,31.42-2.61,6.15-7.18,12.19-13.91,18.41-1.89,1.73-3.68,3.38-5.38,4.92-1.46,1.72-2.84,3.33-4.12,4.8l6.87-1.38.06.06c.98-1.01,1.99-2.09,3.06-3.22,25.31-27.93,41.9-43.86,49.76-47.79-3.06,6.12-7.2,12.67-12.44,19.64-5.24,6.99-9.49,12.23-12.77,15.71-3.27,3.5-9.49,9.6-18.66,18.33-9.16,8.74-14.84,13.97-17.02,15.71,6.98-7.85,11.14-12.65,12.44-14.4l-13.09,12.44c-6.55,6.99-11.13,11.78-13.75,14.4,10.9-4.79,24.77-16.25,41.57-34.37,16.8-18.11,29.14-29.79,37-35.03,2.17-1.3,4.79-3.04,7.85-5.23,3.65-2.43,5.79-3.92,6.43-4.47l-14.94,13.63c-6.55,7.43-17.79,18.45-33.71,33.07-15.94,14.63-27.62,26.08-35.03,34.37-4.37,3.06-6.87,5.46-7.53,7.2-.65,1.75-.44,3.17.66,4.25,1.08,1.09,2.07,2.29,2.94,3.6.87,1.31.22,3.17-1.96,5.56-2.2,2.4-6.33,5.56-12.44,9.49,5.24-1.74,9.05-2.72,11.46-2.94,2.4-.22,3.7.22,3.93,1.31.22,1.09.42,2.29.65,3.6.22,1.31.43,2.29.66,2.94.21.66,1.85.33,4.91-.98,3.04-1.31,7.41-3.71,13.09-7.2,11.78-6.54,24.98-16.69,39.61-30.44,14.62-13.75,27.27-26.19,37.98-37.32,10.69-11.14,24.11-21.05,40.26-29.78,16.14-8.73,32.74-12.88,49.76-12.44-1.75,5.24-3.83,10.48-6.22,15.71-2.4,5.24-4.7,9.93-6.88,14.08-2.19,4.15-5.23,8.84-9.16,14.08-3.93,5.23-7.1,9.49-9.49,12.76-2.4,3.28-6.12,7.53-11.13,12.77-5.02,5.24-8.62,9.16-10.8,11.78-2.19,2.62-6.22,6.66-12.11,12.11-5.89,5.46-9.82,9.06-11.78,10.8-1.96,1.75-6.22,5.56-12.77,11.45-6.55,5.9-10.47,9.49-11.78,10.8-.88.44-2.19,1.31-3.93,2.62-8.29,6.55-15.06,11.68-20.3,15.39-5.23,3.71-12.88,8.62-22.91,14.73-10.05,6.12-18.66,10.37-25.86,12.77-7.21,2.4-15.06,4.26-23.57,5.56-8.51,1.31-16.26.12-23.24-3.6-6.99-3.7-12.88-9.71-17.68-18.01-.44-13.09,1.53-26.07,5.89-38.95,4.07-12,8.7-22.49,13.91-31.47-5.41,3.4-11.01,6.46-16.78,9.16-5.95,2.81-12.07,5.23-18.34,7.28-5.23,1.99-8.97,1.33-11.57-.16-3.47,1.42-7.08,2.84-10.84,4.25-3.77,1.43-7.68,2.85-11.73,4.28-.24,1.55-.45,3.12-.63,4.69-2.39,20.74,1.19,40.16,10.8,58.27,9.59,18.12,24.44,30.45,44.52,36.99,33.16,9.17,66.46,5.79,99.84-10.15,30.13-14.37,57.15-34.17,81.06-59.39,2.58-2.73,5.14-5.51,7.65-8.37,6.55-7.86,17.24-19.74,32.09-35.68,14.83-15.93,27.06-30.55,36.66-43.87,9.59-13.31,17.24-27.39,22.92-42.22,6.87-15.94,6.39-30.3-1.45-43.09ZM698.46,250.55l16.37-16.37,9.82-7.85c-13.09,13.54-21.83,21.61-26.19,24.23Z"/>
          <path d="M1005.33,466.27c-.65.22-.99.33-.99.33,0,0-.11-.11-.32-.33-.22-.22-2.95-.54-8.18-.98-8.74-.43-15.5-1.74-20.3-3.93-5.24-2.18-8.95-5.46-11.13-9.82-3.5-7.86-5.89-21.17-7.2-39.94-1.31-15.27.65-33.61,5.89-55,1.31-5.23,1.85-7.95,1.63-8.18-.22-.22-4.25,3.6-12.11,11.46-27.5,27.5-48.23,46.92-62.2,58.27-2.19,1.75-3.71,3.05-4.58,3.92-8.3,7.43-17.47,13.53-27.5,18.33-2.62,1.75-5.35,3.71-8.18,5.89-2.84,2.19-5.79,3.71-8.84,4.58-10.91,3.92-19.21,5.46-24.88,4.58-2.2-.42-5.36-.76-9.49-.98-4.15-.22-6.55-.65-7.2-1.31-.66-.65-2.08-1.2-4.26-1.63-3.93-.87-7.75-2.73-11.46-5.57-3.71-2.83-5.79-5.56-6.22-8.18-.44-2.18-1.09-4.79-1.96-7.85-.88-3.05-1.09-6.11-.65-9.17.43-2.18,1.41-5.89,2.95-11.13,1.52-5.24,2.5-8.28,2.94-9.16.27-.55.79-1.72,1.56-3.53,9.8-8.58,19.15-17.91,28.01-27.97l.19-.22c6.36-7.63,17.02-19.48,31.68-35.23,15.11-16.22,27.73-31.34,37.52-44.91,10.06-13.95,18.19-28.91,24.16-44.47,8.95-20.92,7.1-40.6-5.33-57.31,3.22-5.1,6.95-10.7,11.18-16.81,6.97-10.03,11.56-17.24,13.75-21.61.87-1.74,2.62-3.49,5.24-5.24,2.62-1.73,5.89-2.61,9.82-2.61,6.98-.43,13.2,2.19,18.66,7.85,5.46,5.68,7.74,13.54,6.88,23.57,0,5.24-1.21,10.04-3.6,14.4-2.41,4.37-3.61,6.77-3.61,7.2s-.98,1.86-2.94,4.25c-1.96,2.4-3.17,4.48-3.6,6.23-2.63,10.04-5.02,17.02-7.2,20.95-2.19,3.93-3.93,6.99-5.24,9.16-3.05,6.13-5.23,10.05-6.54,11.79-.89,1.31-1.31,2.4-1.31,3.27s-.55,2.29-1.64,4.25c-1.09,1.96-2.4,4.81-3.92,8.51-1.54,3.71-3.71,7.85-6.55,12.44-2.84,4.58-5.23,8.84-7.2,12.77-1.96,3.92-3.38,6.33-4.25,7.2s-2.07,2.94-3.6,6.22c-1.53,3.27-2.74,5.79-3.6,7.53-2.62,3.93-6.33,10.92-11.13,20.95-.44,1.75-2.4,5.89-5.89,12.44l-1.96,3.93c.43.44,6.97-5.46,19.64-17.68,3.49-3.49,8.51-8.4,15.06-14.73,6.54-6.32,9.92-9.59,10.15-9.82.22-.22,2.5-2.29,6.87-6.22,21.82-20.07,38.18-35.79,49.1-47.14,8.29-7.85,12.66-11.78,13.1-11.78s2.17-1.53,5.24-4.58c4.79-4.8,7.53-7.53,8.18-8.18.65-.65,1.64-.54,2.95.32,1.31.89,2.5.99,3.6.33,1.09-.65,2.3-.99,3.6-.99s.22,1.64-3.27,4.91c-3.51,3.27-4.92,5.36-4.26,6.23.65.88,1.31,1.31,1.96,1.31s.99.22.99.65,1.19.55,3.6.32c2.4-.22,3.6,0,3.6.65v2.95c0,1.3.43,1.53,1.31.65.43-.43.76-.65.99-.65.21,0,.1.43-.33,1.3,0,.88.54,1.53,1.64,1.96,1.08.44,1.73,1.31,1.96,2.62.22,1.31.32,2.29.32,2.94s.65.99,1.96.99c2.18.44,2.62,2.19,1.3,5.23-.87,1.75-1.53,4.81-1.96,9.17l.65,5.24h.65c.86-.43,1.08-.11.65.98-.43,1.09-.65,2.94-.65,5.56-.44,7.86-3.27,20.3-8.51,37.32v1.31c.43,0,1.09-1.53,1.96-4.58.87-3.05,1.53-4.8,1.96-5.24l-.65,3.27c-.44,2.62-.44,3.93,0,3.93s.76-.55.98-1.63c.22-1.09.99-2.07,2.3-2.95.86-.87,1.31-1.19,1.31-.98s-.23.98-.65,2.29c0,1.75-.22,2.84-.65,3.27-.89,1.31-.89,2.19,0,2.62l-1.31,6.54c-.88,2.2-3.27,10.59-7.2,25.21-3.93,14.63-6.55,25.86-7.86,33.72-.88,4.81-1.54,8.29-1.96,10.47-.88,3.93-.99,6.12-.33,6.55.66.43,2.07-.87,4.26-3.93,6.97-10.03,16.8-26.19,29.46-48.45,3.04-5.67,6.22-11.02,9.49-16.04,3.27-5.01,5.12-8.07,5.56-9.16.42-1.09,1.96-3.81,4.58-8.18,2.62-4.36,4.58-7.63,5.89-9.82,3.93-6.97,7.64-13.09,11.13-18.33,4.79-7.86,7.41-12.44,7.85-13.75.43-.87,3.05-5.02,7.86-12.44,1.31-2.62,3.27-5.78,5.89-9.49,2.61-3.71,4.91-7.2,6.87-10.48,1.96-3.27,3.61-5.56,4.92-6.87,1.3-1.31,1.96-2.3,1.96-2.95s.98-2.07,2.94-4.25c1.96-2.17,2.94-3.6,2.94-4.25s.98-2.18,2.94-4.58c1.96-2.39,2.95-3.93,2.95-4.58s.43-1.09,1.31-1.31c.87-.22,1.31-.65,1.31-1.31s.86-2.07,2.61-4.26c3.49-3.92,6.98-8.51,10.48-13.75,2.18-3.04,3.81-5.12,4.91-6.22,1.09-1.08,4.26-5.12,9.49-12.11,6.1-7.86,13.52-17.02,22.26-27.5,20.07-24,31.19-36,33.39-36,.42,0,2.17-1.53,5.23-4.58,6.11-5.24,11.78-10.04,17.02-14.4-1.75,2.19-2.52,3.38-2.29,3.6.22.22,1.19-.54,2.94-2.3,2.62-1.73,5.02-3.38,7.2-4.91,2.17-1.52,4.35-3.16,6.54-4.91,4.36-3.48,6.55-4.58,6.55-3.27,0,.43-2.62,3.5-7.85,9.16l-7.86,8.51,6.54-5.23c3.93-3.05,6.33-4.58,7.2-4.58s-.22,1.31-3.27,3.93c-12.66,11.35-18.99,17.9-18.99,19.64,0,.88.65.65,1.96-.65,1.31-1.31,2.4-2.63,3.27-3.93l1.96-1.31-.65,2.61c-.44,2.2-1.54,4.38-3.27,6.55-1.75,2.19-2.4,3.5-1.96,3.93.43.44.76.22.99-.65.21-.87.98-1.74,2.29-2.62,1.74-1.31,2.4-1.31,1.96,0-.88,2.62-4.81,7.2-11.78,13.75-1.75,1.75-3.06,3.61-3.93,5.56-.88,1.96-1.86,3.17-2.94,3.61-1.1.44-1.64.88-1.64,1.3,0,.45-1.86,3.07-5.56,7.86-3.71,4.81-6.22,8.08-7.53,9.82-1.31,1.75-2.84,3.5-4.58,5.23-8.74,10.05-15.5,20.08-20.3,30.12-.44.88-.88,1.64-1.3,2.3-.45.65-.77.88-.99.65-.22-.22-.55-.11-.98.32-.44.44-.65.89-.65,1.31-.88,1.75-1.53,3.27-1.96,4.58-5.68,10.91-8.51,16.81-8.51,17.68.43.88,1.53,0,3.27-2.62l.65-1.31c0-.87.87-2.4,2.62-4.58,1.31-1.73,1.96-2.39,1.96-1.96v1.32l.65,1.96c0-.42.43-1.08,1.31-1.96.42-1.32.87-1.96,1.3-1.96s-.22,1.53-1.96,4.58c-5.68,9.17-8.74,13.97-9.16,14.4-.45,0-1.1,1.09-1.96,3.27-.89,2.2-2.74,5.46-5.57,9.82-2.84,4.37-4.69,6.55-5.56,6.55-.44,0-.65.65-.65,1.96.87,2.19-.22,4.81-3.27,7.85-.44.89-.76,1.75-.98,2.62-.22.88-1.96,4.82-5.24,11.79-3.27,6.98-5.35,11.13-6.22,12.44-.88.88-1.63,2.07-2.29,3.6-.65,1.53-1.21,2.94-1.63,4.25-.45,1.31-.45,1.96,0,1.96s4.58-6.76,12.44-20.29c5.23-9.6,9.16-16.14,11.78-19.64,8.28-12.21,13.96-20.95,17.02-26.19,1.73-3.04,3.48-5.45,5.24-7.2.86-.87,1.52-1.31,1.96-1.31-.45,1.31-1.43,2.74-2.95,4.25-1.53,1.53-2.29,2.74-2.29,3.6,0,3.06-2.2,6.77-6.55,11.13-.88.88-1.31,1.75-1.31,2.61s-.98,2.52-2.94,4.91c-1.96,2.41-3.5,4.7-4.58,6.88-1.09,2.19-2.29,4.58-3.6,7.2-1.31,2.62-2.19,4.58-2.62,5.89-.44,1.31-1.53,3.5-3.27,6.54-1.75,3.07-3.5,6.88-5.24,11.46-1.75,4.58-2.84,6.87-3.27,6.87-6.12,12.23-9.17,18.77-9.17,19.64,0,1.31-3.06,7.43-9.16,18.33-3.5,6.12-5.24,10.47-5.24,13.09,0,1.31-.22,2.2-.65,2.62-.44.44-.65,1.53-.65,3.27,0,3.5-5.02,13.86-15.06,31.1-10.04,17.25-19.43,31.53-28.15,42.88-10.48,14.4-20.08,24.67-28.81,30.77-3.06,2.62-7.32,5.46-12.77,8.51-5.46,3.06-11.13,5.02-17.02,5.89-5.89.88-9.16,1.42-9.82,1.63Z"/>
        </g>
      </g>
    </g>
  </g>
</svg>